G04 #@! TF.FileFunction,Soldermask,Bot*
%FSLAX46Y46*%
G04 Gerber Fmt 4.6, Leading zero omitted, Abs format (unit mm)*
G04 Created by KiCad (PCBNEW Rev-6964-Dev Build) date Thu Sep  1 14:59:03 2016*
%MOMM*%
%LPD*%
G01*
G04 APERTURE LIST*
%ADD10C,0.100000*%
G04 APERTURE END LIST*
D10*
G36*
X107927000Y-100887000D02*
X105373000Y-100887000D01*
X105373000Y-97533000D01*
X107927000Y-97533000D01*
X107927000Y-100887000D01*
X107927000Y-100887000D01*
G37*
G36*
X85127000Y-100887000D02*
X82573000Y-100887000D01*
X82573000Y-97533000D01*
X85127000Y-97533000D01*
X85127000Y-100887000D01*
X85127000Y-100887000D01*
G37*
G36*
X76301383Y-98095441D02*
X76486795Y-98133501D01*
X76661297Y-98206855D01*
X76818221Y-98312702D01*
X76951598Y-98447012D01*
X77056345Y-98604671D01*
X77128477Y-98779674D01*
X77165174Y-98965008D01*
X77165174Y-98965018D01*
X77165241Y-98965357D01*
X77162222Y-99181557D01*
X77162146Y-99181891D01*
X77162146Y-99181904D01*
X77120288Y-99366142D01*
X77043300Y-99539059D01*
X76934188Y-99693735D01*
X76797113Y-99824270D01*
X76637294Y-99925694D01*
X76460816Y-99994145D01*
X76274410Y-100027014D01*
X76085162Y-100023049D01*
X75900293Y-99982404D01*
X75726836Y-99906622D01*
X75571408Y-99798597D01*
X75439919Y-99662436D01*
X75337381Y-99503328D01*
X75267698Y-99327330D01*
X75233529Y-99141158D01*
X75236171Y-98951891D01*
X75275527Y-98766739D01*
X75350093Y-98592761D01*
X75457035Y-98436578D01*
X75592273Y-98304142D01*
X75750663Y-98200496D01*
X75926166Y-98129587D01*
X76112096Y-98094120D01*
X76301383Y-98095441D01*
X76301383Y-98095441D01*
G37*
G36*
X78841383Y-98095441D02*
X79026795Y-98133501D01*
X79201297Y-98206855D01*
X79358221Y-98312702D01*
X79491598Y-98447012D01*
X79596345Y-98604671D01*
X79668477Y-98779674D01*
X79705174Y-98965008D01*
X79705174Y-98965018D01*
X79705241Y-98965357D01*
X79702222Y-99181557D01*
X79702146Y-99181891D01*
X79702146Y-99181904D01*
X79660288Y-99366142D01*
X79583300Y-99539059D01*
X79474188Y-99693735D01*
X79337113Y-99824270D01*
X79177294Y-99925694D01*
X79000816Y-99994145D01*
X78814410Y-100027014D01*
X78625162Y-100023049D01*
X78440293Y-99982404D01*
X78266836Y-99906622D01*
X78111408Y-99798597D01*
X77979919Y-99662436D01*
X77877381Y-99503328D01*
X77807698Y-99327330D01*
X77773529Y-99141158D01*
X77776171Y-98951891D01*
X77815527Y-98766739D01*
X77890093Y-98592761D01*
X77997035Y-98436578D01*
X78132273Y-98304142D01*
X78290663Y-98200496D01*
X78466166Y-98129587D01*
X78652096Y-98094120D01*
X78841383Y-98095441D01*
X78841383Y-98095441D01*
G37*
G36*
X114401383Y-98095441D02*
X114586795Y-98133501D01*
X114761297Y-98206855D01*
X114918221Y-98312702D01*
X115051598Y-98447012D01*
X115156345Y-98604671D01*
X115228477Y-98779674D01*
X115265174Y-98965008D01*
X115265174Y-98965018D01*
X115265241Y-98965357D01*
X115262222Y-99181557D01*
X115262146Y-99181891D01*
X115262146Y-99181904D01*
X115220288Y-99366142D01*
X115143300Y-99539059D01*
X115034188Y-99693735D01*
X114897113Y-99824270D01*
X114737294Y-99925694D01*
X114560816Y-99994145D01*
X114374410Y-100027014D01*
X114185162Y-100023049D01*
X114000293Y-99982404D01*
X113826836Y-99906622D01*
X113671408Y-99798597D01*
X113539919Y-99662436D01*
X113437381Y-99503328D01*
X113367698Y-99327330D01*
X113333529Y-99141158D01*
X113336171Y-98951891D01*
X113375527Y-98766739D01*
X113450093Y-98592761D01*
X113557035Y-98436578D01*
X113692273Y-98304142D01*
X113850663Y-98200496D01*
X114026166Y-98129587D01*
X114212096Y-98094120D01*
X114401383Y-98095441D01*
X114401383Y-98095441D01*
G37*
G36*
X111861383Y-98095441D02*
X112046795Y-98133501D01*
X112221297Y-98206855D01*
X112378221Y-98312702D01*
X112511598Y-98447012D01*
X112616345Y-98604671D01*
X112688477Y-98779674D01*
X112725174Y-98965008D01*
X112725174Y-98965018D01*
X112725241Y-98965357D01*
X112722222Y-99181557D01*
X112722146Y-99181891D01*
X112722146Y-99181904D01*
X112680288Y-99366142D01*
X112603300Y-99539059D01*
X112494188Y-99693735D01*
X112357113Y-99824270D01*
X112197294Y-99925694D01*
X112020816Y-99994145D01*
X111834410Y-100027014D01*
X111645162Y-100023049D01*
X111460293Y-99982404D01*
X111286836Y-99906622D01*
X111131408Y-99798597D01*
X110999919Y-99662436D01*
X110897381Y-99503328D01*
X110827698Y-99327330D01*
X110793529Y-99141158D01*
X110796171Y-98951891D01*
X110835527Y-98766739D01*
X110910093Y-98592761D01*
X111017035Y-98436578D01*
X111152273Y-98304142D01*
X111310663Y-98200496D01*
X111486166Y-98129587D01*
X111672096Y-98094120D01*
X111861383Y-98095441D01*
X111861383Y-98095441D01*
G37*
G36*
X109087000Y-98632000D02*
X108033000Y-98632000D01*
X108033000Y-97478000D01*
X109087000Y-97478000D01*
X109087000Y-98632000D01*
X109087000Y-98632000D01*
G37*
G36*
X110337000Y-98632000D02*
X109283000Y-98632000D01*
X109283000Y-97478000D01*
X110337000Y-97478000D01*
X110337000Y-98632000D01*
X110337000Y-98632000D01*
G37*
G36*
X105200800Y-98160800D02*
X85299200Y-98160800D01*
X85299200Y-96959200D01*
X105200800Y-96959200D01*
X105200800Y-98160800D01*
X105200800Y-98160800D01*
G37*
G36*
X114401383Y-95555441D02*
X114586795Y-95593501D01*
X114761297Y-95666855D01*
X114918221Y-95772702D01*
X115051598Y-95907012D01*
X115156345Y-96064671D01*
X115228477Y-96239674D01*
X115265174Y-96425008D01*
X115265174Y-96425018D01*
X115265241Y-96425357D01*
X115262222Y-96641557D01*
X115262146Y-96641891D01*
X115262146Y-96641904D01*
X115220288Y-96826142D01*
X115143300Y-96999059D01*
X115034188Y-97153735D01*
X114897113Y-97284270D01*
X114737294Y-97385694D01*
X114560816Y-97454145D01*
X114374410Y-97487014D01*
X114185162Y-97483049D01*
X114000293Y-97442404D01*
X113826836Y-97366622D01*
X113671408Y-97258597D01*
X113539919Y-97122436D01*
X113437381Y-96963328D01*
X113367698Y-96787330D01*
X113333529Y-96601158D01*
X113336171Y-96411891D01*
X113375527Y-96226739D01*
X113450093Y-96052761D01*
X113557035Y-95896578D01*
X113692273Y-95764142D01*
X113850663Y-95660496D01*
X114026166Y-95589587D01*
X114212096Y-95554120D01*
X114401383Y-95555441D01*
X114401383Y-95555441D01*
G37*
G36*
X76301383Y-95555441D02*
X76486795Y-95593501D01*
X76661297Y-95666855D01*
X76818221Y-95772702D01*
X76951598Y-95907012D01*
X77056345Y-96064671D01*
X77128477Y-96239674D01*
X77165174Y-96425008D01*
X77165174Y-96425018D01*
X77165241Y-96425357D01*
X77162222Y-96641557D01*
X77162146Y-96641891D01*
X77162146Y-96641904D01*
X77120288Y-96826142D01*
X77043300Y-96999059D01*
X76934188Y-97153735D01*
X76797113Y-97284270D01*
X76637294Y-97385694D01*
X76460816Y-97454145D01*
X76274410Y-97487014D01*
X76085162Y-97483049D01*
X75900293Y-97442404D01*
X75726836Y-97366622D01*
X75571408Y-97258597D01*
X75439919Y-97122436D01*
X75337381Y-96963328D01*
X75267698Y-96787330D01*
X75233529Y-96601158D01*
X75236171Y-96411891D01*
X75275527Y-96226739D01*
X75350093Y-96052761D01*
X75457035Y-95896578D01*
X75592273Y-95764142D01*
X75750663Y-95660496D01*
X75926166Y-95589587D01*
X76112096Y-95554120D01*
X76301383Y-95555441D01*
X76301383Y-95555441D01*
G37*
G36*
X78841383Y-95555441D02*
X79026795Y-95593501D01*
X79201297Y-95666855D01*
X79358221Y-95772702D01*
X79491598Y-95907012D01*
X79596345Y-96064671D01*
X79668477Y-96239674D01*
X79705174Y-96425008D01*
X79705174Y-96425018D01*
X79705241Y-96425357D01*
X79702222Y-96641557D01*
X79702146Y-96641891D01*
X79702146Y-96641904D01*
X79660288Y-96826142D01*
X79583300Y-96999059D01*
X79474188Y-97153735D01*
X79337113Y-97284270D01*
X79177294Y-97385694D01*
X79000816Y-97454145D01*
X78814410Y-97487014D01*
X78625162Y-97483049D01*
X78440293Y-97442404D01*
X78266836Y-97366622D01*
X78111408Y-97258597D01*
X77979919Y-97122436D01*
X77877381Y-96963328D01*
X77807698Y-96787330D01*
X77773529Y-96601158D01*
X77776171Y-96411891D01*
X77815527Y-96226739D01*
X77890093Y-96052761D01*
X77997035Y-95896578D01*
X78132273Y-95764142D01*
X78290663Y-95660496D01*
X78466166Y-95589587D01*
X78652096Y-95554120D01*
X78841383Y-95555441D01*
X78841383Y-95555441D01*
G37*
G36*
X111861383Y-95555441D02*
X112046795Y-95593501D01*
X112221297Y-95666855D01*
X112378221Y-95772702D01*
X112511598Y-95907012D01*
X112616345Y-96064671D01*
X112688477Y-96239674D01*
X112725174Y-96425008D01*
X112725174Y-96425018D01*
X112725241Y-96425357D01*
X112722222Y-96641557D01*
X112722146Y-96641891D01*
X112722146Y-96641904D01*
X112680288Y-96826142D01*
X112603300Y-96999059D01*
X112494188Y-97153735D01*
X112357113Y-97284270D01*
X112197294Y-97385694D01*
X112020816Y-97454145D01*
X111834410Y-97487014D01*
X111645162Y-97483049D01*
X111460293Y-97442404D01*
X111286836Y-97366622D01*
X111131408Y-97258597D01*
X110999919Y-97122436D01*
X110897381Y-96963328D01*
X110827698Y-96787330D01*
X110793529Y-96601158D01*
X110796171Y-96411891D01*
X110835527Y-96226739D01*
X110910093Y-96052761D01*
X111017035Y-95896578D01*
X111152273Y-95764142D01*
X111310663Y-95660496D01*
X111486166Y-95589587D01*
X111672096Y-95554120D01*
X111861383Y-95555441D01*
X111861383Y-95555441D01*
G37*
G36*
X109087000Y-96832000D02*
X108033000Y-96832000D01*
X108033000Y-95678000D01*
X109087000Y-95678000D01*
X109087000Y-96832000D01*
X109087000Y-96832000D01*
G37*
G36*
X110337000Y-96832000D02*
X109283000Y-96832000D01*
X109283000Y-95678000D01*
X110337000Y-95678000D01*
X110337000Y-96832000D01*
X110337000Y-96832000D01*
G37*
G36*
X103677000Y-96087000D02*
X102523000Y-96087000D01*
X102523000Y-95033000D01*
X103677000Y-95033000D01*
X103677000Y-96087000D01*
X103677000Y-96087000D01*
G37*
G36*
X105477000Y-96087000D02*
X104323000Y-96087000D01*
X104323000Y-95033000D01*
X105477000Y-95033000D01*
X105477000Y-96087000D01*
X105477000Y-96087000D01*
G37*
G36*
X114401383Y-93015441D02*
X114586795Y-93053501D01*
X114761297Y-93126855D01*
X114918221Y-93232702D01*
X115051598Y-93367012D01*
X115156345Y-93524671D01*
X115228477Y-93699674D01*
X115265174Y-93885008D01*
X115265174Y-93885018D01*
X115265241Y-93885357D01*
X115262222Y-94101557D01*
X115262146Y-94101891D01*
X115262146Y-94101904D01*
X115220288Y-94286142D01*
X115143300Y-94459059D01*
X115034188Y-94613735D01*
X114897113Y-94744270D01*
X114737294Y-94845694D01*
X114560816Y-94914145D01*
X114374410Y-94947014D01*
X114185162Y-94943049D01*
X114000293Y-94902404D01*
X113826836Y-94826622D01*
X113671408Y-94718597D01*
X113539919Y-94582436D01*
X113437381Y-94423328D01*
X113367698Y-94247330D01*
X113333529Y-94061158D01*
X113336171Y-93871891D01*
X113375527Y-93686739D01*
X113450093Y-93512761D01*
X113557035Y-93356578D01*
X113692273Y-93224142D01*
X113850663Y-93120496D01*
X114026166Y-93049587D01*
X114212096Y-93014120D01*
X114401383Y-93015441D01*
X114401383Y-93015441D01*
G37*
G36*
X111861383Y-93015441D02*
X112046795Y-93053501D01*
X112221297Y-93126855D01*
X112378221Y-93232702D01*
X112511598Y-93367012D01*
X112616345Y-93524671D01*
X112688477Y-93699674D01*
X112725174Y-93885008D01*
X112725174Y-93885018D01*
X112725241Y-93885357D01*
X112722222Y-94101557D01*
X112722146Y-94101891D01*
X112722146Y-94101904D01*
X112680288Y-94286142D01*
X112603300Y-94459059D01*
X112494188Y-94613735D01*
X112357113Y-94744270D01*
X112197294Y-94845694D01*
X112020816Y-94914145D01*
X111834410Y-94947014D01*
X111645162Y-94943049D01*
X111460293Y-94902404D01*
X111286836Y-94826622D01*
X111131408Y-94718597D01*
X110999919Y-94582436D01*
X110897381Y-94423328D01*
X110827698Y-94247330D01*
X110793529Y-94061158D01*
X110796171Y-93871891D01*
X110835527Y-93686739D01*
X110910093Y-93512761D01*
X111017035Y-93356578D01*
X111152273Y-93224142D01*
X111310663Y-93120496D01*
X111486166Y-93049587D01*
X111672096Y-93014120D01*
X111861383Y-93015441D01*
X111861383Y-93015441D01*
G37*
G36*
X76301383Y-93015441D02*
X76486795Y-93053501D01*
X76661297Y-93126855D01*
X76818221Y-93232702D01*
X76951598Y-93367012D01*
X77056345Y-93524671D01*
X77128477Y-93699674D01*
X77165174Y-93885008D01*
X77165174Y-93885018D01*
X77165241Y-93885357D01*
X77162222Y-94101557D01*
X77162146Y-94101891D01*
X77162146Y-94101904D01*
X77120288Y-94286142D01*
X77043300Y-94459059D01*
X76934188Y-94613735D01*
X76797113Y-94744270D01*
X76637294Y-94845694D01*
X76460816Y-94914145D01*
X76274410Y-94947014D01*
X76085162Y-94943049D01*
X75900293Y-94902404D01*
X75726836Y-94826622D01*
X75571408Y-94718597D01*
X75439919Y-94582436D01*
X75337381Y-94423328D01*
X75267698Y-94247330D01*
X75233529Y-94061158D01*
X75236171Y-93871891D01*
X75275527Y-93686739D01*
X75350093Y-93512761D01*
X75457035Y-93356578D01*
X75592273Y-93224142D01*
X75750663Y-93120496D01*
X75926166Y-93049587D01*
X76112096Y-93014120D01*
X76301383Y-93015441D01*
X76301383Y-93015441D01*
G37*
G36*
X78841383Y-93015441D02*
X79026795Y-93053501D01*
X79201297Y-93126855D01*
X79358221Y-93232702D01*
X79491598Y-93367012D01*
X79596345Y-93524671D01*
X79668477Y-93699674D01*
X79705174Y-93885008D01*
X79705174Y-93885018D01*
X79705241Y-93885357D01*
X79702222Y-94101557D01*
X79702146Y-94101891D01*
X79702146Y-94101904D01*
X79660288Y-94286142D01*
X79583300Y-94459059D01*
X79474188Y-94613735D01*
X79337113Y-94744270D01*
X79177294Y-94845694D01*
X79000816Y-94914145D01*
X78814410Y-94947014D01*
X78625162Y-94943049D01*
X78440293Y-94902404D01*
X78266836Y-94826622D01*
X78111408Y-94718597D01*
X77979919Y-94582436D01*
X77877381Y-94423328D01*
X77807698Y-94247330D01*
X77773529Y-94061158D01*
X77776171Y-93871891D01*
X77815527Y-93686739D01*
X77890093Y-93512761D01*
X77997035Y-93356578D01*
X78132273Y-93224142D01*
X78290663Y-93120496D01*
X78466166Y-93049587D01*
X78652096Y-93014120D01*
X78841383Y-93015441D01*
X78841383Y-93015441D01*
G37*
G36*
X106555421Y-93103034D02*
X106562698Y-93103085D01*
X106732792Y-93122165D01*
X106895940Y-93173918D01*
X107045929Y-93256375D01*
X107177046Y-93366395D01*
X107284295Y-93499787D01*
X107363593Y-93651470D01*
X107411919Y-93815667D01*
X107411922Y-93815703D01*
X107411925Y-93815712D01*
X107427433Y-93986120D01*
X107409547Y-94156298D01*
X107409544Y-94156308D01*
X107409540Y-94156345D01*
X107358927Y-94319851D01*
X107277519Y-94470412D01*
X107168417Y-94602294D01*
X107035777Y-94710472D01*
X106884652Y-94790827D01*
X106720797Y-94840298D01*
X106550453Y-94857000D01*
X106039510Y-94857000D01*
X106034579Y-94856966D01*
X106027302Y-94856915D01*
X105857208Y-94837835D01*
X105694060Y-94786082D01*
X105544071Y-94703625D01*
X105412954Y-94593605D01*
X105305705Y-94460213D01*
X105226407Y-94308530D01*
X105178081Y-94144333D01*
X105178078Y-94144297D01*
X105178075Y-94144288D01*
X105162567Y-93973880D01*
X105180453Y-93803702D01*
X105180456Y-93803692D01*
X105180460Y-93803655D01*
X105231073Y-93640149D01*
X105312481Y-93489588D01*
X105421583Y-93357706D01*
X105554223Y-93249528D01*
X105705348Y-93169173D01*
X105869203Y-93119702D01*
X106039547Y-93103000D01*
X106550490Y-93103000D01*
X106555421Y-93103034D01*
X106555421Y-93103034D01*
G37*
G36*
X103515421Y-93103034D02*
X103522698Y-93103085D01*
X103692792Y-93122165D01*
X103855940Y-93173918D01*
X104005929Y-93256375D01*
X104137046Y-93366395D01*
X104244295Y-93499787D01*
X104323593Y-93651470D01*
X104371919Y-93815667D01*
X104371922Y-93815703D01*
X104371925Y-93815712D01*
X104387433Y-93986120D01*
X104369547Y-94156298D01*
X104369544Y-94156308D01*
X104369540Y-94156345D01*
X104318927Y-94319851D01*
X104237519Y-94470412D01*
X104128417Y-94602294D01*
X103995777Y-94710472D01*
X103844652Y-94790827D01*
X103680797Y-94840298D01*
X103510453Y-94857000D01*
X102999510Y-94857000D01*
X102994579Y-94856966D01*
X102987302Y-94856915D01*
X102817208Y-94837835D01*
X102654060Y-94786082D01*
X102504071Y-94703625D01*
X102372954Y-94593605D01*
X102265705Y-94460213D01*
X102186407Y-94308530D01*
X102138081Y-94144333D01*
X102138078Y-94144297D01*
X102138075Y-94144288D01*
X102122567Y-93973880D01*
X102140453Y-93803702D01*
X102140456Y-93803692D01*
X102140460Y-93803655D01*
X102191073Y-93640149D01*
X102272481Y-93489588D01*
X102381583Y-93357706D01*
X102514223Y-93249528D01*
X102665348Y-93169173D01*
X102829203Y-93119702D01*
X102999547Y-93103000D01*
X103510490Y-93103000D01*
X103515421Y-93103034D01*
X103515421Y-93103034D01*
G37*
G36*
X111861383Y-90475441D02*
X112046795Y-90513501D01*
X112221297Y-90586855D01*
X112378221Y-90692702D01*
X112511598Y-90827012D01*
X112616345Y-90984671D01*
X112688477Y-91159674D01*
X112725174Y-91345008D01*
X112725174Y-91345018D01*
X112725241Y-91345357D01*
X112722222Y-91561557D01*
X112722146Y-91561891D01*
X112722146Y-91561904D01*
X112680288Y-91746142D01*
X112603300Y-91919059D01*
X112494188Y-92073735D01*
X112357113Y-92204270D01*
X112197294Y-92305694D01*
X112020816Y-92374145D01*
X111834410Y-92407014D01*
X111645162Y-92403049D01*
X111460293Y-92362404D01*
X111286836Y-92286622D01*
X111131408Y-92178597D01*
X110999919Y-92042436D01*
X110897381Y-91883328D01*
X110827698Y-91707330D01*
X110793529Y-91521158D01*
X110796171Y-91331891D01*
X110835527Y-91146739D01*
X110910093Y-90972761D01*
X111017035Y-90816578D01*
X111152273Y-90684142D01*
X111310663Y-90580496D01*
X111486166Y-90509587D01*
X111672096Y-90474120D01*
X111861383Y-90475441D01*
X111861383Y-90475441D01*
G37*
G36*
X114401383Y-90475441D02*
X114586795Y-90513501D01*
X114761297Y-90586855D01*
X114918221Y-90692702D01*
X115051598Y-90827012D01*
X115156345Y-90984671D01*
X115228477Y-91159674D01*
X115265174Y-91345008D01*
X115265174Y-91345018D01*
X115265241Y-91345357D01*
X115262222Y-91561557D01*
X115262146Y-91561891D01*
X115262146Y-91561904D01*
X115220288Y-91746142D01*
X115143300Y-91919059D01*
X115034188Y-92073735D01*
X114897113Y-92204270D01*
X114737294Y-92305694D01*
X114560816Y-92374145D01*
X114374410Y-92407014D01*
X114185162Y-92403049D01*
X114000293Y-92362404D01*
X113826836Y-92286622D01*
X113671408Y-92178597D01*
X113539919Y-92042436D01*
X113437381Y-91883328D01*
X113367698Y-91707330D01*
X113333529Y-91521158D01*
X113336171Y-91331891D01*
X113375527Y-91146739D01*
X113450093Y-90972761D01*
X113557035Y-90816578D01*
X113692273Y-90684142D01*
X113850663Y-90580496D01*
X114026166Y-90509587D01*
X114212096Y-90474120D01*
X114401383Y-90475441D01*
X114401383Y-90475441D01*
G37*
G36*
X78841383Y-90475441D02*
X79026795Y-90513501D01*
X79201297Y-90586855D01*
X79358221Y-90692702D01*
X79491598Y-90827012D01*
X79596345Y-90984671D01*
X79668477Y-91159674D01*
X79705174Y-91345008D01*
X79705174Y-91345018D01*
X79705241Y-91345357D01*
X79702222Y-91561557D01*
X79702146Y-91561891D01*
X79702146Y-91561904D01*
X79660288Y-91746142D01*
X79583300Y-91919059D01*
X79474188Y-92073735D01*
X79337113Y-92204270D01*
X79177294Y-92305694D01*
X79000816Y-92374145D01*
X78814410Y-92407014D01*
X78625162Y-92403049D01*
X78440293Y-92362404D01*
X78266836Y-92286622D01*
X78111408Y-92178597D01*
X77979919Y-92042436D01*
X77877381Y-91883328D01*
X77807698Y-91707330D01*
X77773529Y-91521158D01*
X77776171Y-91331891D01*
X77815527Y-91146739D01*
X77890093Y-90972761D01*
X77997035Y-90816578D01*
X78132273Y-90684142D01*
X78290663Y-90580496D01*
X78466166Y-90509587D01*
X78652096Y-90474120D01*
X78841383Y-90475441D01*
X78841383Y-90475441D01*
G37*
G36*
X76301383Y-90475441D02*
X76486795Y-90513501D01*
X76661297Y-90586855D01*
X76818221Y-90692702D01*
X76951598Y-90827012D01*
X77056345Y-90984671D01*
X77128477Y-91159674D01*
X77165174Y-91345008D01*
X77165174Y-91345018D01*
X77165241Y-91345357D01*
X77162222Y-91561557D01*
X77162146Y-91561891D01*
X77162146Y-91561904D01*
X77120288Y-91746142D01*
X77043300Y-91919059D01*
X76934188Y-92073735D01*
X76797113Y-92204270D01*
X76637294Y-92305694D01*
X76460816Y-92374145D01*
X76274410Y-92407014D01*
X76085162Y-92403049D01*
X75900293Y-92362404D01*
X75726836Y-92286622D01*
X75571408Y-92178597D01*
X75439919Y-92042436D01*
X75337381Y-91883328D01*
X75267698Y-91707330D01*
X75233529Y-91521158D01*
X75236171Y-91331891D01*
X75275527Y-91146739D01*
X75350093Y-90972761D01*
X75457035Y-90816578D01*
X75592273Y-90684142D01*
X75750663Y-90580496D01*
X75926166Y-90509587D01*
X76112096Y-90474120D01*
X76301383Y-90475441D01*
X76301383Y-90475441D01*
G37*
G36*
X103515421Y-90563034D02*
X103522698Y-90563085D01*
X103692792Y-90582165D01*
X103855940Y-90633918D01*
X104005929Y-90716375D01*
X104137046Y-90826395D01*
X104244295Y-90959787D01*
X104323593Y-91111470D01*
X104371919Y-91275667D01*
X104371922Y-91275703D01*
X104371925Y-91275712D01*
X104387433Y-91446120D01*
X104369547Y-91616298D01*
X104369544Y-91616308D01*
X104369540Y-91616345D01*
X104318927Y-91779851D01*
X104237519Y-91930412D01*
X104128417Y-92062294D01*
X103995777Y-92170472D01*
X103844652Y-92250827D01*
X103680797Y-92300298D01*
X103510453Y-92317000D01*
X102999510Y-92317000D01*
X102994579Y-92316966D01*
X102987302Y-92316915D01*
X102817208Y-92297835D01*
X102654060Y-92246082D01*
X102504071Y-92163625D01*
X102372954Y-92053605D01*
X102265705Y-91920213D01*
X102186407Y-91768530D01*
X102138081Y-91604333D01*
X102138078Y-91604297D01*
X102138075Y-91604288D01*
X102122567Y-91433880D01*
X102140453Y-91263702D01*
X102140456Y-91263692D01*
X102140460Y-91263655D01*
X102191073Y-91100149D01*
X102272481Y-90949588D01*
X102381583Y-90817706D01*
X102514223Y-90709528D01*
X102665348Y-90629173D01*
X102829203Y-90579702D01*
X102999547Y-90563000D01*
X103510490Y-90563000D01*
X103515421Y-90563034D01*
X103515421Y-90563034D01*
G37*
G36*
X106555421Y-90563034D02*
X106562698Y-90563085D01*
X106732792Y-90582165D01*
X106895940Y-90633918D01*
X107045929Y-90716375D01*
X107177046Y-90826395D01*
X107284295Y-90959787D01*
X107363593Y-91111470D01*
X107411919Y-91275667D01*
X107411922Y-91275703D01*
X107411925Y-91275712D01*
X107427433Y-91446120D01*
X107409547Y-91616298D01*
X107409544Y-91616308D01*
X107409540Y-91616345D01*
X107358927Y-91779851D01*
X107277519Y-91930412D01*
X107168417Y-92062294D01*
X107035777Y-92170472D01*
X106884652Y-92250827D01*
X106720797Y-92300298D01*
X106550453Y-92317000D01*
X106039510Y-92317000D01*
X106034579Y-92316966D01*
X106027302Y-92316915D01*
X105857208Y-92297835D01*
X105694060Y-92246082D01*
X105544071Y-92163625D01*
X105412954Y-92053605D01*
X105305705Y-91920213D01*
X105226407Y-91768530D01*
X105178081Y-91604333D01*
X105178078Y-91604297D01*
X105178075Y-91604288D01*
X105162567Y-91433880D01*
X105180453Y-91263702D01*
X105180456Y-91263692D01*
X105180460Y-91263655D01*
X105231073Y-91100149D01*
X105312481Y-90949588D01*
X105421583Y-90817706D01*
X105554223Y-90709528D01*
X105705348Y-90629173D01*
X105869203Y-90579702D01*
X106039547Y-90563000D01*
X106550490Y-90563000D01*
X106555421Y-90563034D01*
X106555421Y-90563034D01*
G37*
G36*
X114401383Y-87935441D02*
X114586795Y-87973501D01*
X114761297Y-88046855D01*
X114918221Y-88152702D01*
X115051598Y-88287012D01*
X115156345Y-88444671D01*
X115228477Y-88619674D01*
X115265174Y-88805008D01*
X115265174Y-88805018D01*
X115265241Y-88805357D01*
X115262222Y-89021557D01*
X115262146Y-89021891D01*
X115262146Y-89021904D01*
X115220288Y-89206142D01*
X115143300Y-89379059D01*
X115034188Y-89533735D01*
X114897113Y-89664270D01*
X114737294Y-89765694D01*
X114560816Y-89834145D01*
X114374410Y-89867014D01*
X114185162Y-89863049D01*
X114000293Y-89822404D01*
X113826836Y-89746622D01*
X113671408Y-89638597D01*
X113539919Y-89502436D01*
X113437381Y-89343328D01*
X113367698Y-89167330D01*
X113333529Y-88981158D01*
X113336171Y-88791891D01*
X113375527Y-88606739D01*
X113450093Y-88432761D01*
X113557035Y-88276578D01*
X113692273Y-88144142D01*
X113850663Y-88040496D01*
X114026166Y-87969587D01*
X114212096Y-87934120D01*
X114401383Y-87935441D01*
X114401383Y-87935441D01*
G37*
G36*
X111861383Y-87935441D02*
X112046795Y-87973501D01*
X112221297Y-88046855D01*
X112378221Y-88152702D01*
X112511598Y-88287012D01*
X112616345Y-88444671D01*
X112688477Y-88619674D01*
X112725174Y-88805008D01*
X112725174Y-88805018D01*
X112725241Y-88805357D01*
X112722222Y-89021557D01*
X112722146Y-89021891D01*
X112722146Y-89021904D01*
X112680288Y-89206142D01*
X112603300Y-89379059D01*
X112494188Y-89533735D01*
X112357113Y-89664270D01*
X112197294Y-89765694D01*
X112020816Y-89834145D01*
X111834410Y-89867014D01*
X111645162Y-89863049D01*
X111460293Y-89822404D01*
X111286836Y-89746622D01*
X111131408Y-89638597D01*
X110999919Y-89502436D01*
X110897381Y-89343328D01*
X110827698Y-89167330D01*
X110793529Y-88981158D01*
X110796171Y-88791891D01*
X110835527Y-88606739D01*
X110910093Y-88432761D01*
X111017035Y-88276578D01*
X111152273Y-88144142D01*
X111310663Y-88040496D01*
X111486166Y-87969587D01*
X111672096Y-87934120D01*
X111861383Y-87935441D01*
X111861383Y-87935441D01*
G37*
G36*
X78841383Y-87935441D02*
X79026795Y-87973501D01*
X79201297Y-88046855D01*
X79358221Y-88152702D01*
X79491598Y-88287012D01*
X79596345Y-88444671D01*
X79668477Y-88619674D01*
X79705174Y-88805008D01*
X79705174Y-88805018D01*
X79705241Y-88805357D01*
X79702222Y-89021557D01*
X79702146Y-89021891D01*
X79702146Y-89021904D01*
X79660288Y-89206142D01*
X79583300Y-89379059D01*
X79474188Y-89533735D01*
X79337113Y-89664270D01*
X79177294Y-89765694D01*
X79000816Y-89834145D01*
X78814410Y-89867014D01*
X78625162Y-89863049D01*
X78440293Y-89822404D01*
X78266836Y-89746622D01*
X78111408Y-89638597D01*
X77979919Y-89502436D01*
X77877381Y-89343328D01*
X77807698Y-89167330D01*
X77773529Y-88981158D01*
X77776171Y-88791891D01*
X77815527Y-88606739D01*
X77890093Y-88432761D01*
X77997035Y-88276578D01*
X78132273Y-88144142D01*
X78290663Y-88040496D01*
X78466166Y-87969587D01*
X78652096Y-87934120D01*
X78841383Y-87935441D01*
X78841383Y-87935441D01*
G37*
G36*
X76301383Y-87935441D02*
X76486795Y-87973501D01*
X76661297Y-88046855D01*
X76818221Y-88152702D01*
X76951598Y-88287012D01*
X77056345Y-88444671D01*
X77128477Y-88619674D01*
X77165174Y-88805008D01*
X77165174Y-88805018D01*
X77165241Y-88805357D01*
X77162222Y-89021557D01*
X77162146Y-89021891D01*
X77162146Y-89021904D01*
X77120288Y-89206142D01*
X77043300Y-89379059D01*
X76934188Y-89533735D01*
X76797113Y-89664270D01*
X76637294Y-89765694D01*
X76460816Y-89834145D01*
X76274410Y-89867014D01*
X76085162Y-89863049D01*
X75900293Y-89822404D01*
X75726836Y-89746622D01*
X75571408Y-89638597D01*
X75439919Y-89502436D01*
X75337381Y-89343328D01*
X75267698Y-89167330D01*
X75233529Y-88981158D01*
X75236171Y-88791891D01*
X75275527Y-88606739D01*
X75350093Y-88432761D01*
X75457035Y-88276578D01*
X75592273Y-88144142D01*
X75750663Y-88040496D01*
X75926166Y-87969587D01*
X76112096Y-87934120D01*
X76301383Y-87935441D01*
X76301383Y-87935441D01*
G37*
G36*
X103515421Y-88023034D02*
X103522698Y-88023085D01*
X103692792Y-88042165D01*
X103855940Y-88093918D01*
X104005929Y-88176375D01*
X104137046Y-88286395D01*
X104244295Y-88419787D01*
X104323593Y-88571470D01*
X104371919Y-88735667D01*
X104371922Y-88735703D01*
X104371925Y-88735712D01*
X104387433Y-88906120D01*
X104369547Y-89076298D01*
X104369544Y-89076308D01*
X104369540Y-89076345D01*
X104318927Y-89239851D01*
X104237519Y-89390412D01*
X104128417Y-89522294D01*
X103995777Y-89630472D01*
X103844652Y-89710827D01*
X103680797Y-89760298D01*
X103510453Y-89777000D01*
X102999510Y-89777000D01*
X102994579Y-89776966D01*
X102987302Y-89776915D01*
X102817208Y-89757835D01*
X102654060Y-89706082D01*
X102504071Y-89623625D01*
X102372954Y-89513605D01*
X102265705Y-89380213D01*
X102186407Y-89228530D01*
X102138081Y-89064333D01*
X102138078Y-89064297D01*
X102138075Y-89064288D01*
X102122567Y-88893880D01*
X102140453Y-88723702D01*
X102140456Y-88723692D01*
X102140460Y-88723655D01*
X102191073Y-88560149D01*
X102272481Y-88409588D01*
X102381583Y-88277706D01*
X102514223Y-88169528D01*
X102665348Y-88089173D01*
X102829203Y-88039702D01*
X102999547Y-88023000D01*
X103510490Y-88023000D01*
X103515421Y-88023034D01*
X103515421Y-88023034D01*
G37*
G36*
X106555421Y-88023034D02*
X106562698Y-88023085D01*
X106732792Y-88042165D01*
X106895940Y-88093918D01*
X107045929Y-88176375D01*
X107177046Y-88286395D01*
X107284295Y-88419787D01*
X107363593Y-88571470D01*
X107411919Y-88735667D01*
X107411922Y-88735703D01*
X107411925Y-88735712D01*
X107427433Y-88906120D01*
X107409547Y-89076298D01*
X107409544Y-89076308D01*
X107409540Y-89076345D01*
X107358927Y-89239851D01*
X107277519Y-89390412D01*
X107168417Y-89522294D01*
X107035777Y-89630472D01*
X106884652Y-89710827D01*
X106720797Y-89760298D01*
X106550453Y-89777000D01*
X106039510Y-89777000D01*
X106034579Y-89776966D01*
X106027302Y-89776915D01*
X105857208Y-89757835D01*
X105694060Y-89706082D01*
X105544071Y-89623625D01*
X105412954Y-89513605D01*
X105305705Y-89380213D01*
X105226407Y-89228530D01*
X105178081Y-89064333D01*
X105178078Y-89064297D01*
X105178075Y-89064288D01*
X105162567Y-88893880D01*
X105180453Y-88723702D01*
X105180456Y-88723692D01*
X105180460Y-88723655D01*
X105231073Y-88560149D01*
X105312481Y-88409588D01*
X105421583Y-88277706D01*
X105554223Y-88169528D01*
X105705348Y-88089173D01*
X105869203Y-88039702D01*
X106039547Y-88023000D01*
X106550490Y-88023000D01*
X106555421Y-88023034D01*
X106555421Y-88023034D01*
G37*
G36*
X76301383Y-85395441D02*
X76486795Y-85433501D01*
X76661297Y-85506855D01*
X76818221Y-85612702D01*
X76951598Y-85747012D01*
X77056345Y-85904671D01*
X77128477Y-86079674D01*
X77165174Y-86265008D01*
X77165174Y-86265018D01*
X77165241Y-86265357D01*
X77162222Y-86481557D01*
X77162146Y-86481891D01*
X77162146Y-86481904D01*
X77120288Y-86666142D01*
X77043300Y-86839059D01*
X76934188Y-86993735D01*
X76797113Y-87124270D01*
X76637294Y-87225694D01*
X76460816Y-87294145D01*
X76274410Y-87327014D01*
X76085162Y-87323049D01*
X75900293Y-87282404D01*
X75726836Y-87206622D01*
X75571408Y-87098597D01*
X75439919Y-86962436D01*
X75337381Y-86803328D01*
X75267698Y-86627330D01*
X75233529Y-86441158D01*
X75236171Y-86251891D01*
X75275527Y-86066739D01*
X75350093Y-85892761D01*
X75457035Y-85736578D01*
X75592273Y-85604142D01*
X75750663Y-85500496D01*
X75926166Y-85429587D01*
X76112096Y-85394120D01*
X76301383Y-85395441D01*
X76301383Y-85395441D01*
G37*
G36*
X78841383Y-85395441D02*
X79026795Y-85433501D01*
X79201297Y-85506855D01*
X79358221Y-85612702D01*
X79491598Y-85747012D01*
X79596345Y-85904671D01*
X79668477Y-86079674D01*
X79705174Y-86265008D01*
X79705174Y-86265018D01*
X79705241Y-86265357D01*
X79702222Y-86481557D01*
X79702146Y-86481891D01*
X79702146Y-86481904D01*
X79660288Y-86666142D01*
X79583300Y-86839059D01*
X79474188Y-86993735D01*
X79337113Y-87124270D01*
X79177294Y-87225694D01*
X79000816Y-87294145D01*
X78814410Y-87327014D01*
X78625162Y-87323049D01*
X78440293Y-87282404D01*
X78266836Y-87206622D01*
X78111408Y-87098597D01*
X77979919Y-86962436D01*
X77877381Y-86803328D01*
X77807698Y-86627330D01*
X77773529Y-86441158D01*
X77776171Y-86251891D01*
X77815527Y-86066739D01*
X77890093Y-85892761D01*
X77997035Y-85736578D01*
X78132273Y-85604142D01*
X78290663Y-85500496D01*
X78466166Y-85429587D01*
X78652096Y-85394120D01*
X78841383Y-85395441D01*
X78841383Y-85395441D01*
G37*
G36*
X111861383Y-85395441D02*
X112046795Y-85433501D01*
X112221297Y-85506855D01*
X112378221Y-85612702D01*
X112511598Y-85747012D01*
X112616345Y-85904671D01*
X112688477Y-86079674D01*
X112725174Y-86265008D01*
X112725174Y-86265018D01*
X112725241Y-86265357D01*
X112722222Y-86481557D01*
X112722146Y-86481891D01*
X112722146Y-86481904D01*
X112680288Y-86666142D01*
X112603300Y-86839059D01*
X112494188Y-86993735D01*
X112357113Y-87124270D01*
X112197294Y-87225694D01*
X112020816Y-87294145D01*
X111834410Y-87327014D01*
X111645162Y-87323049D01*
X111460293Y-87282404D01*
X111286836Y-87206622D01*
X111131408Y-87098597D01*
X110999919Y-86962436D01*
X110897381Y-86803328D01*
X110827698Y-86627330D01*
X110793529Y-86441158D01*
X110796171Y-86251891D01*
X110835527Y-86066739D01*
X110910093Y-85892761D01*
X111017035Y-85736578D01*
X111152273Y-85604142D01*
X111310663Y-85500496D01*
X111486166Y-85429587D01*
X111672096Y-85394120D01*
X111861383Y-85395441D01*
X111861383Y-85395441D01*
G37*
G36*
X114401383Y-85395441D02*
X114586795Y-85433501D01*
X114761297Y-85506855D01*
X114918221Y-85612702D01*
X115051598Y-85747012D01*
X115156345Y-85904671D01*
X115228477Y-86079674D01*
X115265174Y-86265008D01*
X115265174Y-86265018D01*
X115265241Y-86265357D01*
X115262222Y-86481557D01*
X115262146Y-86481891D01*
X115262146Y-86481904D01*
X115220288Y-86666142D01*
X115143300Y-86839059D01*
X115034188Y-86993735D01*
X114897113Y-87124270D01*
X114737294Y-87225694D01*
X114560816Y-87294145D01*
X114374410Y-87327014D01*
X114185162Y-87323049D01*
X114000293Y-87282404D01*
X113826836Y-87206622D01*
X113671408Y-87098597D01*
X113539919Y-86962436D01*
X113437381Y-86803328D01*
X113367698Y-86627330D01*
X113333529Y-86441158D01*
X113336171Y-86251891D01*
X113375527Y-86066739D01*
X113450093Y-85892761D01*
X113557035Y-85736578D01*
X113692273Y-85604142D01*
X113850663Y-85500496D01*
X114026166Y-85429587D01*
X114212096Y-85394120D01*
X114401383Y-85395441D01*
X114401383Y-85395441D01*
G37*
G36*
X106555421Y-85483034D02*
X106562698Y-85483085D01*
X106732792Y-85502165D01*
X106895940Y-85553918D01*
X107045929Y-85636375D01*
X107177046Y-85746395D01*
X107284295Y-85879787D01*
X107363593Y-86031470D01*
X107411919Y-86195667D01*
X107411922Y-86195703D01*
X107411925Y-86195712D01*
X107427433Y-86366120D01*
X107409547Y-86536298D01*
X107409544Y-86536308D01*
X107409540Y-86536345D01*
X107358927Y-86699851D01*
X107277519Y-86850412D01*
X107168417Y-86982294D01*
X107035777Y-87090472D01*
X106884652Y-87170827D01*
X106720797Y-87220298D01*
X106550453Y-87237000D01*
X106039510Y-87237000D01*
X106034579Y-87236966D01*
X106027302Y-87236915D01*
X105857208Y-87217835D01*
X105694060Y-87166082D01*
X105544071Y-87083625D01*
X105412954Y-86973605D01*
X105305705Y-86840213D01*
X105226407Y-86688530D01*
X105178081Y-86524333D01*
X105178078Y-86524297D01*
X105178075Y-86524288D01*
X105162567Y-86353880D01*
X105180453Y-86183702D01*
X105180456Y-86183692D01*
X105180460Y-86183655D01*
X105231073Y-86020149D01*
X105312481Y-85869588D01*
X105421583Y-85737706D01*
X105554223Y-85629528D01*
X105705348Y-85549173D01*
X105869203Y-85499702D01*
X106039547Y-85483000D01*
X106550490Y-85483000D01*
X106555421Y-85483034D01*
X106555421Y-85483034D01*
G37*
G36*
X103515421Y-85483034D02*
X103522698Y-85483085D01*
X103692792Y-85502165D01*
X103855940Y-85553918D01*
X104005929Y-85636375D01*
X104137046Y-85746395D01*
X104244295Y-85879787D01*
X104323593Y-86031470D01*
X104371919Y-86195667D01*
X104371922Y-86195703D01*
X104371925Y-86195712D01*
X104387433Y-86366120D01*
X104369547Y-86536298D01*
X104369544Y-86536308D01*
X104369540Y-86536345D01*
X104318927Y-86699851D01*
X104237519Y-86850412D01*
X104128417Y-86982294D01*
X103995777Y-87090472D01*
X103844652Y-87170827D01*
X103680797Y-87220298D01*
X103510453Y-87237000D01*
X102999510Y-87237000D01*
X102994579Y-87236966D01*
X102987302Y-87236915D01*
X102817208Y-87217835D01*
X102654060Y-87166082D01*
X102504071Y-87083625D01*
X102372954Y-86973605D01*
X102265705Y-86840213D01*
X102186407Y-86688530D01*
X102138081Y-86524333D01*
X102138078Y-86524297D01*
X102138075Y-86524288D01*
X102122567Y-86353880D01*
X102140453Y-86183702D01*
X102140456Y-86183692D01*
X102140460Y-86183655D01*
X102191073Y-86020149D01*
X102272481Y-85869588D01*
X102381583Y-85737706D01*
X102514223Y-85629528D01*
X102665348Y-85549173D01*
X102829203Y-85499702D01*
X102999547Y-85483000D01*
X103510490Y-85483000D01*
X103515421Y-85483034D01*
X103515421Y-85483034D01*
G37*
G36*
X111861383Y-82855441D02*
X112046795Y-82893501D01*
X112221297Y-82966855D01*
X112378221Y-83072702D01*
X112511598Y-83207012D01*
X112616345Y-83364671D01*
X112688477Y-83539674D01*
X112725174Y-83725008D01*
X112725174Y-83725018D01*
X112725241Y-83725357D01*
X112722222Y-83941557D01*
X112722146Y-83941891D01*
X112722146Y-83941904D01*
X112680288Y-84126142D01*
X112603300Y-84299059D01*
X112494188Y-84453735D01*
X112357113Y-84584270D01*
X112197294Y-84685694D01*
X112020816Y-84754145D01*
X111834410Y-84787014D01*
X111645162Y-84783049D01*
X111460293Y-84742404D01*
X111286836Y-84666622D01*
X111131408Y-84558597D01*
X110999919Y-84422436D01*
X110897381Y-84263328D01*
X110827698Y-84087330D01*
X110793529Y-83901158D01*
X110796171Y-83711891D01*
X110835527Y-83526739D01*
X110910093Y-83352761D01*
X111017035Y-83196578D01*
X111152273Y-83064142D01*
X111310663Y-82960496D01*
X111486166Y-82889587D01*
X111672096Y-82854120D01*
X111861383Y-82855441D01*
X111861383Y-82855441D01*
G37*
G36*
X114401383Y-82855441D02*
X114586795Y-82893501D01*
X114761297Y-82966855D01*
X114918221Y-83072702D01*
X115051598Y-83207012D01*
X115156345Y-83364671D01*
X115228477Y-83539674D01*
X115265174Y-83725008D01*
X115265174Y-83725018D01*
X115265241Y-83725357D01*
X115262222Y-83941557D01*
X115262146Y-83941891D01*
X115262146Y-83941904D01*
X115220288Y-84126142D01*
X115143300Y-84299059D01*
X115034188Y-84453735D01*
X114897113Y-84584270D01*
X114737294Y-84685694D01*
X114560816Y-84754145D01*
X114374410Y-84787014D01*
X114185162Y-84783049D01*
X114000293Y-84742404D01*
X113826836Y-84666622D01*
X113671408Y-84558597D01*
X113539919Y-84422436D01*
X113437381Y-84263328D01*
X113367698Y-84087330D01*
X113333529Y-83901158D01*
X113336171Y-83711891D01*
X113375527Y-83526739D01*
X113450093Y-83352761D01*
X113557035Y-83196578D01*
X113692273Y-83064142D01*
X113850663Y-82960496D01*
X114026166Y-82889587D01*
X114212096Y-82854120D01*
X114401383Y-82855441D01*
X114401383Y-82855441D01*
G37*
G36*
X76301383Y-82855441D02*
X76486795Y-82893501D01*
X76661297Y-82966855D01*
X76818221Y-83072702D01*
X76951598Y-83207012D01*
X77056345Y-83364671D01*
X77128477Y-83539674D01*
X77165174Y-83725008D01*
X77165174Y-83725018D01*
X77165241Y-83725357D01*
X77162222Y-83941557D01*
X77162146Y-83941891D01*
X77162146Y-83941904D01*
X77120288Y-84126142D01*
X77043300Y-84299059D01*
X76934188Y-84453735D01*
X76797113Y-84584270D01*
X76637294Y-84685694D01*
X76460816Y-84754145D01*
X76274410Y-84787014D01*
X76085162Y-84783049D01*
X75900293Y-84742404D01*
X75726836Y-84666622D01*
X75571408Y-84558597D01*
X75439919Y-84422436D01*
X75337381Y-84263328D01*
X75267698Y-84087330D01*
X75233529Y-83901158D01*
X75236171Y-83711891D01*
X75275527Y-83526739D01*
X75350093Y-83352761D01*
X75457035Y-83196578D01*
X75592273Y-83064142D01*
X75750663Y-82960496D01*
X75926166Y-82889587D01*
X76112096Y-82854120D01*
X76301383Y-82855441D01*
X76301383Y-82855441D01*
G37*
G36*
X78841383Y-82855441D02*
X79026795Y-82893501D01*
X79201297Y-82966855D01*
X79358221Y-83072702D01*
X79491598Y-83207012D01*
X79596345Y-83364671D01*
X79668477Y-83539674D01*
X79705174Y-83725008D01*
X79705174Y-83725018D01*
X79705241Y-83725357D01*
X79702222Y-83941557D01*
X79702146Y-83941891D01*
X79702146Y-83941904D01*
X79660288Y-84126142D01*
X79583300Y-84299059D01*
X79474188Y-84453735D01*
X79337113Y-84584270D01*
X79177294Y-84685694D01*
X79000816Y-84754145D01*
X78814410Y-84787014D01*
X78625162Y-84783049D01*
X78440293Y-84742404D01*
X78266836Y-84666622D01*
X78111408Y-84558597D01*
X77979919Y-84422436D01*
X77877381Y-84263328D01*
X77807698Y-84087330D01*
X77773529Y-83901158D01*
X77776171Y-83711891D01*
X77815527Y-83526739D01*
X77890093Y-83352761D01*
X77997035Y-83196578D01*
X78132273Y-83064142D01*
X78290663Y-82960496D01*
X78466166Y-82889587D01*
X78652096Y-82854120D01*
X78841383Y-82855441D01*
X78841383Y-82855441D01*
G37*
G36*
X103515421Y-82943034D02*
X103522698Y-82943085D01*
X103692792Y-82962165D01*
X103855940Y-83013918D01*
X104005929Y-83096375D01*
X104137046Y-83206395D01*
X104244295Y-83339787D01*
X104323593Y-83491470D01*
X104371919Y-83655667D01*
X104371922Y-83655703D01*
X104371925Y-83655712D01*
X104387433Y-83826120D01*
X104369547Y-83996298D01*
X104369544Y-83996308D01*
X104369540Y-83996345D01*
X104318927Y-84159851D01*
X104237519Y-84310412D01*
X104128417Y-84442294D01*
X103995777Y-84550472D01*
X103844652Y-84630827D01*
X103680797Y-84680298D01*
X103510453Y-84697000D01*
X102999510Y-84697000D01*
X102994579Y-84696966D01*
X102987302Y-84696915D01*
X102817208Y-84677835D01*
X102654060Y-84626082D01*
X102504071Y-84543625D01*
X102372954Y-84433605D01*
X102265705Y-84300213D01*
X102186407Y-84148530D01*
X102138081Y-83984333D01*
X102138078Y-83984297D01*
X102138075Y-83984288D01*
X102122567Y-83813880D01*
X102140453Y-83643702D01*
X102140456Y-83643692D01*
X102140460Y-83643655D01*
X102191073Y-83480149D01*
X102272481Y-83329588D01*
X102381583Y-83197706D01*
X102514223Y-83089528D01*
X102665348Y-83009173D01*
X102829203Y-82959702D01*
X102999547Y-82943000D01*
X103510490Y-82943000D01*
X103515421Y-82943034D01*
X103515421Y-82943034D01*
G37*
G36*
X106555421Y-82943034D02*
X106562698Y-82943085D01*
X106732792Y-82962165D01*
X106895940Y-83013918D01*
X107045929Y-83096375D01*
X107177046Y-83206395D01*
X107284295Y-83339787D01*
X107363593Y-83491470D01*
X107411919Y-83655667D01*
X107411922Y-83655703D01*
X107411925Y-83655712D01*
X107427433Y-83826120D01*
X107409547Y-83996298D01*
X107409544Y-83996308D01*
X107409540Y-83996345D01*
X107358927Y-84159851D01*
X107277519Y-84310412D01*
X107168417Y-84442294D01*
X107035777Y-84550472D01*
X106884652Y-84630827D01*
X106720797Y-84680298D01*
X106550453Y-84697000D01*
X106039510Y-84697000D01*
X106034579Y-84696966D01*
X106027302Y-84696915D01*
X105857208Y-84677835D01*
X105694060Y-84626082D01*
X105544071Y-84543625D01*
X105412954Y-84433605D01*
X105305705Y-84300213D01*
X105226407Y-84148530D01*
X105178081Y-83984333D01*
X105178078Y-83984297D01*
X105178075Y-83984288D01*
X105162567Y-83813880D01*
X105180453Y-83643702D01*
X105180456Y-83643692D01*
X105180460Y-83643655D01*
X105231073Y-83480149D01*
X105312481Y-83329588D01*
X105421583Y-83197706D01*
X105554223Y-83089528D01*
X105705348Y-83009173D01*
X105869203Y-82959702D01*
X106039547Y-82943000D01*
X106550490Y-82943000D01*
X106555421Y-82943034D01*
X106555421Y-82943034D01*
G37*
G36*
X78841383Y-80315441D02*
X79026795Y-80353501D01*
X79201297Y-80426855D01*
X79358221Y-80532702D01*
X79491598Y-80667012D01*
X79596345Y-80824671D01*
X79668477Y-80999674D01*
X79705174Y-81185008D01*
X79705174Y-81185018D01*
X79705241Y-81185357D01*
X79702222Y-81401557D01*
X79702146Y-81401891D01*
X79702146Y-81401904D01*
X79660288Y-81586142D01*
X79583300Y-81759059D01*
X79474188Y-81913735D01*
X79337113Y-82044270D01*
X79177294Y-82145694D01*
X79000816Y-82214145D01*
X78814410Y-82247014D01*
X78625162Y-82243049D01*
X78440293Y-82202404D01*
X78266836Y-82126622D01*
X78111408Y-82018597D01*
X77979919Y-81882436D01*
X77877381Y-81723328D01*
X77807698Y-81547330D01*
X77773529Y-81361158D01*
X77776171Y-81171891D01*
X77815527Y-80986739D01*
X77890093Y-80812761D01*
X77997035Y-80656578D01*
X78132273Y-80524142D01*
X78290663Y-80420496D01*
X78466166Y-80349587D01*
X78652096Y-80314120D01*
X78841383Y-80315441D01*
X78841383Y-80315441D01*
G37*
G36*
X114401383Y-80315441D02*
X114586795Y-80353501D01*
X114761297Y-80426855D01*
X114918221Y-80532702D01*
X115051598Y-80667012D01*
X115156345Y-80824671D01*
X115228477Y-80999674D01*
X115265174Y-81185008D01*
X115265174Y-81185018D01*
X115265241Y-81185357D01*
X115262222Y-81401557D01*
X115262146Y-81401891D01*
X115262146Y-81401904D01*
X115220288Y-81586142D01*
X115143300Y-81759059D01*
X115034188Y-81913735D01*
X114897113Y-82044270D01*
X114737294Y-82145694D01*
X114560816Y-82214145D01*
X114374410Y-82247014D01*
X114185162Y-82243049D01*
X114000293Y-82202404D01*
X113826836Y-82126622D01*
X113671408Y-82018597D01*
X113539919Y-81882436D01*
X113437381Y-81723328D01*
X113367698Y-81547330D01*
X113333529Y-81361158D01*
X113336171Y-81171891D01*
X113375527Y-80986739D01*
X113450093Y-80812761D01*
X113557035Y-80656578D01*
X113692273Y-80524142D01*
X113850663Y-80420496D01*
X114026166Y-80349587D01*
X114212096Y-80314120D01*
X114401383Y-80315441D01*
X114401383Y-80315441D01*
G37*
G36*
X111861383Y-80315441D02*
X112046795Y-80353501D01*
X112221297Y-80426855D01*
X112378221Y-80532702D01*
X112511598Y-80667012D01*
X112616345Y-80824671D01*
X112688477Y-80999674D01*
X112725174Y-81185008D01*
X112725174Y-81185018D01*
X112725241Y-81185357D01*
X112722222Y-81401557D01*
X112722146Y-81401891D01*
X112722146Y-81401904D01*
X112680288Y-81586142D01*
X112603300Y-81759059D01*
X112494188Y-81913735D01*
X112357113Y-82044270D01*
X112197294Y-82145694D01*
X112020816Y-82214145D01*
X111834410Y-82247014D01*
X111645162Y-82243049D01*
X111460293Y-82202404D01*
X111286836Y-82126622D01*
X111131408Y-82018597D01*
X110999919Y-81882436D01*
X110897381Y-81723328D01*
X110827698Y-81547330D01*
X110793529Y-81361158D01*
X110796171Y-81171891D01*
X110835527Y-80986739D01*
X110910093Y-80812761D01*
X111017035Y-80656578D01*
X111152273Y-80524142D01*
X111310663Y-80420496D01*
X111486166Y-80349587D01*
X111672096Y-80314120D01*
X111861383Y-80315441D01*
X111861383Y-80315441D01*
G37*
G36*
X76301383Y-80315441D02*
X76486795Y-80353501D01*
X76661297Y-80426855D01*
X76818221Y-80532702D01*
X76951598Y-80667012D01*
X77056345Y-80824671D01*
X77128477Y-80999674D01*
X77165174Y-81185008D01*
X77165174Y-81185018D01*
X77165241Y-81185357D01*
X77162222Y-81401557D01*
X77162146Y-81401891D01*
X77162146Y-81401904D01*
X77120288Y-81586142D01*
X77043300Y-81759059D01*
X76934188Y-81913735D01*
X76797113Y-82044270D01*
X76637294Y-82145694D01*
X76460816Y-82214145D01*
X76274410Y-82247014D01*
X76085162Y-82243049D01*
X75900293Y-82202404D01*
X75726836Y-82126622D01*
X75571408Y-82018597D01*
X75439919Y-81882436D01*
X75337381Y-81723328D01*
X75267698Y-81547330D01*
X75233529Y-81361158D01*
X75236171Y-81171891D01*
X75275527Y-80986739D01*
X75350093Y-80812761D01*
X75457035Y-80656578D01*
X75592273Y-80524142D01*
X75750663Y-80420496D01*
X75926166Y-80349587D01*
X76112096Y-80314120D01*
X76301383Y-80315441D01*
X76301383Y-80315441D01*
G37*
G36*
X103515421Y-80403034D02*
X103522698Y-80403085D01*
X103692792Y-80422165D01*
X103855940Y-80473918D01*
X104005929Y-80556375D01*
X104137046Y-80666395D01*
X104244295Y-80799787D01*
X104323593Y-80951470D01*
X104371919Y-81115667D01*
X104371922Y-81115703D01*
X104371925Y-81115712D01*
X104387433Y-81286120D01*
X104369547Y-81456298D01*
X104369544Y-81456308D01*
X104369540Y-81456345D01*
X104318927Y-81619851D01*
X104237519Y-81770412D01*
X104128417Y-81902294D01*
X103995777Y-82010472D01*
X103844652Y-82090827D01*
X103680797Y-82140298D01*
X103510453Y-82157000D01*
X102999510Y-82157000D01*
X102994579Y-82156966D01*
X102987302Y-82156915D01*
X102817208Y-82137835D01*
X102654060Y-82086082D01*
X102504071Y-82003625D01*
X102372954Y-81893605D01*
X102265705Y-81760213D01*
X102186407Y-81608530D01*
X102138081Y-81444333D01*
X102138078Y-81444297D01*
X102138075Y-81444288D01*
X102122567Y-81273880D01*
X102140453Y-81103702D01*
X102140456Y-81103692D01*
X102140460Y-81103655D01*
X102191073Y-80940149D01*
X102272481Y-80789588D01*
X102381583Y-80657706D01*
X102514223Y-80549528D01*
X102665348Y-80469173D01*
X102829203Y-80419702D01*
X102999547Y-80403000D01*
X103510490Y-80403000D01*
X103515421Y-80403034D01*
X103515421Y-80403034D01*
G37*
G36*
X106555421Y-80403034D02*
X106562698Y-80403085D01*
X106732792Y-80422165D01*
X106895940Y-80473918D01*
X107045929Y-80556375D01*
X107177046Y-80666395D01*
X107284295Y-80799787D01*
X107363593Y-80951470D01*
X107411919Y-81115667D01*
X107411922Y-81115703D01*
X107411925Y-81115712D01*
X107427433Y-81286120D01*
X107409547Y-81456298D01*
X107409544Y-81456308D01*
X107409540Y-81456345D01*
X107358927Y-81619851D01*
X107277519Y-81770412D01*
X107168417Y-81902294D01*
X107035777Y-82010472D01*
X106884652Y-82090827D01*
X106720797Y-82140298D01*
X106550453Y-82157000D01*
X106039510Y-82157000D01*
X106034579Y-82156966D01*
X106027302Y-82156915D01*
X105857208Y-82137835D01*
X105694060Y-82086082D01*
X105544071Y-82003625D01*
X105412954Y-81893605D01*
X105305705Y-81760213D01*
X105226407Y-81608530D01*
X105178081Y-81444333D01*
X105178078Y-81444297D01*
X105178075Y-81444288D01*
X105162567Y-81273880D01*
X105180453Y-81103702D01*
X105180456Y-81103692D01*
X105180460Y-81103655D01*
X105231073Y-80940149D01*
X105312481Y-80789588D01*
X105421583Y-80657706D01*
X105554223Y-80549528D01*
X105705348Y-80469173D01*
X105869203Y-80419702D01*
X106039547Y-80403000D01*
X106550490Y-80403000D01*
X106555421Y-80403034D01*
X106555421Y-80403034D01*
G37*
G36*
X78841383Y-77775441D02*
X79026795Y-77813501D01*
X79201297Y-77886855D01*
X79358221Y-77992702D01*
X79491598Y-78127012D01*
X79596345Y-78284671D01*
X79668477Y-78459674D01*
X79705174Y-78645008D01*
X79705174Y-78645018D01*
X79705241Y-78645357D01*
X79702222Y-78861557D01*
X79702146Y-78861891D01*
X79702146Y-78861904D01*
X79660288Y-79046142D01*
X79583300Y-79219059D01*
X79474188Y-79373735D01*
X79337113Y-79504270D01*
X79177294Y-79605694D01*
X79000816Y-79674145D01*
X78814410Y-79707014D01*
X78625162Y-79703049D01*
X78440293Y-79662404D01*
X78266836Y-79586622D01*
X78111408Y-79478597D01*
X77979919Y-79342436D01*
X77877381Y-79183328D01*
X77807698Y-79007330D01*
X77773529Y-78821158D01*
X77776171Y-78631891D01*
X77815527Y-78446739D01*
X77890093Y-78272761D01*
X77997035Y-78116578D01*
X78132273Y-77984142D01*
X78290663Y-77880496D01*
X78466166Y-77809587D01*
X78652096Y-77774120D01*
X78841383Y-77775441D01*
X78841383Y-77775441D01*
G37*
G36*
X76301383Y-77775441D02*
X76486795Y-77813501D01*
X76661297Y-77886855D01*
X76818221Y-77992702D01*
X76951598Y-78127012D01*
X77056345Y-78284671D01*
X77128477Y-78459674D01*
X77165174Y-78645008D01*
X77165174Y-78645018D01*
X77165241Y-78645357D01*
X77162222Y-78861557D01*
X77162146Y-78861891D01*
X77162146Y-78861904D01*
X77120288Y-79046142D01*
X77043300Y-79219059D01*
X76934188Y-79373735D01*
X76797113Y-79504270D01*
X76637294Y-79605694D01*
X76460816Y-79674145D01*
X76274410Y-79707014D01*
X76085162Y-79703049D01*
X75900293Y-79662404D01*
X75726836Y-79586622D01*
X75571408Y-79478597D01*
X75439919Y-79342436D01*
X75337381Y-79183328D01*
X75267698Y-79007330D01*
X75233529Y-78821158D01*
X75236171Y-78631891D01*
X75275527Y-78446739D01*
X75350093Y-78272761D01*
X75457035Y-78116578D01*
X75592273Y-77984142D01*
X75750663Y-77880496D01*
X75926166Y-77809587D01*
X76112096Y-77774120D01*
X76301383Y-77775441D01*
X76301383Y-77775441D01*
G37*
G36*
X111861383Y-77775441D02*
X112046795Y-77813501D01*
X112221297Y-77886855D01*
X112378221Y-77992702D01*
X112511598Y-78127012D01*
X112616345Y-78284671D01*
X112688477Y-78459674D01*
X112725174Y-78645008D01*
X112725174Y-78645018D01*
X112725241Y-78645357D01*
X112722222Y-78861557D01*
X112722146Y-78861891D01*
X112722146Y-78861904D01*
X112680288Y-79046142D01*
X112603300Y-79219059D01*
X112494188Y-79373735D01*
X112357113Y-79504270D01*
X112197294Y-79605694D01*
X112020816Y-79674145D01*
X111834410Y-79707014D01*
X111645162Y-79703049D01*
X111460293Y-79662404D01*
X111286836Y-79586622D01*
X111131408Y-79478597D01*
X110999919Y-79342436D01*
X110897381Y-79183328D01*
X110827698Y-79007330D01*
X110793529Y-78821158D01*
X110796171Y-78631891D01*
X110835527Y-78446739D01*
X110910093Y-78272761D01*
X111017035Y-78116578D01*
X111152273Y-77984142D01*
X111310663Y-77880496D01*
X111486166Y-77809587D01*
X111672096Y-77774120D01*
X111861383Y-77775441D01*
X111861383Y-77775441D01*
G37*
G36*
X114401383Y-77775441D02*
X114586795Y-77813501D01*
X114761297Y-77886855D01*
X114918221Y-77992702D01*
X115051598Y-78127012D01*
X115156345Y-78284671D01*
X115228477Y-78459674D01*
X115265174Y-78645008D01*
X115265174Y-78645018D01*
X115265241Y-78645357D01*
X115262222Y-78861557D01*
X115262146Y-78861891D01*
X115262146Y-78861904D01*
X115220288Y-79046142D01*
X115143300Y-79219059D01*
X115034188Y-79373735D01*
X114897113Y-79504270D01*
X114737294Y-79605694D01*
X114560816Y-79674145D01*
X114374410Y-79707014D01*
X114185162Y-79703049D01*
X114000293Y-79662404D01*
X113826836Y-79586622D01*
X113671408Y-79478597D01*
X113539919Y-79342436D01*
X113437381Y-79183328D01*
X113367698Y-79007330D01*
X113333529Y-78821158D01*
X113336171Y-78631891D01*
X113375527Y-78446739D01*
X113450093Y-78272761D01*
X113557035Y-78116578D01*
X113692273Y-77984142D01*
X113850663Y-77880496D01*
X114026166Y-77809587D01*
X114212096Y-77774120D01*
X114401383Y-77775441D01*
X114401383Y-77775441D01*
G37*
G36*
X103515421Y-77863034D02*
X103522698Y-77863085D01*
X103692792Y-77882165D01*
X103855940Y-77933918D01*
X104005929Y-78016375D01*
X104137046Y-78126395D01*
X104244295Y-78259787D01*
X104323593Y-78411470D01*
X104371919Y-78575667D01*
X104371922Y-78575703D01*
X104371925Y-78575712D01*
X104387433Y-78746120D01*
X104369547Y-78916298D01*
X104369544Y-78916308D01*
X104369540Y-78916345D01*
X104318927Y-79079851D01*
X104237519Y-79230412D01*
X104128417Y-79362294D01*
X103995777Y-79470472D01*
X103844652Y-79550827D01*
X103680797Y-79600298D01*
X103510453Y-79617000D01*
X102999510Y-79617000D01*
X102994579Y-79616966D01*
X102987302Y-79616915D01*
X102817208Y-79597835D01*
X102654060Y-79546082D01*
X102504071Y-79463625D01*
X102372954Y-79353605D01*
X102265705Y-79220213D01*
X102186407Y-79068530D01*
X102138081Y-78904333D01*
X102138078Y-78904297D01*
X102138075Y-78904288D01*
X102122567Y-78733880D01*
X102140453Y-78563702D01*
X102140456Y-78563692D01*
X102140460Y-78563655D01*
X102191073Y-78400149D01*
X102272481Y-78249588D01*
X102381583Y-78117706D01*
X102514223Y-78009528D01*
X102665348Y-77929173D01*
X102829203Y-77879702D01*
X102999547Y-77863000D01*
X103510490Y-77863000D01*
X103515421Y-77863034D01*
X103515421Y-77863034D01*
G37*
G36*
X106555421Y-77863034D02*
X106562698Y-77863085D01*
X106732792Y-77882165D01*
X106895940Y-77933918D01*
X107045929Y-78016375D01*
X107177046Y-78126395D01*
X107284295Y-78259787D01*
X107363593Y-78411470D01*
X107411919Y-78575667D01*
X107411922Y-78575703D01*
X107411925Y-78575712D01*
X107427433Y-78746120D01*
X107409547Y-78916298D01*
X107409544Y-78916308D01*
X107409540Y-78916345D01*
X107358927Y-79079851D01*
X107277519Y-79230412D01*
X107168417Y-79362294D01*
X107035777Y-79470472D01*
X106884652Y-79550827D01*
X106720797Y-79600298D01*
X106550453Y-79617000D01*
X106039510Y-79617000D01*
X106034579Y-79616966D01*
X106027302Y-79616915D01*
X105857208Y-79597835D01*
X105694060Y-79546082D01*
X105544071Y-79463625D01*
X105412954Y-79353605D01*
X105305705Y-79220213D01*
X105226407Y-79068530D01*
X105178081Y-78904333D01*
X105178078Y-78904297D01*
X105178075Y-78904288D01*
X105162567Y-78733880D01*
X105180453Y-78563702D01*
X105180456Y-78563692D01*
X105180460Y-78563655D01*
X105231073Y-78400149D01*
X105312481Y-78249588D01*
X105421583Y-78117706D01*
X105554223Y-78009528D01*
X105705348Y-77929173D01*
X105869203Y-77879702D01*
X106039547Y-77863000D01*
X106550490Y-77863000D01*
X106555421Y-77863034D01*
X106555421Y-77863034D01*
G37*
G36*
X76301383Y-75235441D02*
X76486795Y-75273501D01*
X76661297Y-75346855D01*
X76818221Y-75452702D01*
X76951598Y-75587012D01*
X77056345Y-75744671D01*
X77128477Y-75919674D01*
X77165174Y-76105008D01*
X77165174Y-76105018D01*
X77165241Y-76105357D01*
X77162222Y-76321557D01*
X77162146Y-76321891D01*
X77162146Y-76321904D01*
X77120288Y-76506142D01*
X77043300Y-76679059D01*
X76934188Y-76833735D01*
X76797113Y-76964270D01*
X76637294Y-77065694D01*
X76460816Y-77134145D01*
X76274410Y-77167014D01*
X76085162Y-77163049D01*
X75900293Y-77122404D01*
X75726836Y-77046622D01*
X75571408Y-76938597D01*
X75439919Y-76802436D01*
X75337381Y-76643328D01*
X75267698Y-76467330D01*
X75233529Y-76281158D01*
X75236171Y-76091891D01*
X75275527Y-75906739D01*
X75350093Y-75732761D01*
X75457035Y-75576578D01*
X75592273Y-75444142D01*
X75750663Y-75340496D01*
X75926166Y-75269587D01*
X76112096Y-75234120D01*
X76301383Y-75235441D01*
X76301383Y-75235441D01*
G37*
G36*
X114401383Y-75235441D02*
X114586795Y-75273501D01*
X114761297Y-75346855D01*
X114918221Y-75452702D01*
X115051598Y-75587012D01*
X115156345Y-75744671D01*
X115228477Y-75919674D01*
X115265174Y-76105008D01*
X115265174Y-76105018D01*
X115265241Y-76105357D01*
X115262222Y-76321557D01*
X115262146Y-76321891D01*
X115262146Y-76321904D01*
X115220288Y-76506142D01*
X115143300Y-76679059D01*
X115034188Y-76833735D01*
X114897113Y-76964270D01*
X114737294Y-77065694D01*
X114560816Y-77134145D01*
X114374410Y-77167014D01*
X114185162Y-77163049D01*
X114000293Y-77122404D01*
X113826836Y-77046622D01*
X113671408Y-76938597D01*
X113539919Y-76802436D01*
X113437381Y-76643328D01*
X113367698Y-76467330D01*
X113333529Y-76281158D01*
X113336171Y-76091891D01*
X113375527Y-75906739D01*
X113450093Y-75732761D01*
X113557035Y-75576578D01*
X113692273Y-75444142D01*
X113850663Y-75340496D01*
X114026166Y-75269587D01*
X114212096Y-75234120D01*
X114401383Y-75235441D01*
X114401383Y-75235441D01*
G37*
G36*
X78841383Y-75235441D02*
X79026795Y-75273501D01*
X79201297Y-75346855D01*
X79358221Y-75452702D01*
X79491598Y-75587012D01*
X79596345Y-75744671D01*
X79668477Y-75919674D01*
X79705174Y-76105008D01*
X79705174Y-76105018D01*
X79705241Y-76105357D01*
X79702222Y-76321557D01*
X79702146Y-76321891D01*
X79702146Y-76321904D01*
X79660288Y-76506142D01*
X79583300Y-76679059D01*
X79474188Y-76833735D01*
X79337113Y-76964270D01*
X79177294Y-77065694D01*
X79000816Y-77134145D01*
X78814410Y-77167014D01*
X78625162Y-77163049D01*
X78440293Y-77122404D01*
X78266836Y-77046622D01*
X78111408Y-76938597D01*
X77979919Y-76802436D01*
X77877381Y-76643328D01*
X77807698Y-76467330D01*
X77773529Y-76281158D01*
X77776171Y-76091891D01*
X77815527Y-75906739D01*
X77890093Y-75732761D01*
X77997035Y-75576578D01*
X78132273Y-75444142D01*
X78290663Y-75340496D01*
X78466166Y-75269587D01*
X78652096Y-75234120D01*
X78841383Y-75235441D01*
X78841383Y-75235441D01*
G37*
G36*
X111861383Y-75235441D02*
X112046795Y-75273501D01*
X112221297Y-75346855D01*
X112378221Y-75452702D01*
X112511598Y-75587012D01*
X112616345Y-75744671D01*
X112688477Y-75919674D01*
X112725174Y-76105008D01*
X112725174Y-76105018D01*
X112725241Y-76105357D01*
X112722222Y-76321557D01*
X112722146Y-76321891D01*
X112722146Y-76321904D01*
X112680288Y-76506142D01*
X112603300Y-76679059D01*
X112494188Y-76833735D01*
X112357113Y-76964270D01*
X112197294Y-77065694D01*
X112020816Y-77134145D01*
X111834410Y-77167014D01*
X111645162Y-77163049D01*
X111460293Y-77122404D01*
X111286836Y-77046622D01*
X111131408Y-76938597D01*
X110999919Y-76802436D01*
X110897381Y-76643328D01*
X110827698Y-76467330D01*
X110793529Y-76281158D01*
X110796171Y-76091891D01*
X110835527Y-75906739D01*
X110910093Y-75732761D01*
X111017035Y-75576578D01*
X111152273Y-75444142D01*
X111310663Y-75340496D01*
X111486166Y-75269587D01*
X111672096Y-75234120D01*
X111861383Y-75235441D01*
X111861383Y-75235441D01*
G37*
G36*
X106555421Y-75323034D02*
X106562698Y-75323085D01*
X106732792Y-75342165D01*
X106895940Y-75393918D01*
X107045929Y-75476375D01*
X107177046Y-75586395D01*
X107284295Y-75719787D01*
X107363593Y-75871470D01*
X107411919Y-76035667D01*
X107411922Y-76035703D01*
X107411925Y-76035712D01*
X107427433Y-76206120D01*
X107409547Y-76376298D01*
X107409544Y-76376308D01*
X107409540Y-76376345D01*
X107358927Y-76539851D01*
X107277519Y-76690412D01*
X107168417Y-76822294D01*
X107035777Y-76930472D01*
X106884652Y-77010827D01*
X106720797Y-77060298D01*
X106550453Y-77077000D01*
X106039510Y-77077000D01*
X106034579Y-77076966D01*
X106027302Y-77076915D01*
X105857208Y-77057835D01*
X105694060Y-77006082D01*
X105544071Y-76923625D01*
X105412954Y-76813605D01*
X105305705Y-76680213D01*
X105226407Y-76528530D01*
X105178081Y-76364333D01*
X105178078Y-76364297D01*
X105178075Y-76364288D01*
X105162567Y-76193880D01*
X105180453Y-76023702D01*
X105180456Y-76023692D01*
X105180460Y-76023655D01*
X105231073Y-75860149D01*
X105312481Y-75709588D01*
X105421583Y-75577706D01*
X105554223Y-75469528D01*
X105705348Y-75389173D01*
X105869203Y-75339702D01*
X106039547Y-75323000D01*
X106550490Y-75323000D01*
X106555421Y-75323034D01*
X106555421Y-75323034D01*
G37*
G36*
X103515421Y-75323034D02*
X103522698Y-75323085D01*
X103692792Y-75342165D01*
X103855940Y-75393918D01*
X104005929Y-75476375D01*
X104137046Y-75586395D01*
X104244295Y-75719787D01*
X104323593Y-75871470D01*
X104371919Y-76035667D01*
X104371922Y-76035703D01*
X104371925Y-76035712D01*
X104387433Y-76206120D01*
X104369547Y-76376298D01*
X104369544Y-76376308D01*
X104369540Y-76376345D01*
X104318927Y-76539851D01*
X104237519Y-76690412D01*
X104128417Y-76822294D01*
X103995777Y-76930472D01*
X103844652Y-77010827D01*
X103680797Y-77060298D01*
X103510453Y-77077000D01*
X102999510Y-77077000D01*
X102994579Y-77076966D01*
X102987302Y-77076915D01*
X102817208Y-77057835D01*
X102654060Y-77006082D01*
X102504071Y-76923625D01*
X102372954Y-76813605D01*
X102265705Y-76680213D01*
X102186407Y-76528530D01*
X102138081Y-76364333D01*
X102138078Y-76364297D01*
X102138075Y-76364288D01*
X102122567Y-76193880D01*
X102140453Y-76023702D01*
X102140456Y-76023692D01*
X102140460Y-76023655D01*
X102191073Y-75860149D01*
X102272481Y-75709588D01*
X102381583Y-75577706D01*
X102514223Y-75469528D01*
X102665348Y-75389173D01*
X102829203Y-75339702D01*
X102999547Y-75323000D01*
X103510490Y-75323000D01*
X103515421Y-75323034D01*
X103515421Y-75323034D01*
G37*
G36*
X111861383Y-72695441D02*
X112046795Y-72733501D01*
X112221297Y-72806855D01*
X112378221Y-72912702D01*
X112511598Y-73047012D01*
X112616345Y-73204671D01*
X112688477Y-73379674D01*
X112725174Y-73565008D01*
X112725174Y-73565018D01*
X112725241Y-73565357D01*
X112722222Y-73781557D01*
X112722146Y-73781891D01*
X112722146Y-73781904D01*
X112680288Y-73966142D01*
X112603300Y-74139059D01*
X112494188Y-74293735D01*
X112357113Y-74424270D01*
X112197294Y-74525694D01*
X112020816Y-74594145D01*
X111834410Y-74627014D01*
X111645162Y-74623049D01*
X111460293Y-74582404D01*
X111286836Y-74506622D01*
X111131408Y-74398597D01*
X110999919Y-74262436D01*
X110897381Y-74103328D01*
X110827698Y-73927330D01*
X110793529Y-73741158D01*
X110796171Y-73551891D01*
X110835527Y-73366739D01*
X110910093Y-73192761D01*
X111017035Y-73036578D01*
X111152273Y-72904142D01*
X111310663Y-72800496D01*
X111486166Y-72729587D01*
X111672096Y-72694120D01*
X111861383Y-72695441D01*
X111861383Y-72695441D01*
G37*
G36*
X114401383Y-72695441D02*
X114586795Y-72733501D01*
X114761297Y-72806855D01*
X114918221Y-72912702D01*
X115051598Y-73047012D01*
X115156345Y-73204671D01*
X115228477Y-73379674D01*
X115265174Y-73565008D01*
X115265174Y-73565018D01*
X115265241Y-73565357D01*
X115262222Y-73781557D01*
X115262146Y-73781891D01*
X115262146Y-73781904D01*
X115220288Y-73966142D01*
X115143300Y-74139059D01*
X115034188Y-74293735D01*
X114897113Y-74424270D01*
X114737294Y-74525694D01*
X114560816Y-74594145D01*
X114374410Y-74627014D01*
X114185162Y-74623049D01*
X114000293Y-74582404D01*
X113826836Y-74506622D01*
X113671408Y-74398597D01*
X113539919Y-74262436D01*
X113437381Y-74103328D01*
X113367698Y-73927330D01*
X113333529Y-73741158D01*
X113336171Y-73551891D01*
X113375527Y-73366739D01*
X113450093Y-73192761D01*
X113557035Y-73036578D01*
X113692273Y-72904142D01*
X113850663Y-72800496D01*
X114026166Y-72729587D01*
X114212096Y-72694120D01*
X114401383Y-72695441D01*
X114401383Y-72695441D01*
G37*
G36*
X76301383Y-72695441D02*
X76486795Y-72733501D01*
X76661297Y-72806855D01*
X76818221Y-72912702D01*
X76951598Y-73047012D01*
X77056345Y-73204671D01*
X77128477Y-73379674D01*
X77165174Y-73565008D01*
X77165174Y-73565018D01*
X77165241Y-73565357D01*
X77162222Y-73781557D01*
X77162146Y-73781891D01*
X77162146Y-73781904D01*
X77120288Y-73966142D01*
X77043300Y-74139059D01*
X76934188Y-74293735D01*
X76797113Y-74424270D01*
X76637294Y-74525694D01*
X76460816Y-74594145D01*
X76274410Y-74627014D01*
X76085162Y-74623049D01*
X75900293Y-74582404D01*
X75726836Y-74506622D01*
X75571408Y-74398597D01*
X75439919Y-74262436D01*
X75337381Y-74103328D01*
X75267698Y-73927330D01*
X75233529Y-73741158D01*
X75236171Y-73551891D01*
X75275527Y-73366739D01*
X75350093Y-73192761D01*
X75457035Y-73036578D01*
X75592273Y-72904142D01*
X75750663Y-72800496D01*
X75926166Y-72729587D01*
X76112096Y-72694120D01*
X76301383Y-72695441D01*
X76301383Y-72695441D01*
G37*
G36*
X78841383Y-72695441D02*
X79026795Y-72733501D01*
X79201297Y-72806855D01*
X79358221Y-72912702D01*
X79491598Y-73047012D01*
X79596345Y-73204671D01*
X79668477Y-73379674D01*
X79705174Y-73565008D01*
X79705174Y-73565018D01*
X79705241Y-73565357D01*
X79702222Y-73781557D01*
X79702146Y-73781891D01*
X79702146Y-73781904D01*
X79660288Y-73966142D01*
X79583300Y-74139059D01*
X79474188Y-74293735D01*
X79337113Y-74424270D01*
X79177294Y-74525694D01*
X79000816Y-74594145D01*
X78814410Y-74627014D01*
X78625162Y-74623049D01*
X78440293Y-74582404D01*
X78266836Y-74506622D01*
X78111408Y-74398597D01*
X77979919Y-74262436D01*
X77877381Y-74103328D01*
X77807698Y-73927330D01*
X77773529Y-73741158D01*
X77776171Y-73551891D01*
X77815527Y-73366739D01*
X77890093Y-73192761D01*
X77997035Y-73036578D01*
X78132273Y-72904142D01*
X78290663Y-72800496D01*
X78466166Y-72729587D01*
X78652096Y-72694120D01*
X78841383Y-72695441D01*
X78841383Y-72695441D01*
G37*
G36*
X106555421Y-72783034D02*
X106562698Y-72783085D01*
X106732792Y-72802165D01*
X106895940Y-72853918D01*
X107045929Y-72936375D01*
X107177046Y-73046395D01*
X107284295Y-73179787D01*
X107363593Y-73331470D01*
X107411919Y-73495667D01*
X107411922Y-73495703D01*
X107411925Y-73495712D01*
X107427433Y-73666120D01*
X107409547Y-73836298D01*
X107409544Y-73836308D01*
X107409540Y-73836345D01*
X107358927Y-73999851D01*
X107277519Y-74150412D01*
X107168417Y-74282294D01*
X107035777Y-74390472D01*
X106884652Y-74470827D01*
X106720797Y-74520298D01*
X106550453Y-74537000D01*
X106039510Y-74537000D01*
X106034579Y-74536966D01*
X106027302Y-74536915D01*
X105857208Y-74517835D01*
X105694060Y-74466082D01*
X105544071Y-74383625D01*
X105412954Y-74273605D01*
X105305705Y-74140213D01*
X105226407Y-73988530D01*
X105178081Y-73824333D01*
X105178078Y-73824297D01*
X105178075Y-73824288D01*
X105162567Y-73653880D01*
X105180453Y-73483702D01*
X105180456Y-73483692D01*
X105180460Y-73483655D01*
X105231073Y-73320149D01*
X105312481Y-73169588D01*
X105421583Y-73037706D01*
X105554223Y-72929528D01*
X105705348Y-72849173D01*
X105869203Y-72799702D01*
X106039547Y-72783000D01*
X106550490Y-72783000D01*
X106555421Y-72783034D01*
X106555421Y-72783034D01*
G37*
G36*
X103515421Y-72783034D02*
X103522698Y-72783085D01*
X103692792Y-72802165D01*
X103855940Y-72853918D01*
X104005929Y-72936375D01*
X104137046Y-73046395D01*
X104244295Y-73179787D01*
X104323593Y-73331470D01*
X104371919Y-73495667D01*
X104371922Y-73495703D01*
X104371925Y-73495712D01*
X104387433Y-73666120D01*
X104369547Y-73836298D01*
X104369544Y-73836308D01*
X104369540Y-73836345D01*
X104318927Y-73999851D01*
X104237519Y-74150412D01*
X104128417Y-74282294D01*
X103995777Y-74390472D01*
X103844652Y-74470827D01*
X103680797Y-74520298D01*
X103510453Y-74537000D01*
X102999510Y-74537000D01*
X102994579Y-74536966D01*
X102987302Y-74536915D01*
X102817208Y-74517835D01*
X102654060Y-74466082D01*
X102504071Y-74383625D01*
X102372954Y-74273605D01*
X102265705Y-74140213D01*
X102186407Y-73988530D01*
X102138081Y-73824333D01*
X102138078Y-73824297D01*
X102138075Y-73824288D01*
X102122567Y-73653880D01*
X102140453Y-73483702D01*
X102140456Y-73483692D01*
X102140460Y-73483655D01*
X102191073Y-73320149D01*
X102272481Y-73169588D01*
X102381583Y-73037706D01*
X102514223Y-72929528D01*
X102665348Y-72849173D01*
X102829203Y-72799702D01*
X102999547Y-72783000D01*
X103510490Y-72783000D01*
X103515421Y-72783034D01*
X103515421Y-72783034D01*
G37*
G36*
X114401383Y-70155441D02*
X114586795Y-70193501D01*
X114761297Y-70266855D01*
X114918221Y-70372702D01*
X115051598Y-70507012D01*
X115156345Y-70664671D01*
X115228477Y-70839674D01*
X115265174Y-71025008D01*
X115265174Y-71025018D01*
X115265241Y-71025357D01*
X115262222Y-71241557D01*
X115262146Y-71241891D01*
X115262146Y-71241904D01*
X115220288Y-71426142D01*
X115143300Y-71599059D01*
X115034188Y-71753735D01*
X114897113Y-71884270D01*
X114737294Y-71985694D01*
X114560816Y-72054145D01*
X114374410Y-72087014D01*
X114185162Y-72083049D01*
X114000293Y-72042404D01*
X113826836Y-71966622D01*
X113671408Y-71858597D01*
X113539919Y-71722436D01*
X113437381Y-71563328D01*
X113367698Y-71387330D01*
X113333529Y-71201158D01*
X113336171Y-71011891D01*
X113375527Y-70826739D01*
X113450093Y-70652761D01*
X113557035Y-70496578D01*
X113692273Y-70364142D01*
X113850663Y-70260496D01*
X114026166Y-70189587D01*
X114212096Y-70154120D01*
X114401383Y-70155441D01*
X114401383Y-70155441D01*
G37*
G36*
X111861383Y-70155441D02*
X112046795Y-70193501D01*
X112221297Y-70266855D01*
X112378221Y-70372702D01*
X112511598Y-70507012D01*
X112616345Y-70664671D01*
X112688477Y-70839674D01*
X112725174Y-71025008D01*
X112725174Y-71025018D01*
X112725241Y-71025357D01*
X112722222Y-71241557D01*
X112722146Y-71241891D01*
X112722146Y-71241904D01*
X112680288Y-71426142D01*
X112603300Y-71599059D01*
X112494188Y-71753735D01*
X112357113Y-71884270D01*
X112197294Y-71985694D01*
X112020816Y-72054145D01*
X111834410Y-72087014D01*
X111645162Y-72083049D01*
X111460293Y-72042404D01*
X111286836Y-71966622D01*
X111131408Y-71858597D01*
X110999919Y-71722436D01*
X110897381Y-71563328D01*
X110827698Y-71387330D01*
X110793529Y-71201158D01*
X110796171Y-71011891D01*
X110835527Y-70826739D01*
X110910093Y-70652761D01*
X111017035Y-70496578D01*
X111152273Y-70364142D01*
X111310663Y-70260496D01*
X111486166Y-70189587D01*
X111672096Y-70154120D01*
X111861383Y-70155441D01*
X111861383Y-70155441D01*
G37*
G36*
X76301383Y-70155441D02*
X76486795Y-70193501D01*
X76661297Y-70266855D01*
X76818221Y-70372702D01*
X76951598Y-70507012D01*
X77056345Y-70664671D01*
X77128477Y-70839674D01*
X77165174Y-71025008D01*
X77165174Y-71025018D01*
X77165241Y-71025357D01*
X77162222Y-71241557D01*
X77162146Y-71241891D01*
X77162146Y-71241904D01*
X77120288Y-71426142D01*
X77043300Y-71599059D01*
X76934188Y-71753735D01*
X76797113Y-71884270D01*
X76637294Y-71985694D01*
X76460816Y-72054145D01*
X76274410Y-72087014D01*
X76085162Y-72083049D01*
X75900293Y-72042404D01*
X75726836Y-71966622D01*
X75571408Y-71858597D01*
X75439919Y-71722436D01*
X75337381Y-71563328D01*
X75267698Y-71387330D01*
X75233529Y-71201158D01*
X75236171Y-71011891D01*
X75275527Y-70826739D01*
X75350093Y-70652761D01*
X75457035Y-70496578D01*
X75592273Y-70364142D01*
X75750663Y-70260496D01*
X75926166Y-70189587D01*
X76112096Y-70154120D01*
X76301383Y-70155441D01*
X76301383Y-70155441D01*
G37*
G36*
X78841383Y-70155441D02*
X79026795Y-70193501D01*
X79201297Y-70266855D01*
X79358221Y-70372702D01*
X79491598Y-70507012D01*
X79596345Y-70664671D01*
X79668477Y-70839674D01*
X79705174Y-71025008D01*
X79705174Y-71025018D01*
X79705241Y-71025357D01*
X79702222Y-71241557D01*
X79702146Y-71241891D01*
X79702146Y-71241904D01*
X79660288Y-71426142D01*
X79583300Y-71599059D01*
X79474188Y-71753735D01*
X79337113Y-71884270D01*
X79177294Y-71985694D01*
X79000816Y-72054145D01*
X78814410Y-72087014D01*
X78625162Y-72083049D01*
X78440293Y-72042404D01*
X78266836Y-71966622D01*
X78111408Y-71858597D01*
X77979919Y-71722436D01*
X77877381Y-71563328D01*
X77807698Y-71387330D01*
X77773529Y-71201158D01*
X77776171Y-71011891D01*
X77815527Y-70826739D01*
X77890093Y-70652761D01*
X77997035Y-70496578D01*
X78132273Y-70364142D01*
X78290663Y-70260496D01*
X78466166Y-70189587D01*
X78652096Y-70154120D01*
X78841383Y-70155441D01*
X78841383Y-70155441D01*
G37*
G36*
X83935890Y-70249954D02*
X83935900Y-70249957D01*
X83935938Y-70249961D01*
X84043434Y-70283236D01*
X84142419Y-70336758D01*
X84229124Y-70408486D01*
X84300246Y-70495690D01*
X84353075Y-70595046D01*
X84385599Y-70702772D01*
X84396580Y-70814764D01*
X84396580Y-71425272D01*
X84396539Y-71431231D01*
X84396538Y-71431238D01*
X84396524Y-71433286D01*
X84383980Y-71545114D01*
X84349955Y-71652375D01*
X84295744Y-71750985D01*
X84223412Y-71837187D01*
X84135714Y-71907698D01*
X84035991Y-71959832D01*
X83928040Y-71991603D01*
X83928004Y-71991606D01*
X83927995Y-71991609D01*
X83815977Y-72001804D01*
X83704110Y-71990046D01*
X83704100Y-71990043D01*
X83704062Y-71990039D01*
X83596566Y-71956764D01*
X83497581Y-71903242D01*
X83410876Y-71831514D01*
X83339754Y-71744310D01*
X83286925Y-71644954D01*
X83254401Y-71537228D01*
X83243420Y-71425236D01*
X83243420Y-70814728D01*
X83243461Y-70808769D01*
X83243462Y-70808762D01*
X83243476Y-70806714D01*
X83256020Y-70694886D01*
X83290045Y-70587625D01*
X83344256Y-70489015D01*
X83416588Y-70402813D01*
X83504286Y-70332302D01*
X83604009Y-70280168D01*
X83711960Y-70248397D01*
X83711996Y-70248394D01*
X83712005Y-70248391D01*
X83824023Y-70238196D01*
X83935890Y-70249954D01*
X83935890Y-70249954D01*
G37*
G36*
X85205890Y-70249954D02*
X85205900Y-70249957D01*
X85205938Y-70249961D01*
X85313434Y-70283236D01*
X85412419Y-70336758D01*
X85499124Y-70408486D01*
X85570246Y-70495690D01*
X85623075Y-70595046D01*
X85655599Y-70702772D01*
X85666580Y-70814764D01*
X85666580Y-71425272D01*
X85666539Y-71431231D01*
X85666538Y-71431238D01*
X85666524Y-71433286D01*
X85653980Y-71545114D01*
X85619955Y-71652375D01*
X85565744Y-71750985D01*
X85493412Y-71837187D01*
X85405714Y-71907698D01*
X85305991Y-71959832D01*
X85198040Y-71991603D01*
X85198004Y-71991606D01*
X85197995Y-71991609D01*
X85085977Y-72001804D01*
X84974110Y-71990046D01*
X84974100Y-71990043D01*
X84974062Y-71990039D01*
X84866566Y-71956764D01*
X84767581Y-71903242D01*
X84680876Y-71831514D01*
X84609754Y-71744310D01*
X84556925Y-71644954D01*
X84524401Y-71537228D01*
X84513420Y-71425236D01*
X84513420Y-70814728D01*
X84513461Y-70808769D01*
X84513462Y-70808762D01*
X84513476Y-70806714D01*
X84526020Y-70694886D01*
X84560045Y-70587625D01*
X84614256Y-70489015D01*
X84686588Y-70402813D01*
X84774286Y-70332302D01*
X84874009Y-70280168D01*
X84981960Y-70248397D01*
X84981996Y-70248394D01*
X84982005Y-70248391D01*
X85094023Y-70238196D01*
X85205890Y-70249954D01*
X85205890Y-70249954D01*
G37*
G36*
X86475890Y-70249954D02*
X86475900Y-70249957D01*
X86475938Y-70249961D01*
X86583434Y-70283236D01*
X86682419Y-70336758D01*
X86769124Y-70408486D01*
X86840246Y-70495690D01*
X86893075Y-70595046D01*
X86925599Y-70702772D01*
X86936580Y-70814764D01*
X86936580Y-71425272D01*
X86936539Y-71431231D01*
X86936538Y-71431238D01*
X86936524Y-71433286D01*
X86923980Y-71545114D01*
X86889955Y-71652375D01*
X86835744Y-71750985D01*
X86763412Y-71837187D01*
X86675714Y-71907698D01*
X86575991Y-71959832D01*
X86468040Y-71991603D01*
X86468004Y-71991606D01*
X86467995Y-71991609D01*
X86355977Y-72001804D01*
X86244110Y-71990046D01*
X86244100Y-71990043D01*
X86244062Y-71990039D01*
X86136566Y-71956764D01*
X86037581Y-71903242D01*
X85950876Y-71831514D01*
X85879754Y-71744310D01*
X85826925Y-71644954D01*
X85794401Y-71537228D01*
X85783420Y-71425236D01*
X85783420Y-70814728D01*
X85783461Y-70808769D01*
X85783462Y-70808762D01*
X85783476Y-70806714D01*
X85796020Y-70694886D01*
X85830045Y-70587625D01*
X85884256Y-70489015D01*
X85956588Y-70402813D01*
X86044286Y-70332302D01*
X86144009Y-70280168D01*
X86251960Y-70248397D01*
X86251996Y-70248394D01*
X86252005Y-70248391D01*
X86364023Y-70238196D01*
X86475890Y-70249954D01*
X86475890Y-70249954D01*
G37*
G36*
X103515421Y-70243034D02*
X103522698Y-70243085D01*
X103692792Y-70262165D01*
X103855940Y-70313918D01*
X104005929Y-70396375D01*
X104137046Y-70506395D01*
X104244295Y-70639787D01*
X104323593Y-70791470D01*
X104371919Y-70955667D01*
X104371922Y-70955703D01*
X104371925Y-70955712D01*
X104387433Y-71126120D01*
X104369547Y-71296298D01*
X104369544Y-71296308D01*
X104369540Y-71296345D01*
X104318927Y-71459851D01*
X104237519Y-71610412D01*
X104128417Y-71742294D01*
X103995777Y-71850472D01*
X103844652Y-71930827D01*
X103680797Y-71980298D01*
X103510453Y-71997000D01*
X102999510Y-71997000D01*
X102994579Y-71996966D01*
X102987302Y-71996915D01*
X102817208Y-71977835D01*
X102654060Y-71926082D01*
X102504071Y-71843625D01*
X102372954Y-71733605D01*
X102265705Y-71600213D01*
X102186407Y-71448530D01*
X102138081Y-71284333D01*
X102138078Y-71284297D01*
X102138075Y-71284288D01*
X102122567Y-71113880D01*
X102140453Y-70943702D01*
X102140456Y-70943692D01*
X102140460Y-70943655D01*
X102191073Y-70780149D01*
X102272481Y-70629588D01*
X102381583Y-70497706D01*
X102514223Y-70389528D01*
X102665348Y-70309173D01*
X102829203Y-70259702D01*
X102999547Y-70243000D01*
X103510490Y-70243000D01*
X103515421Y-70243034D01*
X103515421Y-70243034D01*
G37*
G36*
X106555421Y-70243034D02*
X106562698Y-70243085D01*
X106732792Y-70262165D01*
X106895940Y-70313918D01*
X107045929Y-70396375D01*
X107177046Y-70506395D01*
X107284295Y-70639787D01*
X107363593Y-70791470D01*
X107411919Y-70955667D01*
X107411922Y-70955703D01*
X107411925Y-70955712D01*
X107427433Y-71126120D01*
X107409547Y-71296298D01*
X107409544Y-71296308D01*
X107409540Y-71296345D01*
X107358927Y-71459851D01*
X107277519Y-71610412D01*
X107168417Y-71742294D01*
X107035777Y-71850472D01*
X106884652Y-71930827D01*
X106720797Y-71980298D01*
X106550453Y-71997000D01*
X106039510Y-71997000D01*
X106034579Y-71996966D01*
X106027302Y-71996915D01*
X105857208Y-71977835D01*
X105694060Y-71926082D01*
X105544071Y-71843625D01*
X105412954Y-71733605D01*
X105305705Y-71600213D01*
X105226407Y-71448530D01*
X105178081Y-71284333D01*
X105178078Y-71284297D01*
X105178075Y-71284288D01*
X105162567Y-71113880D01*
X105180453Y-70943702D01*
X105180456Y-70943692D01*
X105180460Y-70943655D01*
X105231073Y-70780149D01*
X105312481Y-70629588D01*
X105421583Y-70497706D01*
X105554223Y-70389528D01*
X105705348Y-70309173D01*
X105869203Y-70259702D01*
X106039547Y-70243000D01*
X106550490Y-70243000D01*
X106555421Y-70243034D01*
X106555421Y-70243034D01*
G37*
G36*
X83077000Y-71962000D02*
X82023000Y-71962000D01*
X82023000Y-70808000D01*
X83077000Y-70808000D01*
X83077000Y-71962000D01*
X83077000Y-71962000D01*
G37*
G36*
X83077000Y-70162000D02*
X82023000Y-70162000D01*
X82023000Y-69008000D01*
X83077000Y-69008000D01*
X83077000Y-70162000D01*
X83077000Y-70162000D01*
G37*
G36*
X78841383Y-67615441D02*
X79026795Y-67653501D01*
X79201297Y-67726855D01*
X79358221Y-67832702D01*
X79491598Y-67967012D01*
X79596345Y-68124671D01*
X79668477Y-68299674D01*
X79705174Y-68485008D01*
X79705174Y-68485018D01*
X79705241Y-68485357D01*
X79702222Y-68701557D01*
X79702146Y-68701891D01*
X79702146Y-68701904D01*
X79660288Y-68886142D01*
X79583300Y-69059059D01*
X79474188Y-69213735D01*
X79337113Y-69344270D01*
X79177294Y-69445694D01*
X79000816Y-69514145D01*
X78814410Y-69547014D01*
X78625162Y-69543049D01*
X78440293Y-69502404D01*
X78266836Y-69426622D01*
X78111408Y-69318597D01*
X77979919Y-69182436D01*
X77877381Y-69023328D01*
X77807698Y-68847330D01*
X77773529Y-68661158D01*
X77776171Y-68471891D01*
X77815527Y-68286739D01*
X77890093Y-68112761D01*
X77997035Y-67956578D01*
X78132273Y-67824142D01*
X78290663Y-67720496D01*
X78466166Y-67649587D01*
X78652096Y-67614120D01*
X78841383Y-67615441D01*
X78841383Y-67615441D01*
G37*
G36*
X76301383Y-67615441D02*
X76486795Y-67653501D01*
X76661297Y-67726855D01*
X76818221Y-67832702D01*
X76951598Y-67967012D01*
X77056345Y-68124671D01*
X77128477Y-68299674D01*
X77165174Y-68485008D01*
X77165174Y-68485018D01*
X77165241Y-68485357D01*
X77162222Y-68701557D01*
X77162146Y-68701891D01*
X77162146Y-68701904D01*
X77120288Y-68886142D01*
X77043300Y-69059059D01*
X76934188Y-69213735D01*
X76797113Y-69344270D01*
X76637294Y-69445694D01*
X76460816Y-69514145D01*
X76274410Y-69547014D01*
X76085162Y-69543049D01*
X75900293Y-69502404D01*
X75726836Y-69426622D01*
X75571408Y-69318597D01*
X75439919Y-69182436D01*
X75337381Y-69023328D01*
X75267698Y-68847330D01*
X75233529Y-68661158D01*
X75236171Y-68471891D01*
X75275527Y-68286739D01*
X75350093Y-68112761D01*
X75457035Y-67956578D01*
X75592273Y-67824142D01*
X75750663Y-67720496D01*
X75926166Y-67649587D01*
X76112096Y-67614120D01*
X76301383Y-67615441D01*
X76301383Y-67615441D01*
G37*
G36*
X114401383Y-67615441D02*
X114586795Y-67653501D01*
X114761297Y-67726855D01*
X114918221Y-67832702D01*
X115051598Y-67967012D01*
X115156345Y-68124671D01*
X115228477Y-68299674D01*
X115265174Y-68485008D01*
X115265174Y-68485018D01*
X115265241Y-68485357D01*
X115262222Y-68701557D01*
X115262146Y-68701891D01*
X115262146Y-68701904D01*
X115220288Y-68886142D01*
X115143300Y-69059059D01*
X115034188Y-69213735D01*
X114897113Y-69344270D01*
X114737294Y-69445694D01*
X114560816Y-69514145D01*
X114374410Y-69547014D01*
X114185162Y-69543049D01*
X114000293Y-69502404D01*
X113826836Y-69426622D01*
X113671408Y-69318597D01*
X113539919Y-69182436D01*
X113437381Y-69023328D01*
X113367698Y-68847330D01*
X113333529Y-68661158D01*
X113336171Y-68471891D01*
X113375527Y-68286739D01*
X113450093Y-68112761D01*
X113557035Y-67956578D01*
X113692273Y-67824142D01*
X113850663Y-67720496D01*
X114026166Y-67649587D01*
X114212096Y-67614120D01*
X114401383Y-67615441D01*
X114401383Y-67615441D01*
G37*
G36*
X111861383Y-67615441D02*
X112046795Y-67653501D01*
X112221297Y-67726855D01*
X112378221Y-67832702D01*
X112511598Y-67967012D01*
X112616345Y-68124671D01*
X112688477Y-68299674D01*
X112725174Y-68485008D01*
X112725174Y-68485018D01*
X112725241Y-68485357D01*
X112722222Y-68701557D01*
X112722146Y-68701891D01*
X112722146Y-68701904D01*
X112680288Y-68886142D01*
X112603300Y-69059059D01*
X112494188Y-69213735D01*
X112357113Y-69344270D01*
X112197294Y-69445694D01*
X112020816Y-69514145D01*
X111834410Y-69547014D01*
X111645162Y-69543049D01*
X111460293Y-69502404D01*
X111286836Y-69426622D01*
X111131408Y-69318597D01*
X110999919Y-69182436D01*
X110897381Y-69023328D01*
X110827698Y-68847330D01*
X110793529Y-68661158D01*
X110796171Y-68471891D01*
X110835527Y-68286739D01*
X110910093Y-68112761D01*
X111017035Y-67956578D01*
X111152273Y-67824142D01*
X111310663Y-67720496D01*
X111486166Y-67649587D01*
X111672096Y-67614120D01*
X111861383Y-67615441D01*
X111861383Y-67615441D01*
G37*
G36*
X103515421Y-67703034D02*
X103522698Y-67703085D01*
X103692792Y-67722165D01*
X103855940Y-67773918D01*
X104005929Y-67856375D01*
X104137046Y-67966395D01*
X104244295Y-68099787D01*
X104323593Y-68251470D01*
X104371919Y-68415667D01*
X104371922Y-68415703D01*
X104371925Y-68415712D01*
X104387433Y-68586120D01*
X104369547Y-68756298D01*
X104369544Y-68756308D01*
X104369540Y-68756345D01*
X104318927Y-68919851D01*
X104237519Y-69070412D01*
X104128417Y-69202294D01*
X103995777Y-69310472D01*
X103844652Y-69390827D01*
X103680797Y-69440298D01*
X103510453Y-69457000D01*
X102999510Y-69457000D01*
X102994579Y-69456966D01*
X102987302Y-69456915D01*
X102817208Y-69437835D01*
X102654060Y-69386082D01*
X102504071Y-69303625D01*
X102372954Y-69193605D01*
X102265705Y-69060213D01*
X102186407Y-68908530D01*
X102138081Y-68744333D01*
X102138078Y-68744297D01*
X102138075Y-68744288D01*
X102122567Y-68573880D01*
X102140453Y-68403702D01*
X102140456Y-68403692D01*
X102140460Y-68403655D01*
X102191073Y-68240149D01*
X102272481Y-68089588D01*
X102381583Y-67957706D01*
X102514223Y-67849528D01*
X102665348Y-67769173D01*
X102829203Y-67719702D01*
X102999547Y-67703000D01*
X103510490Y-67703000D01*
X103515421Y-67703034D01*
X103515421Y-67703034D01*
G37*
G36*
X106555421Y-67703034D02*
X106562698Y-67703085D01*
X106732792Y-67722165D01*
X106895940Y-67773918D01*
X107045929Y-67856375D01*
X107177046Y-67966395D01*
X107284295Y-68099787D01*
X107363593Y-68251470D01*
X107411919Y-68415667D01*
X107411922Y-68415703D01*
X107411925Y-68415712D01*
X107427433Y-68586120D01*
X107409547Y-68756298D01*
X107409544Y-68756308D01*
X107409540Y-68756345D01*
X107358927Y-68919851D01*
X107277519Y-69070412D01*
X107168417Y-69202294D01*
X107035777Y-69310472D01*
X106884652Y-69390827D01*
X106720797Y-69440298D01*
X106550453Y-69457000D01*
X106039510Y-69457000D01*
X106034579Y-69456966D01*
X106027302Y-69456915D01*
X105857208Y-69437835D01*
X105694060Y-69386082D01*
X105544071Y-69303625D01*
X105412954Y-69193605D01*
X105305705Y-69060213D01*
X105226407Y-68908530D01*
X105178081Y-68744333D01*
X105178078Y-68744297D01*
X105178075Y-68744288D01*
X105162567Y-68573880D01*
X105180453Y-68403702D01*
X105180456Y-68403692D01*
X105180460Y-68403655D01*
X105231073Y-68240149D01*
X105312481Y-68089588D01*
X105421583Y-67957706D01*
X105554223Y-67849528D01*
X105705348Y-67769173D01*
X105869203Y-67719702D01*
X106039547Y-67703000D01*
X106550490Y-67703000D01*
X106555421Y-67703034D01*
X106555421Y-67703034D01*
G37*
G36*
X97997000Y-67837000D02*
X96843000Y-67837000D01*
X96843000Y-66783000D01*
X97997000Y-66783000D01*
X97997000Y-67837000D01*
X97997000Y-67837000D01*
G37*
G36*
X96197000Y-67837000D02*
X95043000Y-67837000D01*
X95043000Y-66783000D01*
X96197000Y-66783000D01*
X96197000Y-67837000D01*
X96197000Y-67837000D01*
G37*
G36*
X111861383Y-65075441D02*
X112046795Y-65113501D01*
X112221297Y-65186855D01*
X112378221Y-65292702D01*
X112511598Y-65427012D01*
X112616345Y-65584671D01*
X112688477Y-65759674D01*
X112725174Y-65945008D01*
X112725174Y-65945018D01*
X112725241Y-65945357D01*
X112722222Y-66161557D01*
X112722146Y-66161891D01*
X112722146Y-66161904D01*
X112680288Y-66346142D01*
X112603300Y-66519059D01*
X112494188Y-66673735D01*
X112357113Y-66804270D01*
X112197294Y-66905694D01*
X112020816Y-66974145D01*
X111834410Y-67007014D01*
X111645162Y-67003049D01*
X111460293Y-66962404D01*
X111286836Y-66886622D01*
X111131408Y-66778597D01*
X110999919Y-66642436D01*
X110897381Y-66483328D01*
X110827698Y-66307330D01*
X110793529Y-66121158D01*
X110796171Y-65931891D01*
X110835527Y-65746739D01*
X110910093Y-65572761D01*
X111017035Y-65416578D01*
X111152273Y-65284142D01*
X111310663Y-65180496D01*
X111486166Y-65109587D01*
X111672096Y-65074120D01*
X111861383Y-65075441D01*
X111861383Y-65075441D01*
G37*
G36*
X76301383Y-65075441D02*
X76486795Y-65113501D01*
X76661297Y-65186855D01*
X76818221Y-65292702D01*
X76951598Y-65427012D01*
X77056345Y-65584671D01*
X77128477Y-65759674D01*
X77165174Y-65945008D01*
X77165174Y-65945018D01*
X77165241Y-65945357D01*
X77162222Y-66161557D01*
X77162146Y-66161891D01*
X77162146Y-66161904D01*
X77120288Y-66346142D01*
X77043300Y-66519059D01*
X76934188Y-66673735D01*
X76797113Y-66804270D01*
X76637294Y-66905694D01*
X76460816Y-66974145D01*
X76274410Y-67007014D01*
X76085162Y-67003049D01*
X75900293Y-66962404D01*
X75726836Y-66886622D01*
X75571408Y-66778597D01*
X75439919Y-66642436D01*
X75337381Y-66483328D01*
X75267698Y-66307330D01*
X75233529Y-66121158D01*
X75236171Y-65931891D01*
X75275527Y-65746739D01*
X75350093Y-65572761D01*
X75457035Y-65416578D01*
X75592273Y-65284142D01*
X75750663Y-65180496D01*
X75926166Y-65109587D01*
X76112096Y-65074120D01*
X76301383Y-65075441D01*
X76301383Y-65075441D01*
G37*
G36*
X78841383Y-65075441D02*
X79026795Y-65113501D01*
X79201297Y-65186855D01*
X79358221Y-65292702D01*
X79491598Y-65427012D01*
X79596345Y-65584671D01*
X79668477Y-65759674D01*
X79705174Y-65945008D01*
X79705174Y-65945018D01*
X79705241Y-65945357D01*
X79702222Y-66161557D01*
X79702146Y-66161891D01*
X79702146Y-66161904D01*
X79660288Y-66346142D01*
X79583300Y-66519059D01*
X79474188Y-66673735D01*
X79337113Y-66804270D01*
X79177294Y-66905694D01*
X79000816Y-66974145D01*
X78814410Y-67007014D01*
X78625162Y-67003049D01*
X78440293Y-66962404D01*
X78266836Y-66886622D01*
X78111408Y-66778597D01*
X77979919Y-66642436D01*
X77877381Y-66483328D01*
X77807698Y-66307330D01*
X77773529Y-66121158D01*
X77776171Y-65931891D01*
X77815527Y-65746739D01*
X77890093Y-65572761D01*
X77997035Y-65416578D01*
X78132273Y-65284142D01*
X78290663Y-65180496D01*
X78466166Y-65109587D01*
X78652096Y-65074120D01*
X78841383Y-65075441D01*
X78841383Y-65075441D01*
G37*
G36*
X114401383Y-65075441D02*
X114586795Y-65113501D01*
X114761297Y-65186855D01*
X114918221Y-65292702D01*
X115051598Y-65427012D01*
X115156345Y-65584671D01*
X115228477Y-65759674D01*
X115265174Y-65945008D01*
X115265174Y-65945018D01*
X115265241Y-65945357D01*
X115262222Y-66161557D01*
X115262146Y-66161891D01*
X115262146Y-66161904D01*
X115220288Y-66346142D01*
X115143300Y-66519059D01*
X115034188Y-66673735D01*
X114897113Y-66804270D01*
X114737294Y-66905694D01*
X114560816Y-66974145D01*
X114374410Y-67007014D01*
X114185162Y-67003049D01*
X114000293Y-66962404D01*
X113826836Y-66886622D01*
X113671408Y-66778597D01*
X113539919Y-66642436D01*
X113437381Y-66483328D01*
X113367698Y-66307330D01*
X113333529Y-66121158D01*
X113336171Y-65931891D01*
X113375527Y-65746739D01*
X113450093Y-65572761D01*
X113557035Y-65416578D01*
X113692273Y-65284142D01*
X113850663Y-65180496D01*
X114026166Y-65109587D01*
X114212096Y-65074120D01*
X114401383Y-65075441D01*
X114401383Y-65075441D01*
G37*
G36*
X103515421Y-65163034D02*
X103522698Y-65163085D01*
X103692792Y-65182165D01*
X103855940Y-65233918D01*
X104005929Y-65316375D01*
X104137046Y-65426395D01*
X104244295Y-65559787D01*
X104323593Y-65711470D01*
X104371919Y-65875667D01*
X104371922Y-65875703D01*
X104371925Y-65875712D01*
X104387433Y-66046120D01*
X104369547Y-66216298D01*
X104369544Y-66216308D01*
X104369540Y-66216345D01*
X104318927Y-66379851D01*
X104237519Y-66530412D01*
X104128417Y-66662294D01*
X103995777Y-66770472D01*
X103844652Y-66850827D01*
X103680797Y-66900298D01*
X103510453Y-66917000D01*
X102999510Y-66917000D01*
X102994579Y-66916966D01*
X102987302Y-66916915D01*
X102817208Y-66897835D01*
X102654060Y-66846082D01*
X102504071Y-66763625D01*
X102372954Y-66653605D01*
X102265705Y-66520213D01*
X102186407Y-66368530D01*
X102138081Y-66204333D01*
X102138078Y-66204297D01*
X102138075Y-66204288D01*
X102122567Y-66033880D01*
X102140453Y-65863702D01*
X102140456Y-65863692D01*
X102140460Y-65863655D01*
X102191073Y-65700149D01*
X102272481Y-65549588D01*
X102381583Y-65417706D01*
X102514223Y-65309528D01*
X102665348Y-65229173D01*
X102829203Y-65179702D01*
X102999547Y-65163000D01*
X103510490Y-65163000D01*
X103515421Y-65163034D01*
X103515421Y-65163034D01*
G37*
G36*
X106555421Y-65163034D02*
X106562698Y-65163085D01*
X106732792Y-65182165D01*
X106895940Y-65233918D01*
X107045929Y-65316375D01*
X107177046Y-65426395D01*
X107284295Y-65559787D01*
X107363593Y-65711470D01*
X107411919Y-65875667D01*
X107411922Y-65875703D01*
X107411925Y-65875712D01*
X107427433Y-66046120D01*
X107409547Y-66216298D01*
X107409544Y-66216308D01*
X107409540Y-66216345D01*
X107358927Y-66379851D01*
X107277519Y-66530412D01*
X107168417Y-66662294D01*
X107035777Y-66770472D01*
X106884652Y-66850827D01*
X106720797Y-66900298D01*
X106550453Y-66917000D01*
X106039510Y-66917000D01*
X106034579Y-66916966D01*
X106027302Y-66916915D01*
X105857208Y-66897835D01*
X105694060Y-66846082D01*
X105544071Y-66763625D01*
X105412954Y-66653605D01*
X105305705Y-66520213D01*
X105226407Y-66368530D01*
X105178081Y-66204333D01*
X105178078Y-66204297D01*
X105178075Y-66204288D01*
X105162567Y-66033880D01*
X105180453Y-65863702D01*
X105180456Y-65863692D01*
X105180460Y-65863655D01*
X105231073Y-65700149D01*
X105312481Y-65549588D01*
X105421583Y-65417706D01*
X105554223Y-65309528D01*
X105705348Y-65229173D01*
X105869203Y-65179702D01*
X106039547Y-65163000D01*
X106550490Y-65163000D01*
X106555421Y-65163034D01*
X106555421Y-65163034D01*
G37*
G36*
X94697000Y-66467000D02*
X92943000Y-66467000D01*
X92943000Y-65613000D01*
X94697000Y-65613000D01*
X94697000Y-66467000D01*
X94697000Y-66467000D01*
G37*
G36*
X100097000Y-66467000D02*
X98343000Y-66467000D01*
X98343000Y-65613000D01*
X100097000Y-65613000D01*
X100097000Y-66467000D01*
X100097000Y-66467000D01*
G37*
G36*
X100097000Y-65197000D02*
X98343000Y-65197000D01*
X98343000Y-64343000D01*
X100097000Y-64343000D01*
X100097000Y-65197000D01*
X100097000Y-65197000D01*
G37*
G36*
X94697000Y-65197000D02*
X92943000Y-65197000D01*
X92943000Y-64343000D01*
X94697000Y-64343000D01*
X94697000Y-65197000D01*
X94697000Y-65197000D01*
G37*
G36*
X87837000Y-64662000D02*
X86683000Y-64662000D01*
X86683000Y-63608000D01*
X87837000Y-63608000D01*
X87837000Y-64662000D01*
X87837000Y-64662000D01*
G37*
G36*
X86037000Y-64662000D02*
X84883000Y-64662000D01*
X84883000Y-63608000D01*
X86037000Y-63608000D01*
X86037000Y-64662000D01*
X86037000Y-64662000D01*
G37*
G36*
X111861383Y-62535441D02*
X112046795Y-62573501D01*
X112221297Y-62646855D01*
X112378221Y-62752702D01*
X112511598Y-62887012D01*
X112616345Y-63044671D01*
X112688477Y-63219674D01*
X112725174Y-63405008D01*
X112725174Y-63405018D01*
X112725241Y-63405357D01*
X112722222Y-63621557D01*
X112722146Y-63621891D01*
X112722146Y-63621904D01*
X112680288Y-63806142D01*
X112603300Y-63979059D01*
X112494188Y-64133735D01*
X112357113Y-64264270D01*
X112197294Y-64365694D01*
X112020816Y-64434145D01*
X111834410Y-64467014D01*
X111645162Y-64463049D01*
X111460293Y-64422404D01*
X111286836Y-64346622D01*
X111131408Y-64238597D01*
X110999919Y-64102436D01*
X110897381Y-63943328D01*
X110827698Y-63767330D01*
X110793529Y-63581158D01*
X110796171Y-63391891D01*
X110835527Y-63206739D01*
X110910093Y-63032761D01*
X111017035Y-62876578D01*
X111152273Y-62744142D01*
X111310663Y-62640496D01*
X111486166Y-62569587D01*
X111672096Y-62534120D01*
X111861383Y-62535441D01*
X111861383Y-62535441D01*
G37*
G36*
X78841383Y-62535441D02*
X79026795Y-62573501D01*
X79201297Y-62646855D01*
X79358221Y-62752702D01*
X79491598Y-62887012D01*
X79596345Y-63044671D01*
X79668477Y-63219674D01*
X79705174Y-63405008D01*
X79705174Y-63405018D01*
X79705241Y-63405357D01*
X79702222Y-63621557D01*
X79702146Y-63621891D01*
X79702146Y-63621904D01*
X79660288Y-63806142D01*
X79583300Y-63979059D01*
X79474188Y-64133735D01*
X79337113Y-64264270D01*
X79177294Y-64365694D01*
X79000816Y-64434145D01*
X78814410Y-64467014D01*
X78625162Y-64463049D01*
X78440293Y-64422404D01*
X78266836Y-64346622D01*
X78111408Y-64238597D01*
X77979919Y-64102436D01*
X77877381Y-63943328D01*
X77807698Y-63767330D01*
X77773529Y-63581158D01*
X77776171Y-63391891D01*
X77815527Y-63206739D01*
X77890093Y-63032761D01*
X77997035Y-62876578D01*
X78132273Y-62744142D01*
X78290663Y-62640496D01*
X78466166Y-62569587D01*
X78652096Y-62534120D01*
X78841383Y-62535441D01*
X78841383Y-62535441D01*
G37*
G36*
X114401383Y-62535441D02*
X114586795Y-62573501D01*
X114761297Y-62646855D01*
X114918221Y-62752702D01*
X115051598Y-62887012D01*
X115156345Y-63044671D01*
X115228477Y-63219674D01*
X115265174Y-63405008D01*
X115265174Y-63405018D01*
X115265241Y-63405357D01*
X115262222Y-63621557D01*
X115262146Y-63621891D01*
X115262146Y-63621904D01*
X115220288Y-63806142D01*
X115143300Y-63979059D01*
X115034188Y-64133735D01*
X114897113Y-64264270D01*
X114737294Y-64365694D01*
X114560816Y-64434145D01*
X114374410Y-64467014D01*
X114185162Y-64463049D01*
X114000293Y-64422404D01*
X113826836Y-64346622D01*
X113671408Y-64238597D01*
X113539919Y-64102436D01*
X113437381Y-63943328D01*
X113367698Y-63767330D01*
X113333529Y-63581158D01*
X113336171Y-63391891D01*
X113375527Y-63206739D01*
X113450093Y-63032761D01*
X113557035Y-62876578D01*
X113692273Y-62744142D01*
X113850663Y-62640496D01*
X114026166Y-62569587D01*
X114212096Y-62534120D01*
X114401383Y-62535441D01*
X114401383Y-62535441D01*
G37*
G36*
X76301383Y-62535441D02*
X76486795Y-62573501D01*
X76661297Y-62646855D01*
X76818221Y-62752702D01*
X76951598Y-62887012D01*
X77056345Y-63044671D01*
X77128477Y-63219674D01*
X77165174Y-63405008D01*
X77165174Y-63405018D01*
X77165241Y-63405357D01*
X77162222Y-63621557D01*
X77162146Y-63621891D01*
X77162146Y-63621904D01*
X77120288Y-63806142D01*
X77043300Y-63979059D01*
X76934188Y-64133735D01*
X76797113Y-64264270D01*
X76637294Y-64365694D01*
X76460816Y-64434145D01*
X76274410Y-64467014D01*
X76085162Y-64463049D01*
X75900293Y-64422404D01*
X75726836Y-64346622D01*
X75571408Y-64238597D01*
X75439919Y-64102436D01*
X75337381Y-63943328D01*
X75267698Y-63767330D01*
X75233529Y-63581158D01*
X75236171Y-63391891D01*
X75275527Y-63206739D01*
X75350093Y-63032761D01*
X75457035Y-62876578D01*
X75592273Y-62744142D01*
X75750663Y-62640496D01*
X75926166Y-62569587D01*
X76112096Y-62534120D01*
X76301383Y-62535441D01*
X76301383Y-62535441D01*
G37*
G36*
X103515421Y-62623034D02*
X103522698Y-62623085D01*
X103692792Y-62642165D01*
X103855940Y-62693918D01*
X104005929Y-62776375D01*
X104137046Y-62886395D01*
X104244295Y-63019787D01*
X104323593Y-63171470D01*
X104371919Y-63335667D01*
X104371922Y-63335703D01*
X104371925Y-63335712D01*
X104387433Y-63506120D01*
X104369547Y-63676298D01*
X104369544Y-63676308D01*
X104369540Y-63676345D01*
X104318927Y-63839851D01*
X104237519Y-63990412D01*
X104128417Y-64122294D01*
X103995777Y-64230472D01*
X103844652Y-64310827D01*
X103680797Y-64360298D01*
X103510453Y-64377000D01*
X102999510Y-64377000D01*
X102994579Y-64376966D01*
X102987302Y-64376915D01*
X102817208Y-64357835D01*
X102654060Y-64306082D01*
X102504071Y-64223625D01*
X102372954Y-64113605D01*
X102265705Y-63980213D01*
X102186407Y-63828530D01*
X102138081Y-63664333D01*
X102138078Y-63664297D01*
X102138075Y-63664288D01*
X102122567Y-63493880D01*
X102140453Y-63323702D01*
X102140456Y-63323692D01*
X102140460Y-63323655D01*
X102191073Y-63160149D01*
X102272481Y-63009588D01*
X102381583Y-62877706D01*
X102514223Y-62769528D01*
X102665348Y-62689173D01*
X102829203Y-62639702D01*
X102999547Y-62623000D01*
X103510490Y-62623000D01*
X103515421Y-62623034D01*
X103515421Y-62623034D01*
G37*
G36*
X106555421Y-62623034D02*
X106562698Y-62623085D01*
X106732792Y-62642165D01*
X106895940Y-62693918D01*
X107045929Y-62776375D01*
X107177046Y-62886395D01*
X107284295Y-63019787D01*
X107363593Y-63171470D01*
X107411919Y-63335667D01*
X107411922Y-63335703D01*
X107411925Y-63335712D01*
X107427433Y-63506120D01*
X107409547Y-63676298D01*
X107409544Y-63676308D01*
X107409540Y-63676345D01*
X107358927Y-63839851D01*
X107277519Y-63990412D01*
X107168417Y-64122294D01*
X107035777Y-64230472D01*
X106884652Y-64310827D01*
X106720797Y-64360298D01*
X106550453Y-64377000D01*
X106039510Y-64377000D01*
X106034579Y-64376966D01*
X106027302Y-64376915D01*
X105857208Y-64357835D01*
X105694060Y-64306082D01*
X105544071Y-64223625D01*
X105412954Y-64113605D01*
X105305705Y-63980213D01*
X105226407Y-63828530D01*
X105178081Y-63664333D01*
X105178078Y-63664297D01*
X105178075Y-63664288D01*
X105162567Y-63493880D01*
X105180453Y-63323702D01*
X105180456Y-63323692D01*
X105180460Y-63323655D01*
X105231073Y-63160149D01*
X105312481Y-63009588D01*
X105421583Y-62877706D01*
X105554223Y-62769528D01*
X105705348Y-62689173D01*
X105869203Y-62639702D01*
X106039547Y-62623000D01*
X106550490Y-62623000D01*
X106555421Y-62623034D01*
X106555421Y-62623034D01*
G37*
G36*
X84658200Y-64196000D02*
X83743800Y-64196000D01*
X83743800Y-63535600D01*
X84658200Y-63535600D01*
X84658200Y-64196000D01*
X84658200Y-64196000D01*
G37*
G36*
X82626200Y-64196000D02*
X81711800Y-64196000D01*
X81711800Y-62214800D01*
X82626200Y-62214800D01*
X82626200Y-64196000D01*
X82626200Y-64196000D01*
G37*
G36*
X94697000Y-63927000D02*
X92943000Y-63927000D01*
X92943000Y-63073000D01*
X94697000Y-63073000D01*
X94697000Y-63927000D01*
X94697000Y-63927000D01*
G37*
G36*
X100097000Y-63927000D02*
X98343000Y-63927000D01*
X98343000Y-63073000D01*
X100097000Y-63073000D01*
X100097000Y-63927000D01*
X100097000Y-63927000D01*
G37*
G36*
X90062000Y-63072000D02*
X89008000Y-63072000D01*
X89008000Y-61918000D01*
X90062000Y-61918000D01*
X90062000Y-63072000D01*
X90062000Y-63072000D01*
G37*
G36*
X85917000Y-62997000D02*
X84603000Y-62997000D01*
X84603000Y-62926000D01*
X84602024Y-62916089D01*
X84599133Y-62906560D01*
X84594439Y-62897777D01*
X84588121Y-62890079D01*
X84580423Y-62883761D01*
X84571640Y-62879067D01*
X84562111Y-62876176D01*
X84552200Y-62875200D01*
X83743800Y-62875200D01*
X83743800Y-62214800D01*
X84552200Y-62214800D01*
X84562111Y-62213824D01*
X84571640Y-62210933D01*
X84580423Y-62206239D01*
X84588121Y-62199921D01*
X84594439Y-62192223D01*
X84599133Y-62183440D01*
X84602024Y-62173911D01*
X84603000Y-62164000D01*
X84603000Y-60193000D01*
X85917000Y-60193000D01*
X85917000Y-62997000D01*
X85917000Y-62997000D01*
G37*
G36*
X88117000Y-62997000D02*
X86803000Y-62997000D01*
X86803000Y-60193000D01*
X88117000Y-60193000D01*
X88117000Y-62997000D01*
X88117000Y-62997000D01*
G37*
G36*
X100097000Y-62657000D02*
X98343000Y-62657000D01*
X98343000Y-61803000D01*
X100097000Y-61803000D01*
X100097000Y-62657000D01*
X100097000Y-62657000D01*
G37*
G36*
X94697000Y-62657000D02*
X92943000Y-62657000D01*
X92943000Y-61803000D01*
X94697000Y-61803000D01*
X94697000Y-62657000D01*
X94697000Y-62657000D01*
G37*
G36*
X76301383Y-59995441D02*
X76486795Y-60033501D01*
X76661297Y-60106855D01*
X76818221Y-60212702D01*
X76951598Y-60347012D01*
X77056345Y-60504671D01*
X77128477Y-60679674D01*
X77165174Y-60865008D01*
X77165174Y-60865018D01*
X77165241Y-60865357D01*
X77162222Y-61081557D01*
X77162146Y-61081891D01*
X77162146Y-61081904D01*
X77120288Y-61266142D01*
X77043300Y-61439059D01*
X76934188Y-61593735D01*
X76797113Y-61724270D01*
X76637294Y-61825694D01*
X76460816Y-61894145D01*
X76274410Y-61927014D01*
X76085162Y-61923049D01*
X75900293Y-61882404D01*
X75726836Y-61806622D01*
X75571408Y-61698597D01*
X75439919Y-61562436D01*
X75337381Y-61403328D01*
X75267698Y-61227330D01*
X75233529Y-61041158D01*
X75236171Y-60851891D01*
X75275527Y-60666739D01*
X75350093Y-60492761D01*
X75457035Y-60336578D01*
X75592273Y-60204142D01*
X75750663Y-60100496D01*
X75926166Y-60029587D01*
X76112096Y-59994120D01*
X76301383Y-59995441D01*
X76301383Y-59995441D01*
G37*
G36*
X114401383Y-59995441D02*
X114586795Y-60033501D01*
X114761297Y-60106855D01*
X114918221Y-60212702D01*
X115051598Y-60347012D01*
X115156345Y-60504671D01*
X115228477Y-60679674D01*
X115265174Y-60865008D01*
X115265174Y-60865018D01*
X115265241Y-60865357D01*
X115262222Y-61081557D01*
X115262146Y-61081891D01*
X115262146Y-61081904D01*
X115220288Y-61266142D01*
X115143300Y-61439059D01*
X115034188Y-61593735D01*
X114897113Y-61724270D01*
X114737294Y-61825694D01*
X114560816Y-61894145D01*
X114374410Y-61927014D01*
X114185162Y-61923049D01*
X114000293Y-61882404D01*
X113826836Y-61806622D01*
X113671408Y-61698597D01*
X113539919Y-61562436D01*
X113437381Y-61403328D01*
X113367698Y-61227330D01*
X113333529Y-61041158D01*
X113336171Y-60851891D01*
X113375527Y-60666739D01*
X113450093Y-60492761D01*
X113557035Y-60336578D01*
X113692273Y-60204142D01*
X113850663Y-60100496D01*
X114026166Y-60029587D01*
X114212096Y-59994120D01*
X114401383Y-59995441D01*
X114401383Y-59995441D01*
G37*
G36*
X111861383Y-59995441D02*
X112046795Y-60033501D01*
X112221297Y-60106855D01*
X112378221Y-60212702D01*
X112511598Y-60347012D01*
X112616345Y-60504671D01*
X112688477Y-60679674D01*
X112725174Y-60865008D01*
X112725174Y-60865018D01*
X112725241Y-60865357D01*
X112722222Y-61081557D01*
X112722146Y-61081891D01*
X112722146Y-61081904D01*
X112680288Y-61266142D01*
X112603300Y-61439059D01*
X112494188Y-61593735D01*
X112357113Y-61724270D01*
X112197294Y-61825694D01*
X112020816Y-61894145D01*
X111834410Y-61927014D01*
X111645162Y-61923049D01*
X111460293Y-61882404D01*
X111286836Y-61806622D01*
X111131408Y-61698597D01*
X110999919Y-61562436D01*
X110897381Y-61403328D01*
X110827698Y-61227330D01*
X110793529Y-61041158D01*
X110796171Y-60851891D01*
X110835527Y-60666739D01*
X110910093Y-60492761D01*
X111017035Y-60336578D01*
X111152273Y-60204142D01*
X111310663Y-60100496D01*
X111486166Y-60029587D01*
X111672096Y-59994120D01*
X111861383Y-59995441D01*
X111861383Y-59995441D01*
G37*
G36*
X78841383Y-59995441D02*
X79026795Y-60033501D01*
X79201297Y-60106855D01*
X79358221Y-60212702D01*
X79491598Y-60347012D01*
X79596345Y-60504671D01*
X79668477Y-60679674D01*
X79705174Y-60865008D01*
X79705174Y-60865018D01*
X79705241Y-60865357D01*
X79702222Y-61081557D01*
X79702146Y-61081891D01*
X79702146Y-61081904D01*
X79660288Y-61266142D01*
X79583300Y-61439059D01*
X79474188Y-61593735D01*
X79337113Y-61724270D01*
X79177294Y-61825694D01*
X79000816Y-61894145D01*
X78814410Y-61927014D01*
X78625162Y-61923049D01*
X78440293Y-61882404D01*
X78266836Y-61806622D01*
X78111408Y-61698597D01*
X77979919Y-61562436D01*
X77877381Y-61403328D01*
X77807698Y-61227330D01*
X77773529Y-61041158D01*
X77776171Y-60851891D01*
X77815527Y-60666739D01*
X77890093Y-60492761D01*
X77997035Y-60336578D01*
X78132273Y-60204142D01*
X78290663Y-60100496D01*
X78466166Y-60029587D01*
X78652096Y-59994120D01*
X78841383Y-59995441D01*
X78841383Y-59995441D01*
G37*
G36*
X106555421Y-60083034D02*
X106562698Y-60083085D01*
X106732792Y-60102165D01*
X106895940Y-60153918D01*
X107045929Y-60236375D01*
X107177046Y-60346395D01*
X107284295Y-60479787D01*
X107363593Y-60631470D01*
X107411919Y-60795667D01*
X107411922Y-60795703D01*
X107411925Y-60795712D01*
X107427433Y-60966120D01*
X107409547Y-61136298D01*
X107409544Y-61136308D01*
X107409540Y-61136345D01*
X107358927Y-61299851D01*
X107277519Y-61450412D01*
X107168417Y-61582294D01*
X107035777Y-61690472D01*
X106884652Y-61770827D01*
X106720797Y-61820298D01*
X106550453Y-61837000D01*
X106039510Y-61837000D01*
X106034579Y-61836966D01*
X106027302Y-61836915D01*
X105857208Y-61817835D01*
X105694060Y-61766082D01*
X105544071Y-61683625D01*
X105412954Y-61573605D01*
X105305705Y-61440213D01*
X105226407Y-61288530D01*
X105178081Y-61124333D01*
X105178078Y-61124297D01*
X105178075Y-61124288D01*
X105162567Y-60953880D01*
X105180453Y-60783702D01*
X105180456Y-60783692D01*
X105180460Y-60783655D01*
X105231073Y-60620149D01*
X105312481Y-60469588D01*
X105421583Y-60337706D01*
X105554223Y-60229528D01*
X105705348Y-60149173D01*
X105869203Y-60099702D01*
X106039547Y-60083000D01*
X106550490Y-60083000D01*
X106555421Y-60083034D01*
X106555421Y-60083034D01*
G37*
G36*
X103515421Y-60083034D02*
X103522698Y-60083085D01*
X103692792Y-60102165D01*
X103855940Y-60153918D01*
X104005929Y-60236375D01*
X104137046Y-60346395D01*
X104244295Y-60479787D01*
X104323593Y-60631470D01*
X104371919Y-60795667D01*
X104371922Y-60795703D01*
X104371925Y-60795712D01*
X104387433Y-60966120D01*
X104369547Y-61136298D01*
X104369544Y-61136308D01*
X104369540Y-61136345D01*
X104318927Y-61299851D01*
X104237519Y-61450412D01*
X104128417Y-61582294D01*
X103995777Y-61690472D01*
X103844652Y-61770827D01*
X103680797Y-61820298D01*
X103510453Y-61837000D01*
X102999510Y-61837000D01*
X102994579Y-61836966D01*
X102987302Y-61836915D01*
X102817208Y-61817835D01*
X102654060Y-61766082D01*
X102504071Y-61683625D01*
X102372954Y-61573605D01*
X102265705Y-61440213D01*
X102186407Y-61288530D01*
X102138081Y-61124333D01*
X102138078Y-61124297D01*
X102138075Y-61124288D01*
X102122567Y-60953880D01*
X102140453Y-60783702D01*
X102140456Y-60783692D01*
X102140460Y-60783655D01*
X102191073Y-60620149D01*
X102272481Y-60469588D01*
X102381583Y-60337706D01*
X102514223Y-60229528D01*
X102665348Y-60149173D01*
X102829203Y-60099702D01*
X102999547Y-60083000D01*
X103510490Y-60083000D01*
X103515421Y-60083034D01*
X103515421Y-60083034D01*
G37*
G36*
X100097000Y-61387000D02*
X98343000Y-61387000D01*
X98343000Y-60533000D01*
X100097000Y-60533000D01*
X100097000Y-61387000D01*
X100097000Y-61387000D01*
G37*
G36*
X94697000Y-61387000D02*
X92943000Y-61387000D01*
X92943000Y-60533000D01*
X94697000Y-60533000D01*
X94697000Y-61387000D01*
X94697000Y-61387000D01*
G37*
G36*
X83962000Y-61347000D02*
X82408000Y-61347000D01*
X82408000Y-60093000D01*
X83962000Y-60093000D01*
X83962000Y-61347000D01*
X83962000Y-61347000D01*
G37*
G36*
X90062000Y-61272000D02*
X89008000Y-61272000D01*
X89008000Y-60118000D01*
X90062000Y-60118000D01*
X90062000Y-61272000D01*
X90062000Y-61272000D01*
G37*
G36*
X82188000Y-61040000D02*
X81134000Y-61040000D01*
X81134000Y-59886000D01*
X82188000Y-59886000D01*
X82188000Y-61040000D01*
X82188000Y-61040000D01*
G37*
G36*
X94697000Y-60117000D02*
X92943000Y-60117000D01*
X92943000Y-59263000D01*
X94697000Y-59263000D01*
X94697000Y-60117000D01*
X94697000Y-60117000D01*
G37*
G36*
X100097000Y-60117000D02*
X98343000Y-60117000D01*
X98343000Y-59263000D01*
X100097000Y-59263000D01*
X100097000Y-60117000D01*
X100097000Y-60117000D01*
G37*
G36*
X89887000Y-59897000D02*
X89183000Y-59897000D01*
X89183000Y-59053000D01*
X89887000Y-59053000D01*
X89887000Y-59897000D01*
X89887000Y-59897000D01*
G37*
G36*
X88587000Y-59547000D02*
X86633000Y-59547000D01*
X86633000Y-57293000D01*
X88587000Y-57293000D01*
X88587000Y-59547000D01*
X88587000Y-59547000D01*
G37*
G36*
X86087000Y-59547000D02*
X84133000Y-59547000D01*
X84133000Y-57293000D01*
X86087000Y-57293000D01*
X86087000Y-59547000D01*
X86087000Y-59547000D01*
G37*
G36*
X111861383Y-57455441D02*
X112046795Y-57493501D01*
X112221297Y-57566855D01*
X112378221Y-57672702D01*
X112511598Y-57807012D01*
X112616345Y-57964671D01*
X112688477Y-58139674D01*
X112725174Y-58325008D01*
X112725174Y-58325018D01*
X112725241Y-58325357D01*
X112722222Y-58541557D01*
X112722146Y-58541891D01*
X112722146Y-58541904D01*
X112680288Y-58726142D01*
X112603300Y-58899059D01*
X112494188Y-59053735D01*
X112357113Y-59184270D01*
X112197294Y-59285694D01*
X112020816Y-59354145D01*
X111834410Y-59387014D01*
X111645162Y-59383049D01*
X111460293Y-59342404D01*
X111286836Y-59266622D01*
X111131408Y-59158597D01*
X110999919Y-59022436D01*
X110897381Y-58863328D01*
X110827698Y-58687330D01*
X110793529Y-58501158D01*
X110796171Y-58311891D01*
X110835527Y-58126739D01*
X110910093Y-57952761D01*
X111017035Y-57796578D01*
X111152273Y-57664142D01*
X111310663Y-57560496D01*
X111486166Y-57489587D01*
X111672096Y-57454120D01*
X111861383Y-57455441D01*
X111861383Y-57455441D01*
G37*
G36*
X114401383Y-57455441D02*
X114586795Y-57493501D01*
X114761297Y-57566855D01*
X114918221Y-57672702D01*
X115051598Y-57807012D01*
X115156345Y-57964671D01*
X115228477Y-58139674D01*
X115265174Y-58325008D01*
X115265174Y-58325018D01*
X115265241Y-58325357D01*
X115262222Y-58541557D01*
X115262146Y-58541891D01*
X115262146Y-58541904D01*
X115220288Y-58726142D01*
X115143300Y-58899059D01*
X115034188Y-59053735D01*
X114897113Y-59184270D01*
X114737294Y-59285694D01*
X114560816Y-59354145D01*
X114374410Y-59387014D01*
X114185162Y-59383049D01*
X114000293Y-59342404D01*
X113826836Y-59266622D01*
X113671408Y-59158597D01*
X113539919Y-59022436D01*
X113437381Y-58863328D01*
X113367698Y-58687330D01*
X113333529Y-58501158D01*
X113336171Y-58311891D01*
X113375527Y-58126739D01*
X113450093Y-57952761D01*
X113557035Y-57796578D01*
X113692273Y-57664142D01*
X113850663Y-57560496D01*
X114026166Y-57489587D01*
X114212096Y-57454120D01*
X114401383Y-57455441D01*
X114401383Y-57455441D01*
G37*
G36*
X76301383Y-57455441D02*
X76486795Y-57493501D01*
X76661297Y-57566855D01*
X76818221Y-57672702D01*
X76951598Y-57807012D01*
X77056345Y-57964671D01*
X77128477Y-58139674D01*
X77165174Y-58325008D01*
X77165174Y-58325018D01*
X77165241Y-58325357D01*
X77162222Y-58541557D01*
X77162146Y-58541891D01*
X77162146Y-58541904D01*
X77120288Y-58726142D01*
X77043300Y-58899059D01*
X76934188Y-59053735D01*
X76797113Y-59184270D01*
X76637294Y-59285694D01*
X76460816Y-59354145D01*
X76274410Y-59387014D01*
X76085162Y-59383049D01*
X75900293Y-59342404D01*
X75726836Y-59266622D01*
X75571408Y-59158597D01*
X75439919Y-59022436D01*
X75337381Y-58863328D01*
X75267698Y-58687330D01*
X75233529Y-58501158D01*
X75236171Y-58311891D01*
X75275527Y-58126739D01*
X75350093Y-57952761D01*
X75457035Y-57796578D01*
X75592273Y-57664142D01*
X75750663Y-57560496D01*
X75926166Y-57489587D01*
X76112096Y-57454120D01*
X76301383Y-57455441D01*
X76301383Y-57455441D01*
G37*
G36*
X78841383Y-57455441D02*
X79026795Y-57493501D01*
X79201297Y-57566855D01*
X79358221Y-57672702D01*
X79491598Y-57807012D01*
X79596345Y-57964671D01*
X79668477Y-58139674D01*
X79705174Y-58325008D01*
X79705174Y-58325018D01*
X79705241Y-58325357D01*
X79702222Y-58541557D01*
X79702146Y-58541891D01*
X79702146Y-58541904D01*
X79660288Y-58726142D01*
X79583300Y-58899059D01*
X79474188Y-59053735D01*
X79337113Y-59184270D01*
X79177294Y-59285694D01*
X79000816Y-59354145D01*
X78814410Y-59387014D01*
X78625162Y-59383049D01*
X78440293Y-59342404D01*
X78266836Y-59266622D01*
X78111408Y-59158597D01*
X77979919Y-59022436D01*
X77877381Y-58863328D01*
X77807698Y-58687330D01*
X77773529Y-58501158D01*
X77776171Y-58311891D01*
X77815527Y-58126739D01*
X77890093Y-57952761D01*
X77997035Y-57796578D01*
X78132273Y-57664142D01*
X78290663Y-57560496D01*
X78466166Y-57489587D01*
X78652096Y-57454120D01*
X78841383Y-57455441D01*
X78841383Y-57455441D01*
G37*
G36*
X106555421Y-57543034D02*
X106562698Y-57543085D01*
X106732792Y-57562165D01*
X106895940Y-57613918D01*
X107045929Y-57696375D01*
X107177046Y-57806395D01*
X107284295Y-57939787D01*
X107363593Y-58091470D01*
X107411919Y-58255667D01*
X107411922Y-58255703D01*
X107411925Y-58255712D01*
X107427433Y-58426120D01*
X107409547Y-58596298D01*
X107409544Y-58596308D01*
X107409540Y-58596345D01*
X107358927Y-58759851D01*
X107277519Y-58910412D01*
X107168417Y-59042294D01*
X107035777Y-59150472D01*
X106884652Y-59230827D01*
X106720797Y-59280298D01*
X106550453Y-59297000D01*
X106039510Y-59297000D01*
X106034579Y-59296966D01*
X106027302Y-59296915D01*
X105857208Y-59277835D01*
X105694060Y-59226082D01*
X105544071Y-59143625D01*
X105412954Y-59033605D01*
X105305705Y-58900213D01*
X105226407Y-58748530D01*
X105178081Y-58584333D01*
X105178078Y-58584297D01*
X105178075Y-58584288D01*
X105162567Y-58413880D01*
X105180453Y-58243702D01*
X105180456Y-58243692D01*
X105180460Y-58243655D01*
X105231073Y-58080149D01*
X105312481Y-57929588D01*
X105421583Y-57797706D01*
X105554223Y-57689528D01*
X105705348Y-57609173D01*
X105869203Y-57559702D01*
X106039547Y-57543000D01*
X106550490Y-57543000D01*
X106555421Y-57543034D01*
X106555421Y-57543034D01*
G37*
G36*
X103515421Y-57543034D02*
X103522698Y-57543085D01*
X103692792Y-57562165D01*
X103855940Y-57613918D01*
X104005929Y-57696375D01*
X104137046Y-57806395D01*
X104244295Y-57939787D01*
X104323593Y-58091470D01*
X104371919Y-58255667D01*
X104371922Y-58255703D01*
X104371925Y-58255712D01*
X104387433Y-58426120D01*
X104369547Y-58596298D01*
X104369544Y-58596308D01*
X104369540Y-58596345D01*
X104318927Y-58759851D01*
X104237519Y-58910412D01*
X104128417Y-59042294D01*
X103995777Y-59150472D01*
X103844652Y-59230827D01*
X103680797Y-59280298D01*
X103510453Y-59297000D01*
X102999510Y-59297000D01*
X102994579Y-59296966D01*
X102987302Y-59296915D01*
X102817208Y-59277835D01*
X102654060Y-59226082D01*
X102504071Y-59143625D01*
X102372954Y-59033605D01*
X102265705Y-58900213D01*
X102186407Y-58748530D01*
X102138081Y-58584333D01*
X102138078Y-58584297D01*
X102138075Y-58584288D01*
X102122567Y-58413880D01*
X102140453Y-58243702D01*
X102140456Y-58243692D01*
X102140460Y-58243655D01*
X102191073Y-58080149D01*
X102272481Y-57929588D01*
X102381583Y-57797706D01*
X102514223Y-57689528D01*
X102665348Y-57609173D01*
X102829203Y-57559702D01*
X102999547Y-57543000D01*
X103510490Y-57543000D01*
X103515421Y-57543034D01*
X103515421Y-57543034D01*
G37*
G36*
X82188000Y-59240000D02*
X81134000Y-59240000D01*
X81134000Y-58086000D01*
X82188000Y-58086000D01*
X82188000Y-59240000D01*
X82188000Y-59240000D01*
G37*
G36*
X83962000Y-59047000D02*
X82408000Y-59047000D01*
X82408000Y-57793000D01*
X83962000Y-57793000D01*
X83962000Y-59047000D01*
X83962000Y-59047000D01*
G37*
G36*
X94697000Y-58847000D02*
X92943000Y-58847000D01*
X92943000Y-57993000D01*
X94697000Y-57993000D01*
X94697000Y-58847000D01*
X94697000Y-58847000D01*
G37*
G36*
X100097000Y-58847000D02*
X98343000Y-58847000D01*
X98343000Y-57993000D01*
X100097000Y-57993000D01*
X100097000Y-58847000D01*
X100097000Y-58847000D01*
G37*
G36*
X89887000Y-57787000D02*
X89183000Y-57787000D01*
X89183000Y-56943000D01*
X89887000Y-56943000D01*
X89887000Y-57787000D01*
X89887000Y-57787000D01*
G37*
G36*
X100097000Y-57577000D02*
X98343000Y-57577000D01*
X98343000Y-56723000D01*
X100097000Y-56723000D01*
X100097000Y-57577000D01*
X100097000Y-57577000D01*
G37*
G36*
X94697000Y-57577000D02*
X92943000Y-57577000D01*
X92943000Y-56723000D01*
X94697000Y-56723000D01*
X94697000Y-57577000D01*
X94697000Y-57577000D01*
G37*
G36*
X114401383Y-54915441D02*
X114586795Y-54953501D01*
X114761297Y-55026855D01*
X114918221Y-55132702D01*
X115051598Y-55267012D01*
X115156345Y-55424671D01*
X115228477Y-55599674D01*
X115265174Y-55785008D01*
X115265174Y-55785018D01*
X115265241Y-55785357D01*
X115262222Y-56001557D01*
X115262146Y-56001891D01*
X115262146Y-56001904D01*
X115220288Y-56186142D01*
X115143300Y-56359059D01*
X115034188Y-56513735D01*
X114897113Y-56644270D01*
X114737294Y-56745694D01*
X114560816Y-56814145D01*
X114374410Y-56847014D01*
X114185162Y-56843049D01*
X114000293Y-56802404D01*
X113826836Y-56726622D01*
X113671408Y-56618597D01*
X113539919Y-56482436D01*
X113437381Y-56323328D01*
X113367698Y-56147330D01*
X113333529Y-55961158D01*
X113336171Y-55771891D01*
X113375527Y-55586739D01*
X113450093Y-55412761D01*
X113557035Y-55256578D01*
X113692273Y-55124142D01*
X113850663Y-55020496D01*
X114026166Y-54949587D01*
X114212096Y-54914120D01*
X114401383Y-54915441D01*
X114401383Y-54915441D01*
G37*
G36*
X76301383Y-54915441D02*
X76486795Y-54953501D01*
X76661297Y-55026855D01*
X76818221Y-55132702D01*
X76951598Y-55267012D01*
X77056345Y-55424671D01*
X77128477Y-55599674D01*
X77165174Y-55785008D01*
X77165174Y-55785018D01*
X77165241Y-55785357D01*
X77162222Y-56001557D01*
X77162146Y-56001891D01*
X77162146Y-56001904D01*
X77120288Y-56186142D01*
X77043300Y-56359059D01*
X76934188Y-56513735D01*
X76797113Y-56644270D01*
X76637294Y-56745694D01*
X76460816Y-56814145D01*
X76274410Y-56847014D01*
X76085162Y-56843049D01*
X75900293Y-56802404D01*
X75726836Y-56726622D01*
X75571408Y-56618597D01*
X75439919Y-56482436D01*
X75337381Y-56323328D01*
X75267698Y-56147330D01*
X75233529Y-55961158D01*
X75236171Y-55771891D01*
X75275527Y-55586739D01*
X75350093Y-55412761D01*
X75457035Y-55256578D01*
X75592273Y-55124142D01*
X75750663Y-55020496D01*
X75926166Y-54949587D01*
X76112096Y-54914120D01*
X76301383Y-54915441D01*
X76301383Y-54915441D01*
G37*
G36*
X111861383Y-54915441D02*
X112046795Y-54953501D01*
X112221297Y-55026855D01*
X112378221Y-55132702D01*
X112511598Y-55267012D01*
X112616345Y-55424671D01*
X112688477Y-55599674D01*
X112725174Y-55785008D01*
X112725174Y-55785018D01*
X112725241Y-55785357D01*
X112722222Y-56001557D01*
X112722146Y-56001891D01*
X112722146Y-56001904D01*
X112680288Y-56186142D01*
X112603300Y-56359059D01*
X112494188Y-56513735D01*
X112357113Y-56644270D01*
X112197294Y-56745694D01*
X112020816Y-56814145D01*
X111834410Y-56847014D01*
X111645162Y-56843049D01*
X111460293Y-56802404D01*
X111286836Y-56726622D01*
X111131408Y-56618597D01*
X110999919Y-56482436D01*
X110897381Y-56323328D01*
X110827698Y-56147330D01*
X110793529Y-55961158D01*
X110796171Y-55771891D01*
X110835527Y-55586739D01*
X110910093Y-55412761D01*
X111017035Y-55256578D01*
X111152273Y-55124142D01*
X111310663Y-55020496D01*
X111486166Y-54949587D01*
X111672096Y-54914120D01*
X111861383Y-54915441D01*
X111861383Y-54915441D01*
G37*
G36*
X78841383Y-54915441D02*
X79026795Y-54953501D01*
X79201297Y-55026855D01*
X79358221Y-55132702D01*
X79491598Y-55267012D01*
X79596345Y-55424671D01*
X79668477Y-55599674D01*
X79705174Y-55785008D01*
X79705174Y-55785018D01*
X79705241Y-55785357D01*
X79702222Y-56001557D01*
X79702146Y-56001891D01*
X79702146Y-56001904D01*
X79660288Y-56186142D01*
X79583300Y-56359059D01*
X79474188Y-56513735D01*
X79337113Y-56644270D01*
X79177294Y-56745694D01*
X79000816Y-56814145D01*
X78814410Y-56847014D01*
X78625162Y-56843049D01*
X78440293Y-56802404D01*
X78266836Y-56726622D01*
X78111408Y-56618597D01*
X77979919Y-56482436D01*
X77877381Y-56323328D01*
X77807698Y-56147330D01*
X77773529Y-55961158D01*
X77776171Y-55771891D01*
X77815527Y-55586739D01*
X77890093Y-55412761D01*
X77997035Y-55256578D01*
X78132273Y-55124142D01*
X78290663Y-55020496D01*
X78466166Y-54949587D01*
X78652096Y-54914120D01*
X78841383Y-54915441D01*
X78841383Y-54915441D01*
G37*
G36*
X103515421Y-55003034D02*
X103522698Y-55003085D01*
X103692792Y-55022165D01*
X103855940Y-55073918D01*
X104005929Y-55156375D01*
X104137046Y-55266395D01*
X104244295Y-55399787D01*
X104323593Y-55551470D01*
X104371919Y-55715667D01*
X104371922Y-55715703D01*
X104371925Y-55715712D01*
X104387433Y-55886120D01*
X104369547Y-56056298D01*
X104369544Y-56056308D01*
X104369540Y-56056345D01*
X104318927Y-56219851D01*
X104237519Y-56370412D01*
X104128417Y-56502294D01*
X103995777Y-56610472D01*
X103844652Y-56690827D01*
X103680797Y-56740298D01*
X103510453Y-56757000D01*
X102999510Y-56757000D01*
X102994579Y-56756966D01*
X102987302Y-56756915D01*
X102817208Y-56737835D01*
X102654060Y-56686082D01*
X102504071Y-56603625D01*
X102372954Y-56493605D01*
X102265705Y-56360213D01*
X102186407Y-56208530D01*
X102138081Y-56044333D01*
X102138078Y-56044297D01*
X102138075Y-56044288D01*
X102122567Y-55873880D01*
X102140453Y-55703702D01*
X102140456Y-55703692D01*
X102140460Y-55703655D01*
X102191073Y-55540149D01*
X102272481Y-55389588D01*
X102381583Y-55257706D01*
X102514223Y-55149528D01*
X102665348Y-55069173D01*
X102829203Y-55019702D01*
X102999547Y-55003000D01*
X103510490Y-55003000D01*
X103515421Y-55003034D01*
X103515421Y-55003034D01*
G37*
G36*
X106555421Y-55003034D02*
X106562698Y-55003085D01*
X106732792Y-55022165D01*
X106895940Y-55073918D01*
X107045929Y-55156375D01*
X107177046Y-55266395D01*
X107284295Y-55399787D01*
X107363593Y-55551470D01*
X107411919Y-55715667D01*
X107411922Y-55715703D01*
X107411925Y-55715712D01*
X107427433Y-55886120D01*
X107409547Y-56056298D01*
X107409544Y-56056308D01*
X107409540Y-56056345D01*
X107358927Y-56219851D01*
X107277519Y-56370412D01*
X107168417Y-56502294D01*
X107035777Y-56610472D01*
X106884652Y-56690827D01*
X106720797Y-56740298D01*
X106550453Y-56757000D01*
X106039510Y-56757000D01*
X106034579Y-56756966D01*
X106027302Y-56756915D01*
X105857208Y-56737835D01*
X105694060Y-56686082D01*
X105544071Y-56603625D01*
X105412954Y-56493605D01*
X105305705Y-56360213D01*
X105226407Y-56208530D01*
X105178081Y-56044333D01*
X105178078Y-56044297D01*
X105178075Y-56044288D01*
X105162567Y-55873880D01*
X105180453Y-55703702D01*
X105180456Y-55703692D01*
X105180460Y-55703655D01*
X105231073Y-55540149D01*
X105312481Y-55389588D01*
X105421583Y-55257706D01*
X105554223Y-55149528D01*
X105705348Y-55069173D01*
X105869203Y-55019702D01*
X106039547Y-55003000D01*
X106550490Y-55003000D01*
X106555421Y-55003034D01*
X106555421Y-55003034D01*
G37*
G36*
X78841383Y-52375441D02*
X79026795Y-52413501D01*
X79201297Y-52486855D01*
X79358221Y-52592702D01*
X79491598Y-52727012D01*
X79596345Y-52884671D01*
X79668477Y-53059674D01*
X79705174Y-53245008D01*
X79705174Y-53245018D01*
X79705241Y-53245357D01*
X79702222Y-53461557D01*
X79702146Y-53461891D01*
X79702146Y-53461904D01*
X79660288Y-53646142D01*
X79583300Y-53819059D01*
X79474188Y-53973735D01*
X79337113Y-54104270D01*
X79177294Y-54205694D01*
X79000816Y-54274145D01*
X78814410Y-54307014D01*
X78625162Y-54303049D01*
X78440293Y-54262404D01*
X78266836Y-54186622D01*
X78111408Y-54078597D01*
X77979919Y-53942436D01*
X77877381Y-53783328D01*
X77807698Y-53607330D01*
X77773529Y-53421158D01*
X77776171Y-53231891D01*
X77815527Y-53046739D01*
X77890093Y-52872761D01*
X77997035Y-52716578D01*
X78132273Y-52584142D01*
X78290663Y-52480496D01*
X78466166Y-52409587D01*
X78652096Y-52374120D01*
X78841383Y-52375441D01*
X78841383Y-52375441D01*
G37*
G36*
X76301383Y-52375441D02*
X76486795Y-52413501D01*
X76661297Y-52486855D01*
X76818221Y-52592702D01*
X76951598Y-52727012D01*
X77056345Y-52884671D01*
X77128477Y-53059674D01*
X77165174Y-53245008D01*
X77165174Y-53245018D01*
X77165241Y-53245357D01*
X77162222Y-53461557D01*
X77162146Y-53461891D01*
X77162146Y-53461904D01*
X77120288Y-53646142D01*
X77043300Y-53819059D01*
X76934188Y-53973735D01*
X76797113Y-54104270D01*
X76637294Y-54205694D01*
X76460816Y-54274145D01*
X76274410Y-54307014D01*
X76085162Y-54303049D01*
X75900293Y-54262404D01*
X75726836Y-54186622D01*
X75571408Y-54078597D01*
X75439919Y-53942436D01*
X75337381Y-53783328D01*
X75267698Y-53607330D01*
X75233529Y-53421158D01*
X75236171Y-53231891D01*
X75275527Y-53046739D01*
X75350093Y-52872761D01*
X75457035Y-52716578D01*
X75592273Y-52584142D01*
X75750663Y-52480496D01*
X75926166Y-52409587D01*
X76112096Y-52374120D01*
X76301383Y-52375441D01*
X76301383Y-52375441D01*
G37*
G36*
X114401383Y-52375441D02*
X114586795Y-52413501D01*
X114761297Y-52486855D01*
X114918221Y-52592702D01*
X115051598Y-52727012D01*
X115156345Y-52884671D01*
X115228477Y-53059674D01*
X115265174Y-53245008D01*
X115265174Y-53245018D01*
X115265241Y-53245357D01*
X115262222Y-53461557D01*
X115262146Y-53461891D01*
X115262146Y-53461904D01*
X115220288Y-53646142D01*
X115143300Y-53819059D01*
X115034188Y-53973735D01*
X114897113Y-54104270D01*
X114737294Y-54205694D01*
X114560816Y-54274145D01*
X114374410Y-54307014D01*
X114185162Y-54303049D01*
X114000293Y-54262404D01*
X113826836Y-54186622D01*
X113671408Y-54078597D01*
X113539919Y-53942436D01*
X113437381Y-53783328D01*
X113367698Y-53607330D01*
X113333529Y-53421158D01*
X113336171Y-53231891D01*
X113375527Y-53046739D01*
X113450093Y-52872761D01*
X113557035Y-52716578D01*
X113692273Y-52584142D01*
X113850663Y-52480496D01*
X114026166Y-52409587D01*
X114212096Y-52374120D01*
X114401383Y-52375441D01*
X114401383Y-52375441D01*
G37*
G36*
X111861383Y-52375441D02*
X112046795Y-52413501D01*
X112221297Y-52486855D01*
X112378221Y-52592702D01*
X112511598Y-52727012D01*
X112616345Y-52884671D01*
X112688477Y-53059674D01*
X112725174Y-53245008D01*
X112725174Y-53245018D01*
X112725241Y-53245357D01*
X112722222Y-53461557D01*
X112722146Y-53461891D01*
X112722146Y-53461904D01*
X112680288Y-53646142D01*
X112603300Y-53819059D01*
X112494188Y-53973735D01*
X112357113Y-54104270D01*
X112197294Y-54205694D01*
X112020816Y-54274145D01*
X111834410Y-54307014D01*
X111645162Y-54303049D01*
X111460293Y-54262404D01*
X111286836Y-54186622D01*
X111131408Y-54078597D01*
X110999919Y-53942436D01*
X110897381Y-53783328D01*
X110827698Y-53607330D01*
X110793529Y-53421158D01*
X110796171Y-53231891D01*
X110835527Y-53046739D01*
X110910093Y-52872761D01*
X111017035Y-52716578D01*
X111152273Y-52584142D01*
X111310663Y-52480496D01*
X111486166Y-52409587D01*
X111672096Y-52374120D01*
X111861383Y-52375441D01*
X111861383Y-52375441D01*
G37*
G36*
X104382000Y-54217000D02*
X102128000Y-54217000D01*
X102128000Y-52463000D01*
X104382000Y-52463000D01*
X104382000Y-54217000D01*
X104382000Y-54217000D01*
G37*
G36*
X106555421Y-52463034D02*
X106562698Y-52463085D01*
X106732792Y-52482165D01*
X106895940Y-52533918D01*
X107045929Y-52616375D01*
X107177046Y-52726395D01*
X107284295Y-52859787D01*
X107363593Y-53011470D01*
X107411919Y-53175667D01*
X107411922Y-53175703D01*
X107411925Y-53175712D01*
X107427433Y-53346120D01*
X107409547Y-53516298D01*
X107409544Y-53516308D01*
X107409540Y-53516345D01*
X107358927Y-53679851D01*
X107277519Y-53830412D01*
X107168417Y-53962294D01*
X107035777Y-54070472D01*
X106884652Y-54150827D01*
X106720797Y-54200298D01*
X106550453Y-54217000D01*
X106039510Y-54217000D01*
X106034579Y-54216966D01*
X106027302Y-54216915D01*
X105857208Y-54197835D01*
X105694060Y-54146082D01*
X105544071Y-54063625D01*
X105412954Y-53953605D01*
X105305705Y-53820213D01*
X105226407Y-53668530D01*
X105178081Y-53504333D01*
X105178078Y-53504297D01*
X105178075Y-53504288D01*
X105162567Y-53333880D01*
X105180453Y-53163702D01*
X105180456Y-53163692D01*
X105180460Y-53163655D01*
X105231073Y-53000149D01*
X105312481Y-52849588D01*
X105421583Y-52717706D01*
X105554223Y-52609528D01*
X105705348Y-52529173D01*
X105869203Y-52479702D01*
X106039547Y-52463000D01*
X106550490Y-52463000D01*
X106555421Y-52463034D01*
X106555421Y-52463034D01*
G37*
G36*
X90142060Y-52326540D02*
X86387940Y-52326540D01*
X86387940Y-48572420D01*
X90142060Y-48572420D01*
X90142060Y-52326540D01*
X90142060Y-52326540D01*
G37*
G36*
X76301383Y-49835441D02*
X76486795Y-49873501D01*
X76661297Y-49946855D01*
X76818221Y-50052702D01*
X76951598Y-50187012D01*
X77056345Y-50344671D01*
X77128477Y-50519674D01*
X77165174Y-50705008D01*
X77165174Y-50705018D01*
X77165241Y-50705357D01*
X77162222Y-50921557D01*
X77162146Y-50921891D01*
X77162146Y-50921904D01*
X77120288Y-51106142D01*
X77043300Y-51279059D01*
X76934188Y-51433735D01*
X76797113Y-51564270D01*
X76637294Y-51665694D01*
X76460816Y-51734145D01*
X76274410Y-51767014D01*
X76085162Y-51763049D01*
X75900293Y-51722404D01*
X75726836Y-51646622D01*
X75571408Y-51538597D01*
X75439919Y-51402436D01*
X75337381Y-51243328D01*
X75267698Y-51067330D01*
X75233529Y-50881158D01*
X75236171Y-50691891D01*
X75275527Y-50506739D01*
X75350093Y-50332761D01*
X75457035Y-50176578D01*
X75592273Y-50044142D01*
X75750663Y-49940496D01*
X75926166Y-49869587D01*
X76112096Y-49834120D01*
X76301383Y-49835441D01*
X76301383Y-49835441D01*
G37*
G36*
X114401383Y-49835441D02*
X114586795Y-49873501D01*
X114761297Y-49946855D01*
X114918221Y-50052702D01*
X115051598Y-50187012D01*
X115156345Y-50344671D01*
X115228477Y-50519674D01*
X115265174Y-50705008D01*
X115265174Y-50705018D01*
X115265241Y-50705357D01*
X115262222Y-50921557D01*
X115262146Y-50921891D01*
X115262146Y-50921904D01*
X115220288Y-51106142D01*
X115143300Y-51279059D01*
X115034188Y-51433735D01*
X114897113Y-51564270D01*
X114737294Y-51665694D01*
X114560816Y-51734145D01*
X114374410Y-51767014D01*
X114185162Y-51763049D01*
X114000293Y-51722404D01*
X113826836Y-51646622D01*
X113671408Y-51538597D01*
X113539919Y-51402436D01*
X113437381Y-51243328D01*
X113367698Y-51067330D01*
X113333529Y-50881158D01*
X113336171Y-50691891D01*
X113375527Y-50506739D01*
X113450093Y-50332761D01*
X113557035Y-50176578D01*
X113692273Y-50044142D01*
X113850663Y-49940496D01*
X114026166Y-49869587D01*
X114212096Y-49834120D01*
X114401383Y-49835441D01*
X114401383Y-49835441D01*
G37*
G36*
X111861383Y-49835441D02*
X112046795Y-49873501D01*
X112221297Y-49946855D01*
X112378221Y-50052702D01*
X112511598Y-50187012D01*
X112616345Y-50344671D01*
X112688477Y-50519674D01*
X112725174Y-50705008D01*
X112725174Y-50705018D01*
X112725241Y-50705357D01*
X112722222Y-50921557D01*
X112722146Y-50921891D01*
X112722146Y-50921904D01*
X112680288Y-51106142D01*
X112603300Y-51279059D01*
X112494188Y-51433735D01*
X112357113Y-51564270D01*
X112197294Y-51665694D01*
X112020816Y-51734145D01*
X111834410Y-51767014D01*
X111645162Y-51763049D01*
X111460293Y-51722404D01*
X111286836Y-51646622D01*
X111131408Y-51538597D01*
X110999919Y-51402436D01*
X110897381Y-51243328D01*
X110827698Y-51067330D01*
X110793529Y-50881158D01*
X110796171Y-50691891D01*
X110835527Y-50506739D01*
X110910093Y-50332761D01*
X111017035Y-50176578D01*
X111152273Y-50044142D01*
X111310663Y-49940496D01*
X111486166Y-49869587D01*
X111672096Y-49834120D01*
X111861383Y-49835441D01*
X111861383Y-49835441D01*
G37*
G36*
X78841383Y-49835441D02*
X79026795Y-49873501D01*
X79201297Y-49946855D01*
X79358221Y-50052702D01*
X79491598Y-50187012D01*
X79596345Y-50344671D01*
X79668477Y-50519674D01*
X79705174Y-50705008D01*
X79705174Y-50705018D01*
X79705241Y-50705357D01*
X79702222Y-50921557D01*
X79702146Y-50921891D01*
X79702146Y-50921904D01*
X79660288Y-51106142D01*
X79583300Y-51279059D01*
X79474188Y-51433735D01*
X79337113Y-51564270D01*
X79177294Y-51665694D01*
X79000816Y-51734145D01*
X78814410Y-51767014D01*
X78625162Y-51763049D01*
X78440293Y-51722404D01*
X78266836Y-51646622D01*
X78111408Y-51538597D01*
X77979919Y-51402436D01*
X77877381Y-51243328D01*
X77807698Y-51067330D01*
X77773529Y-50881158D01*
X77776171Y-50691891D01*
X77815527Y-50506739D01*
X77890093Y-50332761D01*
X77997035Y-50176578D01*
X78132273Y-50044142D01*
X78290663Y-49940496D01*
X78466166Y-49869587D01*
X78652096Y-49834120D01*
X78841383Y-49835441D01*
X78841383Y-49835441D01*
G37*
G36*
X85443060Y-49326800D02*
X81688940Y-49326800D01*
X81688940Y-45572680D01*
X85443060Y-45572680D01*
X85443060Y-49326800D01*
X85443060Y-49326800D01*
G37*
G36*
X114499141Y-45226696D02*
X114499151Y-45226699D01*
X114499188Y-45226703D01*
X114683873Y-45283872D01*
X114853936Y-45375825D01*
X115002901Y-45499059D01*
X115125092Y-45648880D01*
X115215855Y-45819582D01*
X115271734Y-46004661D01*
X115290600Y-46197070D01*
X115290600Y-46512963D01*
X115290518Y-46524705D01*
X115290517Y-46524711D01*
X115290503Y-46526761D01*
X115268953Y-46718887D01*
X115210495Y-46903169D01*
X115117357Y-47072586D01*
X114993087Y-47220687D01*
X114842416Y-47341829D01*
X114671085Y-47431398D01*
X114485620Y-47485984D01*
X114485584Y-47485987D01*
X114485575Y-47485990D01*
X114293087Y-47503508D01*
X114100859Y-47483304D01*
X114100849Y-47483301D01*
X114100812Y-47483297D01*
X113916127Y-47426128D01*
X113746064Y-47334175D01*
X113597099Y-47210941D01*
X113474908Y-47061120D01*
X113384145Y-46890418D01*
X113328266Y-46705339D01*
X113309400Y-46512930D01*
X113309400Y-46197037D01*
X113309482Y-46185295D01*
X113309483Y-46185289D01*
X113309497Y-46183239D01*
X113331047Y-45991113D01*
X113389505Y-45806831D01*
X113482643Y-45637414D01*
X113606913Y-45489313D01*
X113757584Y-45368171D01*
X113928915Y-45278602D01*
X114114380Y-45224016D01*
X114114416Y-45224013D01*
X114114425Y-45224010D01*
X114306913Y-45206492D01*
X114499141Y-45226696D01*
X114499141Y-45226696D01*
G37*
G36*
X111959141Y-45226696D02*
X111959151Y-45226699D01*
X111959188Y-45226703D01*
X112143873Y-45283872D01*
X112313936Y-45375825D01*
X112462901Y-45499059D01*
X112585092Y-45648880D01*
X112675855Y-45819582D01*
X112731734Y-46004661D01*
X112750600Y-46197070D01*
X112750600Y-46512963D01*
X112750518Y-46524705D01*
X112750517Y-46524711D01*
X112750503Y-46526761D01*
X112728953Y-46718887D01*
X112670495Y-46903169D01*
X112577357Y-47072586D01*
X112453087Y-47220687D01*
X112302416Y-47341829D01*
X112131085Y-47431398D01*
X111945620Y-47485984D01*
X111945584Y-47485987D01*
X111945575Y-47485990D01*
X111753087Y-47503508D01*
X111560859Y-47483304D01*
X111560849Y-47483301D01*
X111560812Y-47483297D01*
X111376127Y-47426128D01*
X111206064Y-47334175D01*
X111057099Y-47210941D01*
X110934908Y-47061120D01*
X110844145Y-46890418D01*
X110788266Y-46705339D01*
X110769400Y-46512930D01*
X110769400Y-46197037D01*
X110769482Y-46185295D01*
X110769483Y-46185289D01*
X110769497Y-46183239D01*
X110791047Y-45991113D01*
X110849505Y-45806831D01*
X110942643Y-45637414D01*
X111066913Y-45489313D01*
X111217584Y-45368171D01*
X111388915Y-45278602D01*
X111574380Y-45224016D01*
X111574416Y-45224013D01*
X111574425Y-45224010D01*
X111766913Y-45206492D01*
X111959141Y-45226696D01*
X111959141Y-45226696D01*
G37*
G36*
X102464785Y-45229809D02*
X102464790Y-45229811D01*
X102464832Y-45229815D01*
X102677930Y-45295780D01*
X102874157Y-45401880D01*
X103046039Y-45544073D01*
X103187029Y-45716943D01*
X103291756Y-45913907D01*
X103356232Y-46127460D01*
X103378000Y-46349470D01*
X103378000Y-46360530D01*
X103377889Y-46376489D01*
X103353023Y-46598173D01*
X103285572Y-46810806D01*
X103178105Y-47006287D01*
X103034715Y-47177172D01*
X102860865Y-47316952D01*
X102663175Y-47420301D01*
X102449177Y-47483284D01*
X102449146Y-47483287D01*
X102449132Y-47483291D01*
X102227024Y-47503504D01*
X102005215Y-47480191D01*
X102005210Y-47480189D01*
X102005168Y-47480185D01*
X101792070Y-47414220D01*
X101595843Y-47308120D01*
X101423961Y-47165927D01*
X101282971Y-46993057D01*
X101178244Y-46796093D01*
X101113768Y-46582540D01*
X101092000Y-46360530D01*
X101092000Y-46349470D01*
X101092111Y-46333511D01*
X101116977Y-46111827D01*
X101184428Y-45899194D01*
X101291895Y-45703713D01*
X101435285Y-45532828D01*
X101609135Y-45393048D01*
X101806825Y-45289699D01*
X102020823Y-45226716D01*
X102020854Y-45226713D01*
X102020868Y-45226709D01*
X102242976Y-45206496D01*
X102464785Y-45229809D01*
X102464785Y-45229809D01*
G37*
G36*
X110210600Y-47498000D02*
X108229400Y-47498000D01*
X108229400Y-45212000D01*
X110210600Y-45212000D01*
X110210600Y-47498000D01*
X110210600Y-47498000D01*
G37*
G36*
X100838000Y-47498000D02*
X98552000Y-47498000D01*
X98552000Y-45212000D01*
X100838000Y-45212000D01*
X100838000Y-47498000D01*
X100838000Y-47498000D01*
G37*
G36*
X90142060Y-46327060D02*
X86387940Y-46327060D01*
X86387940Y-42572940D01*
X90142060Y-42572940D01*
X90142060Y-46327060D01*
X90142060Y-46327060D01*
G37*
G36*
X78925096Y-42394108D02*
X79245327Y-42459843D01*
X79546706Y-42586530D01*
X79817730Y-42769339D01*
X80048086Y-43001308D01*
X80228996Y-43273602D01*
X80353575Y-43575850D01*
X80417004Y-43896193D01*
X80417004Y-43896198D01*
X80417072Y-43896542D01*
X80411858Y-44269941D01*
X80411781Y-44270279D01*
X80411781Y-44270288D01*
X80339431Y-44588737D01*
X80206465Y-44887385D01*
X80018018Y-45154524D01*
X79781275Y-45379972D01*
X79505249Y-45555143D01*
X79200459Y-45673363D01*
X78878512Y-45730132D01*
X78551665Y-45723285D01*
X78232374Y-45653084D01*
X77932800Y-45522203D01*
X77664356Y-45335630D01*
X77437261Y-45100467D01*
X77260168Y-44825671D01*
X77139820Y-44521707D01*
X77080807Y-44200168D01*
X77085370Y-43873283D01*
X77153341Y-43553509D01*
X77282126Y-43253030D01*
X77466823Y-42983287D01*
X77700395Y-42754556D01*
X77973948Y-42575548D01*
X78277060Y-42453083D01*
X78598182Y-42391826D01*
X78925096Y-42394108D01*
X78925096Y-42394108D01*
G37*
M02*
