G04 #@! TF.FileFunction,Legend,Bot*
%FSLAX46Y46*%
G04 Gerber Fmt 4.6, Leading zero omitted, Abs format (unit mm)*
G04 Created by KiCad (PCBNEW Rev-6964-Dev Build) date Thu Sep  1 14:59:03 2016*
%MOMM*%
%LPD*%
G01*
G04 APERTURE LIST*
%ADD10C,0.100000*%
%ADD11C,0.254000*%
%ADD12C,0.150000*%
G04 APERTURE END LIST*
D10*
D11*
X101539523Y-41849523D02*
X101539523Y-42091428D01*
X101600000Y-42212380D01*
X101720952Y-42333333D01*
X101962857Y-42393809D01*
X102386190Y-42393809D01*
X102628095Y-42333333D01*
X102749047Y-42212380D01*
X102809523Y-42091428D01*
X102809523Y-41849523D01*
X102749047Y-41728571D01*
X102628095Y-41607619D01*
X102386190Y-41547142D01*
X101962857Y-41547142D01*
X101720952Y-41607619D01*
X101600000Y-41728571D01*
X101539523Y-41849523D01*
X101962857Y-42938095D02*
X102809523Y-42938095D01*
X102083809Y-42938095D02*
X102023333Y-42998571D01*
X101962857Y-43119523D01*
X101962857Y-43300952D01*
X102023333Y-43421904D01*
X102144285Y-43482380D01*
X102809523Y-43482380D01*
X99060000Y-41577380D02*
X98999523Y-41456428D01*
X98999523Y-41275000D01*
X99060000Y-41093571D01*
X99180952Y-40972619D01*
X99301904Y-40912142D01*
X99543809Y-40851666D01*
X99725238Y-40851666D01*
X99967142Y-40912142D01*
X100088095Y-40972619D01*
X100209047Y-41093571D01*
X100269523Y-41275000D01*
X100269523Y-41395952D01*
X100209047Y-41577380D01*
X100148571Y-41637857D01*
X99725238Y-41637857D01*
X99725238Y-41395952D01*
X100269523Y-42182142D02*
X98999523Y-42182142D01*
X100269523Y-42907857D01*
X98999523Y-42907857D01*
X100269523Y-43512619D02*
X98999523Y-43512619D01*
X98999523Y-43815000D01*
X99060000Y-43996428D01*
X99180952Y-44117380D01*
X99301904Y-44177857D01*
X99543809Y-44238333D01*
X99725238Y-44238333D01*
X99967142Y-44177857D01*
X100088095Y-44117380D01*
X100209047Y-43996428D01*
X100269523Y-43815000D01*
X100269523Y-43512619D01*
X114874523Y-41698333D02*
X114269761Y-41275000D01*
X114874523Y-40972619D02*
X113604523Y-40972619D01*
X113604523Y-41456428D01*
X113665000Y-41577380D01*
X113725476Y-41637857D01*
X113846428Y-41698333D01*
X114027857Y-41698333D01*
X114148809Y-41637857D01*
X114209285Y-41577380D01*
X114269761Y-41456428D01*
X114269761Y-40972619D01*
X113604523Y-42121666D02*
X114874523Y-42968333D01*
X113604523Y-42968333D02*
X114874523Y-42121666D01*
X114874523Y-43452142D02*
X113604523Y-43452142D01*
X113604523Y-43754523D01*
X113665000Y-43935952D01*
X113785952Y-44056904D01*
X113906904Y-44117380D01*
X114148809Y-44177857D01*
X114330238Y-44177857D01*
X114572142Y-44117380D01*
X114693095Y-44056904D01*
X114814047Y-43935952D01*
X114874523Y-43754523D01*
X114874523Y-43452142D01*
X111064523Y-40942380D02*
X111064523Y-41668095D01*
X112334523Y-41305238D02*
X111064523Y-41305238D01*
X111064523Y-41970476D02*
X112334523Y-42817142D01*
X111064523Y-42817142D02*
X112334523Y-41970476D01*
X112334523Y-43300952D02*
X111064523Y-43300952D01*
X111064523Y-43603333D01*
X111125000Y-43784761D01*
X111245952Y-43905714D01*
X111366904Y-43966190D01*
X111608809Y-44026666D01*
X111790238Y-44026666D01*
X112032142Y-43966190D01*
X112153095Y-43905714D01*
X112274047Y-43784761D01*
X112334523Y-43603333D01*
X112334523Y-43300952D01*
X108585000Y-41577380D02*
X108524523Y-41456428D01*
X108524523Y-41275000D01*
X108585000Y-41093571D01*
X108705952Y-40972619D01*
X108826904Y-40912142D01*
X109068809Y-40851666D01*
X109250238Y-40851666D01*
X109492142Y-40912142D01*
X109613095Y-40972619D01*
X109734047Y-41093571D01*
X109794523Y-41275000D01*
X109794523Y-41395952D01*
X109734047Y-41577380D01*
X109673571Y-41637857D01*
X109250238Y-41637857D01*
X109250238Y-41395952D01*
X109794523Y-42182142D02*
X108524523Y-42182142D01*
X109794523Y-42907857D01*
X108524523Y-42907857D01*
X109794523Y-43512619D02*
X108524523Y-43512619D01*
X108524523Y-43815000D01*
X108585000Y-43996428D01*
X108705952Y-44117380D01*
X108826904Y-44177857D01*
X109068809Y-44238333D01*
X109250238Y-44238333D01*
X109492142Y-44177857D01*
X109613095Y-44117380D01*
X109734047Y-43996428D01*
X109794523Y-43815000D01*
X109794523Y-43512619D01*
X101660476Y-99604285D02*
X101237142Y-99604285D01*
X101055714Y-100269523D02*
X101660476Y-100269523D01*
X101660476Y-98999523D01*
X101055714Y-98999523D01*
X99785714Y-100269523D02*
X100209047Y-99664761D01*
X100511428Y-100269523D02*
X100511428Y-98999523D01*
X100027619Y-98999523D01*
X99906666Y-99060000D01*
X99846190Y-99120476D01*
X99785714Y-99241428D01*
X99785714Y-99422857D01*
X99846190Y-99543809D01*
X99906666Y-99604285D01*
X100027619Y-99664761D01*
X100511428Y-99664761D01*
X99241428Y-99785714D02*
X98273809Y-99785714D01*
X97850476Y-98999523D02*
X97124761Y-98999523D01*
X97487619Y-100269523D02*
X97487619Y-98999523D01*
X96278095Y-99604285D02*
X96701428Y-99604285D01*
X96701428Y-100269523D02*
X96701428Y-98999523D01*
X96096666Y-98999523D01*
X95794285Y-98999523D02*
X95068571Y-98999523D01*
X95431428Y-100269523D02*
X95431428Y-98999523D01*
X94403333Y-98999523D02*
X94282380Y-98999523D01*
X94161428Y-99060000D01*
X94100952Y-99120476D01*
X94040476Y-99241428D01*
X93980000Y-99483333D01*
X93980000Y-99785714D01*
X94040476Y-100027619D01*
X94100952Y-100148571D01*
X94161428Y-100209047D01*
X94282380Y-100269523D01*
X94403333Y-100269523D01*
X94524285Y-100209047D01*
X94584761Y-100148571D01*
X94645238Y-100027619D01*
X94705714Y-99785714D01*
X94705714Y-99483333D01*
X94645238Y-99241428D01*
X94584761Y-99120476D01*
X94524285Y-99060000D01*
X94403333Y-98999523D01*
X92830952Y-98999523D02*
X93435714Y-98999523D01*
X93496190Y-99604285D01*
X93435714Y-99543809D01*
X93314761Y-99483333D01*
X93012380Y-99483333D01*
X92891428Y-99543809D01*
X92830952Y-99604285D01*
X92770476Y-99725238D01*
X92770476Y-100027619D01*
X92830952Y-100148571D01*
X92891428Y-100209047D01*
X93012380Y-100269523D01*
X93314761Y-100269523D01*
X93435714Y-100209047D01*
X93496190Y-100148571D01*
X91984285Y-98999523D02*
X91863333Y-98999523D01*
X91742380Y-99060000D01*
X91681904Y-99120476D01*
X91621428Y-99241428D01*
X91560952Y-99483333D01*
X91560952Y-99785714D01*
X91621428Y-100027619D01*
X91681904Y-100148571D01*
X91742380Y-100209047D01*
X91863333Y-100269523D01*
X91984285Y-100269523D01*
X92105238Y-100209047D01*
X92165714Y-100148571D01*
X92226190Y-100027619D01*
X92286666Y-99785714D01*
X92286666Y-99483333D01*
X92226190Y-99241428D01*
X92165714Y-99120476D01*
X92105238Y-99060000D01*
X91984285Y-98999523D01*
X91016666Y-99785714D02*
X90049047Y-99785714D01*
X89565238Y-98999523D02*
X88779047Y-98999523D01*
X89202380Y-99483333D01*
X89020952Y-99483333D01*
X88900000Y-99543809D01*
X88839523Y-99604285D01*
X88779047Y-99725238D01*
X88779047Y-100027619D01*
X88839523Y-100148571D01*
X88900000Y-100209047D01*
X89020952Y-100269523D01*
X89383809Y-100269523D01*
X89504761Y-100209047D01*
X89565238Y-100148571D01*
D12*
X107950000Y-101760000D02*
G75*
G02X107600000Y-102110000I-350000J0D01*
G01*
X82550000Y-101060000D02*
X82550000Y-101760000D01*
X107600000Y-100710000D02*
X82900000Y-100710000D01*
X107950000Y-101760000D02*
X107950000Y-101060000D01*
X107600000Y-102110000D02*
X82900000Y-102110000D01*
D10*
X107950000Y-101410000D02*
X82550000Y-101410000D01*
D12*
X82750000Y-100810000D02*
X107750000Y-100810000D01*
X82750000Y-97710000D02*
X82750000Y-100810000D01*
X107750000Y-97710000D02*
X107750000Y-100810000D01*
X107750000Y-97710000D02*
X82750000Y-97710000D01*
X82900000Y-102110000D02*
G75*
G02X82550000Y-101760000I0J350000D01*
G01*
X82550000Y-101060000D02*
G75*
G02X82900000Y-100710000I350000J0D01*
G01*
X107600000Y-100710000D02*
G75*
G02X107950000Y-101060000I0J-350000D01*
G01*
X96870000Y-66810000D02*
X96170000Y-66810000D01*
X96170000Y-67810000D02*
X96870000Y-67810000D01*
X104350000Y-95060000D02*
X103650000Y-95060000D01*
X103650000Y-96060000D02*
X104350000Y-96060000D01*
X108060000Y-96805000D02*
X108060000Y-97505000D01*
X109060000Y-97505000D02*
X109060000Y-96805000D01*
X109310000Y-96805000D02*
X109310000Y-97505000D01*
X110310000Y-97505000D02*
X110310000Y-96805000D01*
X94445000Y-66670000D02*
X94445000Y-66565000D01*
X98595000Y-66670000D02*
X98595000Y-66565000D01*
X98595000Y-56520000D02*
X98595000Y-56625000D01*
X94445000Y-56520000D02*
X94445000Y-56625000D01*
X94445000Y-66670000D02*
X98595000Y-66670000D01*
X94445000Y-56520000D02*
X98595000Y-56520000D01*
X94445000Y-66565000D02*
X93070000Y-66565000D01*
X81161000Y-59213000D02*
X81161000Y-59913000D01*
X82161000Y-59913000D02*
X82161000Y-59213000D01*
X86860000Y-59895000D02*
G75*
G03X86860000Y-59895000I-100000J0D01*
G01*
X86110000Y-60145000D02*
X86610000Y-60145000D01*
X86110000Y-63045000D02*
X86110000Y-60145000D01*
X86610000Y-63045000D02*
X86110000Y-63045000D01*
X86610000Y-60145000D02*
X86610000Y-63045000D01*
X85110000Y-57770000D02*
X85960000Y-57420000D01*
X87610000Y-57770000D02*
X86760000Y-57420000D01*
X86760000Y-59420000D02*
X87610000Y-59070000D01*
X85110000Y-59070000D02*
X85960000Y-59420000D01*
X86760000Y-59420000D02*
X85960000Y-59420000D01*
X87610000Y-57770000D02*
X87610000Y-59070000D01*
X85960000Y-57420000D02*
X86760000Y-57420000D01*
X85110000Y-59070000D02*
X85110000Y-57770000D01*
X86710000Y-63635000D02*
X86010000Y-63635000D01*
X86010000Y-64635000D02*
X86710000Y-64635000D01*
X82050000Y-70135000D02*
X82050000Y-70835000D01*
X83050000Y-70835000D02*
X83050000Y-70135000D01*
X82885000Y-64305400D02*
X82885000Y-64005400D01*
X82885000Y-64005400D02*
X82585000Y-64005400D01*
X83785000Y-62105400D02*
X83785000Y-64305400D01*
X83785000Y-64305400D02*
X82585000Y-64305400D01*
X82585000Y-64305400D02*
X82585000Y-62105400D01*
X82585000Y-62105400D02*
X83785000Y-62105400D01*
X82435000Y-60070000D02*
X82435000Y-59070000D01*
X83935000Y-59070000D02*
X83935000Y-60070000D01*
X89035000Y-61245000D02*
X89035000Y-61945000D01*
X90035000Y-61945000D02*
X90035000Y-61245000D01*
X89535000Y-58170000D02*
X89535000Y-57920000D01*
X89535000Y-58670000D02*
X89535000Y-58920000D01*
X89535000Y-58670000D02*
X89885000Y-58170000D01*
X89885000Y-58170000D02*
X89185000Y-58170000D01*
X89185000Y-58170000D02*
X89535000Y-58670000D01*
X89885000Y-58670000D02*
X89185000Y-58670000D01*
X88735000Y-59720000D02*
X88735000Y-57320000D01*
X90335000Y-59720000D02*
X90335000Y-57320000D01*
X93581220Y-77619860D02*
X93220540Y-79090520D01*
X93220540Y-79090520D02*
X92941140Y-78028800D01*
X92941140Y-78028800D02*
X92631260Y-79100680D01*
X92631260Y-79100680D02*
X92290900Y-77650340D01*
X95001080Y-78310740D02*
X94211140Y-78300580D01*
X94211140Y-78300580D02*
X94200980Y-78310740D01*
X94200980Y-78310740D02*
X94200980Y-78300580D01*
X94160340Y-77589380D02*
X94160340Y-79131160D01*
X95049340Y-77579220D02*
X95049340Y-79148940D01*
X95049340Y-79148940D02*
X95039180Y-79138780D01*
X95600520Y-77680820D02*
X95951040Y-77599540D01*
X95951040Y-77599540D02*
X96271080Y-77589380D01*
X96271080Y-77589380D02*
X96509840Y-77790040D01*
X96509840Y-77790040D02*
X96540320Y-78059280D01*
X96540320Y-78059280D02*
X96299020Y-78300580D01*
X96299020Y-78300580D02*
X95910400Y-78430120D01*
X95910400Y-78430120D02*
X95730060Y-78590140D01*
X95730060Y-78590140D02*
X95689420Y-78889860D01*
X95689420Y-78889860D02*
X95920560Y-79110840D01*
X95920560Y-79110840D02*
X96240600Y-79138780D01*
X96240600Y-79138780D02*
X96591120Y-79029560D01*
X97629980Y-77579220D02*
X97878900Y-77599540D01*
X97878900Y-77599540D02*
X98120200Y-77840840D01*
X98120200Y-77840840D02*
X98209100Y-78331060D01*
X98209100Y-78331060D02*
X98181160Y-78679040D01*
X98181160Y-78679040D02*
X97980500Y-78999080D01*
X97980500Y-78999080D02*
X97729040Y-79121000D01*
X97729040Y-79121000D02*
X97419160Y-79049880D01*
X97419160Y-79049880D02*
X97200720Y-78869540D01*
X97200720Y-78869540D02*
X97129600Y-78409800D01*
X97129600Y-78409800D02*
X97180400Y-78000860D01*
X97180400Y-78000860D02*
X97289620Y-77718920D01*
X97289620Y-77718920D02*
X97650300Y-77589380D01*
X97030540Y-75859640D02*
X97289620Y-76420980D01*
X97289620Y-76420980D02*
X96751140Y-76939140D01*
X96751140Y-76939140D02*
X96230440Y-76669900D01*
X96230440Y-76669900D02*
X95951040Y-76829920D01*
X94510860Y-76809600D02*
X94180660Y-76619100D01*
X94180660Y-76619100D02*
X93741240Y-76949300D01*
X93741240Y-76949300D02*
X93268800Y-76459080D01*
X93268800Y-76459080D02*
X93550740Y-75979020D01*
X93550740Y-75979020D02*
X93360240Y-75509120D01*
X93360240Y-75509120D02*
X92750640Y-75321160D01*
X92750640Y-75321160D02*
X92750640Y-74640440D01*
X92750640Y-74640440D02*
X93309440Y-74500740D01*
X93309440Y-74500740D02*
X93510100Y-73929240D01*
X93510100Y-73929240D02*
X93240860Y-73459340D01*
X93240860Y-73459340D02*
X93710760Y-72948800D01*
X93710760Y-72948800D02*
X94228920Y-73210420D01*
X94228920Y-73210420D02*
X94698820Y-73009760D01*
X94698820Y-73009760D02*
X94869000Y-72468740D01*
X94869000Y-72468740D02*
X95559880Y-72450960D01*
X95559880Y-72450960D02*
X95770700Y-72999600D01*
X95770700Y-72999600D02*
X96189800Y-73169780D01*
X96189800Y-73169780D02*
X96740980Y-72900540D01*
X96740980Y-72900540D02*
X97259140Y-73428860D01*
X97259140Y-73428860D02*
X97010220Y-73969880D01*
X97010220Y-73969880D02*
X97180400Y-74449940D01*
X97180400Y-74449940D02*
X97729040Y-74549000D01*
X97729040Y-74549000D02*
X97739200Y-75250040D01*
X97739200Y-75250040D02*
X97180400Y-75450700D01*
X97180400Y-75450700D02*
X97040700Y-75849480D01*
X94899480Y-75829160D02*
X94599760Y-75679300D01*
X94599760Y-75679300D02*
X94399100Y-75481180D01*
X94399100Y-75481180D02*
X94249240Y-75079860D01*
X94249240Y-75079860D02*
X94249240Y-74681080D01*
X94249240Y-74681080D02*
X94399100Y-74330560D01*
X94399100Y-74330560D02*
X94851220Y-73980040D01*
X94851220Y-73980040D02*
X95300800Y-73929240D01*
X95300800Y-73929240D02*
X95699580Y-74030840D01*
X95699580Y-74030840D02*
X96100900Y-74378820D01*
X96100900Y-74378820D02*
X96250760Y-74830940D01*
X96250760Y-74830940D02*
X96199960Y-75328780D01*
X96199960Y-75328780D02*
X95951040Y-75631040D01*
X95951040Y-75631040D02*
X95600520Y-75829160D01*
X95600520Y-75829160D02*
X95951040Y-76829920D01*
X94899480Y-75829160D02*
X94500700Y-76829920D01*
X96686666Y-69064142D02*
X96734285Y-69111761D01*
X96877142Y-69159380D01*
X96972380Y-69159380D01*
X97115238Y-69111761D01*
X97210476Y-69016523D01*
X97258095Y-68921285D01*
X97305714Y-68730809D01*
X97305714Y-68587952D01*
X97258095Y-68397476D01*
X97210476Y-68302238D01*
X97115238Y-68207000D01*
X96972380Y-68159380D01*
X96877142Y-68159380D01*
X96734285Y-68207000D01*
X96686666Y-68254619D01*
X95734285Y-69159380D02*
X96305714Y-69159380D01*
X96020000Y-69159380D02*
X96020000Y-68159380D01*
X96115238Y-68302238D01*
X96210476Y-68397476D01*
X96305714Y-68445095D01*
X106846666Y-95917142D02*
X106894285Y-95964761D01*
X107037142Y-96012380D01*
X107132380Y-96012380D01*
X107275238Y-95964761D01*
X107370476Y-95869523D01*
X107418095Y-95774285D01*
X107465714Y-95583809D01*
X107465714Y-95440952D01*
X107418095Y-95250476D01*
X107370476Y-95155238D01*
X107275238Y-95060000D01*
X107132380Y-95012380D01*
X107037142Y-95012380D01*
X106894285Y-95060000D01*
X106846666Y-95107619D01*
X106465714Y-95107619D02*
X106418095Y-95060000D01*
X106322857Y-95012380D01*
X106084761Y-95012380D01*
X105989523Y-95060000D01*
X105941904Y-95107619D01*
X105894285Y-95202857D01*
X105894285Y-95298095D01*
X105941904Y-95440952D01*
X106513333Y-96012380D01*
X105894285Y-96012380D01*
X108917142Y-99238333D02*
X108964761Y-99190714D01*
X109012380Y-99047857D01*
X109012380Y-98952619D01*
X108964761Y-98809761D01*
X108869523Y-98714523D01*
X108774285Y-98666904D01*
X108583809Y-98619285D01*
X108440952Y-98619285D01*
X108250476Y-98666904D01*
X108155238Y-98714523D01*
X108060000Y-98809761D01*
X108012380Y-98952619D01*
X108012380Y-99047857D01*
X108060000Y-99190714D01*
X108107619Y-99238333D01*
X108012380Y-99571666D02*
X108012380Y-100190714D01*
X108393333Y-99857380D01*
X108393333Y-100000238D01*
X108440952Y-100095476D01*
X108488571Y-100143095D01*
X108583809Y-100190714D01*
X108821904Y-100190714D01*
X108917142Y-100143095D01*
X108964761Y-100095476D01*
X109012380Y-100000238D01*
X109012380Y-99714523D01*
X108964761Y-99619285D01*
X108917142Y-99571666D01*
X110167142Y-99238333D02*
X110214761Y-99190714D01*
X110262380Y-99047857D01*
X110262380Y-98952619D01*
X110214761Y-98809761D01*
X110119523Y-98714523D01*
X110024285Y-98666904D01*
X109833809Y-98619285D01*
X109690952Y-98619285D01*
X109500476Y-98666904D01*
X109405238Y-98714523D01*
X109310000Y-98809761D01*
X109262380Y-98952619D01*
X109262380Y-99047857D01*
X109310000Y-99190714D01*
X109357619Y-99238333D01*
X109595714Y-100095476D02*
X110262380Y-100095476D01*
X109214761Y-99857380D02*
X109929047Y-99619285D01*
X109929047Y-100238333D01*
X97496190Y-56078380D02*
X97496190Y-55078380D01*
X96448571Y-55983142D02*
X96496190Y-56030761D01*
X96639047Y-56078380D01*
X96734285Y-56078380D01*
X96877142Y-56030761D01*
X96972380Y-55935523D01*
X97020000Y-55840285D01*
X97067619Y-55649809D01*
X97067619Y-55506952D01*
X97020000Y-55316476D01*
X96972380Y-55221238D01*
X96877142Y-55126000D01*
X96734285Y-55078380D01*
X96639047Y-55078380D01*
X96496190Y-55126000D01*
X96448571Y-55173619D01*
X95496190Y-56078380D02*
X96067619Y-56078380D01*
X95781904Y-56078380D02*
X95781904Y-55078380D01*
X95877142Y-55221238D01*
X95972380Y-55316476D01*
X96067619Y-55364095D01*
X82018142Y-56729333D02*
X82065761Y-56681714D01*
X82113380Y-56538857D01*
X82113380Y-56443619D01*
X82065761Y-56300761D01*
X81970523Y-56205523D01*
X81875285Y-56157904D01*
X81684809Y-56110285D01*
X81541952Y-56110285D01*
X81351476Y-56157904D01*
X81256238Y-56205523D01*
X81161000Y-56300761D01*
X81113380Y-56443619D01*
X81113380Y-56538857D01*
X81161000Y-56681714D01*
X81208619Y-56729333D01*
X81113380Y-57062666D02*
X81113380Y-57729333D01*
X82113380Y-57300761D01*
X86812380Y-60618809D02*
X85812380Y-60618809D01*
X86717142Y-61666428D02*
X86764761Y-61618809D01*
X86812380Y-61475952D01*
X86812380Y-61380714D01*
X86764761Y-61237857D01*
X86669523Y-61142619D01*
X86574285Y-61095000D01*
X86383809Y-61047380D01*
X86240952Y-61047380D01*
X86050476Y-61095000D01*
X85955238Y-61142619D01*
X85860000Y-61237857D01*
X85812380Y-61380714D01*
X85812380Y-61475952D01*
X85860000Y-61618809D01*
X85907619Y-61666428D01*
X85812380Y-61999761D02*
X85812380Y-62618809D01*
X86193333Y-62285476D01*
X86193333Y-62428333D01*
X86240952Y-62523571D01*
X86288571Y-62571190D01*
X86383809Y-62618809D01*
X86621904Y-62618809D01*
X86717142Y-62571190D01*
X86764761Y-62523571D01*
X86812380Y-62428333D01*
X86812380Y-62142619D01*
X86764761Y-62047380D01*
X86717142Y-61999761D01*
X86526666Y-56967380D02*
X87002857Y-56967380D01*
X87002857Y-55967380D01*
X85669523Y-56967380D02*
X86240952Y-56967380D01*
X85955238Y-56967380D02*
X85955238Y-55967380D01*
X86050476Y-56110238D01*
X86145714Y-56205476D01*
X86240952Y-56253095D01*
X86526666Y-65857380D02*
X86860000Y-65381190D01*
X87098095Y-65857380D02*
X87098095Y-64857380D01*
X86717142Y-64857380D01*
X86621904Y-64905000D01*
X86574285Y-64952619D01*
X86526666Y-65047857D01*
X86526666Y-65190714D01*
X86574285Y-65285952D01*
X86621904Y-65333571D01*
X86717142Y-65381190D01*
X87098095Y-65381190D01*
X85574285Y-65857380D02*
X86145714Y-65857380D01*
X85860000Y-65857380D02*
X85860000Y-64857380D01*
X85955238Y-65000238D01*
X86050476Y-65095476D01*
X86145714Y-65143095D01*
X81732380Y-70318333D02*
X81256190Y-69985000D01*
X81732380Y-69746904D02*
X80732380Y-69746904D01*
X80732380Y-70127857D01*
X80780000Y-70223095D01*
X80827619Y-70270714D01*
X80922857Y-70318333D01*
X81065714Y-70318333D01*
X81160952Y-70270714D01*
X81208571Y-70223095D01*
X81256190Y-70127857D01*
X81256190Y-69746904D01*
X80827619Y-70699285D02*
X80780000Y-70746904D01*
X80732380Y-70842142D01*
X80732380Y-71080238D01*
X80780000Y-71175476D01*
X80827619Y-71223095D01*
X80922857Y-71270714D01*
X81018095Y-71270714D01*
X81160952Y-71223095D01*
X81732380Y-70651666D01*
X81732380Y-71270714D01*
X84161190Y-65857380D02*
X84161190Y-64857380D01*
X83113571Y-65762142D02*
X83161190Y-65809761D01*
X83304047Y-65857380D01*
X83399285Y-65857380D01*
X83542142Y-65809761D01*
X83637380Y-65714523D01*
X83685000Y-65619285D01*
X83732619Y-65428809D01*
X83732619Y-65285952D01*
X83685000Y-65095476D01*
X83637380Y-65000238D01*
X83542142Y-64905000D01*
X83399285Y-64857380D01*
X83304047Y-64857380D01*
X83161190Y-64905000D01*
X83113571Y-64952619D01*
X82256428Y-65190714D02*
X82256428Y-65857380D01*
X82494523Y-64809761D02*
X82732619Y-65524047D01*
X82113571Y-65524047D01*
X83542142Y-56729333D02*
X83589761Y-56681714D01*
X83637380Y-56538857D01*
X83637380Y-56443619D01*
X83589761Y-56300761D01*
X83494523Y-56205523D01*
X83399285Y-56157904D01*
X83208809Y-56110285D01*
X83065952Y-56110285D01*
X82875476Y-56157904D01*
X82780238Y-56205523D01*
X82685000Y-56300761D01*
X82637380Y-56443619D01*
X82637380Y-56538857D01*
X82685000Y-56681714D01*
X82732619Y-56729333D01*
X82637380Y-57634095D02*
X82637380Y-57157904D01*
X83113571Y-57110285D01*
X83065952Y-57157904D01*
X83018333Y-57253142D01*
X83018333Y-57491238D01*
X83065952Y-57586476D01*
X83113571Y-57634095D01*
X83208809Y-57681714D01*
X83446904Y-57681714D01*
X83542142Y-57634095D01*
X83589761Y-57586476D01*
X83637380Y-57491238D01*
X83637380Y-57253142D01*
X83589761Y-57157904D01*
X83542142Y-57110285D01*
X91162142Y-61428333D02*
X91209761Y-61380714D01*
X91257380Y-61237857D01*
X91257380Y-61142619D01*
X91209761Y-60999761D01*
X91114523Y-60904523D01*
X91019285Y-60856904D01*
X90828809Y-60809285D01*
X90685952Y-60809285D01*
X90495476Y-60856904D01*
X90400238Y-60904523D01*
X90305000Y-60999761D01*
X90257380Y-61142619D01*
X90257380Y-61237857D01*
X90305000Y-61380714D01*
X90352619Y-61428333D01*
X90257380Y-62285476D02*
X90257380Y-62095000D01*
X90305000Y-61999761D01*
X90352619Y-61952142D01*
X90495476Y-61856904D01*
X90685952Y-61809285D01*
X91066904Y-61809285D01*
X91162142Y-61856904D01*
X91209761Y-61904523D01*
X91257380Y-61999761D01*
X91257380Y-62190238D01*
X91209761Y-62285476D01*
X91162142Y-62333095D01*
X91066904Y-62380714D01*
X90828809Y-62380714D01*
X90733571Y-62333095D01*
X90685952Y-62285476D01*
X90638333Y-62190238D01*
X90638333Y-61999761D01*
X90685952Y-61904523D01*
X90733571Y-61856904D01*
X90828809Y-61809285D01*
X91837380Y-57681904D02*
X90837380Y-57681904D01*
X90837380Y-57920000D01*
X90885000Y-58062857D01*
X90980238Y-58158095D01*
X91075476Y-58205714D01*
X91265952Y-58253333D01*
X91408809Y-58253333D01*
X91599285Y-58205714D01*
X91694523Y-58158095D01*
X91789761Y-58062857D01*
X91837380Y-57920000D01*
X91837380Y-57681904D01*
X91837380Y-59205714D02*
X91837380Y-58634285D01*
X91837380Y-58920000D02*
X90837380Y-58920000D01*
X90980238Y-58824761D01*
X91075476Y-58729523D01*
X91123095Y-58634285D01*
M02*
