M48
;DRILL file {KiCad Rev-6964-Dev Build} date Fri Sep  2 16:35:15 2016
;FORMAT={-:-/ absolute / inch / decimal}
FMAT,2
INCH,TZ
T1C0.013
T2C0.024
T3C0.036
T4C0.039
T5C0.039
T6C0.040
T7C0.121
%
G90
G05
M72
T1
X3.165Y-3.755
X3.1759Y-2.5164
X3.25Y-2.575
X3.25Y-2.865
X3.2618Y-3.8121
X3.275Y-2.35
X3.3Y-2.515
X3.3122Y-3.8167
X3.313Y-3.7608
X3.325Y-2.425
X3.35Y-2.245
X3.3748Y-3.798
X3.3962Y-2.525
X3.4Y-2.425
X3.4275Y-3.375
X3.4275Y-3.41
X3.4275Y-3.445
X3.4275Y-3.48
X3.4275Y-3.515
X3.45Y-2.925
X3.49Y-2.36
X3.5Y-2.975
X3.525Y-2.4288
X3.5675Y-3.55
X3.5675Y-3.585
X3.5675Y-3.62
X3.5675Y-3.655
X3.5675Y-3.69
X3.5675Y-3.725
X3.65Y-2.5
X3.65Y-2.6
X3.6502Y-2.5501
X3.725Y-3.41
X3.725Y-3.445
X3.725Y-3.48
X3.725Y-3.515
X3.725Y-3.55
X3.725Y-3.585
X3.725Y-3.62
X3.725Y-3.655
X3.725Y-3.69
X3.725Y-3.725
X3.725Y-3.76
X3.73Y-2.65
X3.75Y-2.25
X3.85Y-2.375
X3.875Y-3.1
X3.89Y-3.91
X3.93Y-3.91
X4.0748Y-3.8902
T2
X3.3Y-2.6
X3.3Y-2.65
X3.3Y-2.8
X3.35Y-2.6
X3.35Y-2.65
X3.35Y-2.8
X3.4Y-2.6
X3.4Y-2.65
X3.4Y-2.8
T3
X3.Y-2.
X3.Y-2.1
X3.Y-2.2
X3.Y-2.3
X3.Y-2.4
X3.Y-2.5
X3.Y-2.6
X3.Y-2.7
X3.Y-2.8
X3.Y-2.9
X3.Y-3.
X3.Y-3.1
X3.Y-3.2
X3.Y-3.3
X3.Y-3.4
X3.Y-3.5
X3.Y-3.6
X3.Y-3.7
X3.Y-3.8
X3.Y-3.9
X3.1Y-2.
X3.1Y-2.1
X3.1Y-2.2
X3.1Y-2.3
X3.1Y-2.4
X3.1Y-2.5
X3.1Y-2.6
X3.1Y-2.7
X3.1Y-2.8
X3.1Y-2.9
X3.1Y-3.
X3.1Y-3.1
X3.1Y-3.2
X3.1Y-3.3
X3.1Y-3.4
X3.1Y-3.5
X3.1Y-3.6
X3.1Y-3.7
X3.1Y-3.8
X3.1Y-3.9
X4.4Y-2.
X4.4Y-2.1
X4.4Y-2.2
X4.4Y-2.3
X4.4Y-2.4
X4.4Y-2.5
X4.4Y-2.6
X4.4Y-2.7
X4.4Y-2.8
X4.4Y-2.9
X4.4Y-3.
X4.4Y-3.1
X4.4Y-3.2
X4.4Y-3.3
X4.4Y-3.4
X4.4Y-3.5
X4.4Y-3.6
X4.4Y-3.7
X4.4Y-3.8
X4.4Y-3.9
X4.5Y-2.
X4.5Y-2.1
X4.5Y-2.2
X4.5Y-2.3
X4.5Y-2.4
X4.5Y-2.5
X4.5Y-2.6
X4.5Y-2.7
X4.5Y-2.8
X4.5Y-2.9
X4.5Y-3.
X4.5Y-3.1
X4.5Y-3.2
X4.5Y-3.3
X4.5Y-3.4
X4.5Y-3.5
X4.5Y-3.6
X4.5Y-3.7
X4.5Y-3.8
X4.5Y-3.9
T4
X4.075Y-2.1
X4.075Y-2.2
X4.075Y-2.3
X4.075Y-2.4
X4.075Y-2.5
X4.075Y-2.6
X4.075Y-2.7
X4.075Y-2.8
X4.075Y-2.9
X4.075Y-3.
X4.075Y-3.1
X4.075Y-3.2
X4.075Y-3.3
X4.075Y-3.4
X4.075Y-3.5
X4.075Y-3.6
X4.075Y-3.7
X4.175Y-2.1
X4.175Y-2.2
X4.175Y-2.3
X4.175Y-2.4
X4.175Y-2.5
X4.175Y-2.6
X4.175Y-2.7
X4.175Y-2.8
X4.175Y-2.9
X4.175Y-3.
X4.175Y-3.1
X4.175Y-3.2
X4.175Y-3.3
X4.175Y-3.4
X4.175Y-3.5
X4.175Y-3.6
X4.175Y-3.7
T6
X3.925Y-1.825
X4.025Y-1.825
X4.3Y-1.825
X4.4Y-1.825
X4.5Y-1.825
T7
X3.1004Y-1.7346
T5
X3.29Y-1.8287G85X3.29Y-1.9074
G05
X3.5143Y-1.75G85X3.4356Y-1.75
G05
X3.5143Y-1.9862G85X3.4356Y-1.9862
G05
T0
M30
