G04 #@! TF.FileFunction,Legend,Bot*
%FSLAX46Y46*%
G04 Gerber Fmt 4.6, Leading zero omitted, Abs format (unit mm)*
G04 Created by KiCad (PCBNEW Rev-6964-Dev Build) date Fri Sep  2 16:35:00 2016*
%MOMM*%
%LPD*%
G01*
G04 APERTURE LIST*
%ADD10C,0.100000*%
%ADD11C,0.254000*%
%ADD12C,0.150000*%
G04 APERTURE END LIST*
D10*
D11*
X101539523Y-41849523D02*
X101539523Y-42091428D01*
X101600000Y-42212380D01*
X101720952Y-42333333D01*
X101962857Y-42393809D01*
X102386190Y-42393809D01*
X102628095Y-42333333D01*
X102749047Y-42212380D01*
X102809523Y-42091428D01*
X102809523Y-41849523D01*
X102749047Y-41728571D01*
X102628095Y-41607619D01*
X102386190Y-41547142D01*
X101962857Y-41547142D01*
X101720952Y-41607619D01*
X101600000Y-41728571D01*
X101539523Y-41849523D01*
X101962857Y-42938095D02*
X102809523Y-42938095D01*
X102083809Y-42938095D02*
X102023333Y-42998571D01*
X101962857Y-43119523D01*
X101962857Y-43300952D01*
X102023333Y-43421904D01*
X102144285Y-43482380D01*
X102809523Y-43482380D01*
X99060000Y-41577380D02*
X98999523Y-41456428D01*
X98999523Y-41275000D01*
X99060000Y-41093571D01*
X99180952Y-40972619D01*
X99301904Y-40912142D01*
X99543809Y-40851666D01*
X99725238Y-40851666D01*
X99967142Y-40912142D01*
X100088095Y-40972619D01*
X100209047Y-41093571D01*
X100269523Y-41275000D01*
X100269523Y-41395952D01*
X100209047Y-41577380D01*
X100148571Y-41637857D01*
X99725238Y-41637857D01*
X99725238Y-41395952D01*
X100269523Y-42182142D02*
X98999523Y-42182142D01*
X100269523Y-42907857D01*
X98999523Y-42907857D01*
X100269523Y-43512619D02*
X98999523Y-43512619D01*
X98999523Y-43815000D01*
X99060000Y-43996428D01*
X99180952Y-44117380D01*
X99301904Y-44177857D01*
X99543809Y-44238333D01*
X99725238Y-44238333D01*
X99967142Y-44177857D01*
X100088095Y-44117380D01*
X100209047Y-43996428D01*
X100269523Y-43815000D01*
X100269523Y-43512619D01*
X114874523Y-41698333D02*
X114269761Y-41275000D01*
X114874523Y-40972619D02*
X113604523Y-40972619D01*
X113604523Y-41456428D01*
X113665000Y-41577380D01*
X113725476Y-41637857D01*
X113846428Y-41698333D01*
X114027857Y-41698333D01*
X114148809Y-41637857D01*
X114209285Y-41577380D01*
X114269761Y-41456428D01*
X114269761Y-40972619D01*
X113604523Y-42121666D02*
X114874523Y-42968333D01*
X113604523Y-42968333D02*
X114874523Y-42121666D01*
X114874523Y-43452142D02*
X113604523Y-43452142D01*
X113604523Y-43754523D01*
X113665000Y-43935952D01*
X113785952Y-44056904D01*
X113906904Y-44117380D01*
X114148809Y-44177857D01*
X114330238Y-44177857D01*
X114572142Y-44117380D01*
X114693095Y-44056904D01*
X114814047Y-43935952D01*
X114874523Y-43754523D01*
X114874523Y-43452142D01*
X111064523Y-40942380D02*
X111064523Y-41668095D01*
X112334523Y-41305238D02*
X111064523Y-41305238D01*
X111064523Y-41970476D02*
X112334523Y-42817142D01*
X111064523Y-42817142D02*
X112334523Y-41970476D01*
X112334523Y-43300952D02*
X111064523Y-43300952D01*
X111064523Y-43603333D01*
X111125000Y-43784761D01*
X111245952Y-43905714D01*
X111366904Y-43966190D01*
X111608809Y-44026666D01*
X111790238Y-44026666D01*
X112032142Y-43966190D01*
X112153095Y-43905714D01*
X112274047Y-43784761D01*
X112334523Y-43603333D01*
X112334523Y-43300952D01*
X108585000Y-41577380D02*
X108524523Y-41456428D01*
X108524523Y-41275000D01*
X108585000Y-41093571D01*
X108705952Y-40972619D01*
X108826904Y-40912142D01*
X109068809Y-40851666D01*
X109250238Y-40851666D01*
X109492142Y-40912142D01*
X109613095Y-40972619D01*
X109734047Y-41093571D01*
X109794523Y-41275000D01*
X109794523Y-41395952D01*
X109734047Y-41577380D01*
X109673571Y-41637857D01*
X109250238Y-41637857D01*
X109250238Y-41395952D01*
X109794523Y-42182142D02*
X108524523Y-42182142D01*
X109794523Y-42907857D01*
X108524523Y-42907857D01*
X109794523Y-43512619D02*
X108524523Y-43512619D01*
X108524523Y-43815000D01*
X108585000Y-43996428D01*
X108705952Y-44117380D01*
X108826904Y-44177857D01*
X109068809Y-44238333D01*
X109250238Y-44238333D01*
X109492142Y-44177857D01*
X109613095Y-44117380D01*
X109734047Y-43996428D01*
X109794523Y-43815000D01*
X109794523Y-43512619D01*
X101660476Y-99604285D02*
X101237142Y-99604285D01*
X101055714Y-100269523D02*
X101660476Y-100269523D01*
X101660476Y-98999523D01*
X101055714Y-98999523D01*
X99785714Y-100269523D02*
X100209047Y-99664761D01*
X100511428Y-100269523D02*
X100511428Y-98999523D01*
X100027619Y-98999523D01*
X99906666Y-99060000D01*
X99846190Y-99120476D01*
X99785714Y-99241428D01*
X99785714Y-99422857D01*
X99846190Y-99543809D01*
X99906666Y-99604285D01*
X100027619Y-99664761D01*
X100511428Y-99664761D01*
X99241428Y-99785714D02*
X98273809Y-99785714D01*
X97850476Y-98999523D02*
X97124761Y-98999523D01*
X97487619Y-100269523D02*
X97487619Y-98999523D01*
X96278095Y-99604285D02*
X96701428Y-99604285D01*
X96701428Y-100269523D02*
X96701428Y-98999523D01*
X96096666Y-98999523D01*
X95794285Y-98999523D02*
X95068571Y-98999523D01*
X95431428Y-100269523D02*
X95431428Y-98999523D01*
X94403333Y-98999523D02*
X94282380Y-98999523D01*
X94161428Y-99060000D01*
X94100952Y-99120476D01*
X94040476Y-99241428D01*
X93980000Y-99483333D01*
X93980000Y-99785714D01*
X94040476Y-100027619D01*
X94100952Y-100148571D01*
X94161428Y-100209047D01*
X94282380Y-100269523D01*
X94403333Y-100269523D01*
X94524285Y-100209047D01*
X94584761Y-100148571D01*
X94645238Y-100027619D01*
X94705714Y-99785714D01*
X94705714Y-99483333D01*
X94645238Y-99241428D01*
X94584761Y-99120476D01*
X94524285Y-99060000D01*
X94403333Y-98999523D01*
X92830952Y-98999523D02*
X93435714Y-98999523D01*
X93496190Y-99604285D01*
X93435714Y-99543809D01*
X93314761Y-99483333D01*
X93012380Y-99483333D01*
X92891428Y-99543809D01*
X92830952Y-99604285D01*
X92770476Y-99725238D01*
X92770476Y-100027619D01*
X92830952Y-100148571D01*
X92891428Y-100209047D01*
X93012380Y-100269523D01*
X93314761Y-100269523D01*
X93435714Y-100209047D01*
X93496190Y-100148571D01*
X91984285Y-98999523D02*
X91863333Y-98999523D01*
X91742380Y-99060000D01*
X91681904Y-99120476D01*
X91621428Y-99241428D01*
X91560952Y-99483333D01*
X91560952Y-99785714D01*
X91621428Y-100027619D01*
X91681904Y-100148571D01*
X91742380Y-100209047D01*
X91863333Y-100269523D01*
X91984285Y-100269523D01*
X92105238Y-100209047D01*
X92165714Y-100148571D01*
X92226190Y-100027619D01*
X92286666Y-99785714D01*
X92286666Y-99483333D01*
X92226190Y-99241428D01*
X92165714Y-99120476D01*
X92105238Y-99060000D01*
X91984285Y-98999523D01*
X91016666Y-99785714D02*
X90049047Y-99785714D01*
X89565238Y-98999523D02*
X88779047Y-98999523D01*
X89202380Y-99483333D01*
X89020952Y-99483333D01*
X88900000Y-99543809D01*
X88839523Y-99604285D01*
X88779047Y-99725238D01*
X88779047Y-100027619D01*
X88839523Y-100148571D01*
X88900000Y-100209047D01*
X89020952Y-100269523D01*
X89383809Y-100269523D01*
X89504761Y-100209047D01*
X89565238Y-100148571D01*
D12*
X107950000Y-101760000D02*
G75*
G02X107600000Y-102110000I-350000J0D01*
G01*
X82550000Y-101060000D02*
X82550000Y-101760000D01*
X107600000Y-100710000D02*
X82900000Y-100710000D01*
X107950000Y-101760000D02*
X107950000Y-101060000D01*
X107600000Y-102110000D02*
X82900000Y-102110000D01*
D10*
X107950000Y-101410000D02*
X82550000Y-101410000D01*
D12*
X82750000Y-100810000D02*
X107750000Y-100810000D01*
X82750000Y-97710000D02*
X82750000Y-100810000D01*
X107750000Y-97710000D02*
X107750000Y-100810000D01*
X107750000Y-97710000D02*
X82750000Y-97710000D01*
X82900000Y-102110000D02*
G75*
G02X82550000Y-101760000I0J350000D01*
G01*
X82550000Y-101060000D02*
G75*
G02X82900000Y-100710000I350000J0D01*
G01*
X107600000Y-100710000D02*
G75*
G02X107950000Y-101060000I0J-350000D01*
G01*
X96870000Y-66810000D02*
X96170000Y-66810000D01*
X96170000Y-67810000D02*
X96870000Y-67810000D01*
X104350000Y-95060000D02*
X103650000Y-95060000D01*
X103650000Y-96060000D02*
X104350000Y-96060000D01*
X108060000Y-96805000D02*
X108060000Y-97505000D01*
X109060000Y-97505000D02*
X109060000Y-96805000D01*
X109310000Y-96805000D02*
X109310000Y-97505000D01*
X110310000Y-97505000D02*
X110310000Y-96805000D01*
X94445000Y-66670000D02*
X94445000Y-66565000D01*
X98595000Y-66670000D02*
X98595000Y-66565000D01*
X98595000Y-56520000D02*
X98595000Y-56625000D01*
X94445000Y-56520000D02*
X94445000Y-56625000D01*
X94445000Y-66670000D02*
X98595000Y-66670000D01*
X94445000Y-56520000D02*
X98595000Y-56520000D01*
X94445000Y-66565000D02*
X93070000Y-66565000D01*
X81161000Y-59213000D02*
X81161000Y-59913000D01*
X82161000Y-59913000D02*
X82161000Y-59213000D01*
X86860000Y-59895000D02*
G75*
G03X86860000Y-59895000I-100000J0D01*
G01*
X86110000Y-60145000D02*
X86610000Y-60145000D01*
X86110000Y-63045000D02*
X86110000Y-60145000D01*
X86610000Y-63045000D02*
X86110000Y-63045000D01*
X86610000Y-60145000D02*
X86610000Y-63045000D01*
X85110000Y-57770000D02*
X85960000Y-57420000D01*
X87610000Y-57770000D02*
X86760000Y-57420000D01*
X86760000Y-59420000D02*
X87610000Y-59070000D01*
X85110000Y-59070000D02*
X85960000Y-59420000D01*
X86760000Y-59420000D02*
X85960000Y-59420000D01*
X87610000Y-57770000D02*
X87610000Y-59070000D01*
X85960000Y-57420000D02*
X86760000Y-57420000D01*
X85110000Y-59070000D02*
X85110000Y-57770000D01*
X86710000Y-63635000D02*
X86010000Y-63635000D01*
X86010000Y-64635000D02*
X86710000Y-64635000D01*
X82415000Y-71470000D02*
X82415000Y-70770000D01*
X81415000Y-70770000D02*
X81415000Y-71470000D01*
X82885000Y-64305400D02*
X82885000Y-64005400D01*
X82885000Y-64005400D02*
X82585000Y-64005400D01*
X83785000Y-62105400D02*
X83785000Y-64305400D01*
X83785000Y-64305400D02*
X82585000Y-64305400D01*
X82585000Y-64305400D02*
X82585000Y-62105400D01*
X82585000Y-62105400D02*
X83785000Y-62105400D01*
X82435000Y-60070000D02*
X82435000Y-59070000D01*
X83935000Y-59070000D02*
X83935000Y-60070000D01*
X89035000Y-61245000D02*
X89035000Y-61945000D01*
X90035000Y-61945000D02*
X90035000Y-61245000D01*
X89535000Y-58170000D02*
X89535000Y-57920000D01*
X89535000Y-58670000D02*
X89535000Y-58920000D01*
X89535000Y-58670000D02*
X89885000Y-58170000D01*
X89885000Y-58170000D02*
X89185000Y-58170000D01*
X89185000Y-58170000D02*
X89535000Y-58670000D01*
X89885000Y-58670000D02*
X89185000Y-58670000D01*
X88735000Y-59720000D02*
X88735000Y-57320000D01*
X90335000Y-59720000D02*
X90335000Y-57320000D01*
X93581220Y-76349860D02*
X93220540Y-77820520D01*
X93220540Y-77820520D02*
X92941140Y-76758800D01*
X92941140Y-76758800D02*
X92631260Y-77830680D01*
X92631260Y-77830680D02*
X92290900Y-76380340D01*
X95001080Y-77040740D02*
X94211140Y-77030580D01*
X94211140Y-77030580D02*
X94200980Y-77040740D01*
X94200980Y-77040740D02*
X94200980Y-77030580D01*
X94160340Y-76319380D02*
X94160340Y-77861160D01*
X95049340Y-76309220D02*
X95049340Y-77878940D01*
X95049340Y-77878940D02*
X95039180Y-77868780D01*
X95600520Y-76410820D02*
X95951040Y-76329540D01*
X95951040Y-76329540D02*
X96271080Y-76319380D01*
X96271080Y-76319380D02*
X96509840Y-76520040D01*
X96509840Y-76520040D02*
X96540320Y-76789280D01*
X96540320Y-76789280D02*
X96299020Y-77030580D01*
X96299020Y-77030580D02*
X95910400Y-77160120D01*
X95910400Y-77160120D02*
X95730060Y-77320140D01*
X95730060Y-77320140D02*
X95689420Y-77619860D01*
X95689420Y-77619860D02*
X95920560Y-77840840D01*
X95920560Y-77840840D02*
X96240600Y-77868780D01*
X96240600Y-77868780D02*
X96591120Y-77759560D01*
X97629980Y-76309220D02*
X97878900Y-76329540D01*
X97878900Y-76329540D02*
X98120200Y-76570840D01*
X98120200Y-76570840D02*
X98209100Y-77061060D01*
X98209100Y-77061060D02*
X98181160Y-77409040D01*
X98181160Y-77409040D02*
X97980500Y-77729080D01*
X97980500Y-77729080D02*
X97729040Y-77851000D01*
X97729040Y-77851000D02*
X97419160Y-77779880D01*
X97419160Y-77779880D02*
X97200720Y-77599540D01*
X97200720Y-77599540D02*
X97129600Y-77139800D01*
X97129600Y-77139800D02*
X97180400Y-76730860D01*
X97180400Y-76730860D02*
X97289620Y-76448920D01*
X97289620Y-76448920D02*
X97650300Y-76319380D01*
X97030540Y-74589640D02*
X97289620Y-75150980D01*
X97289620Y-75150980D02*
X96751140Y-75669140D01*
X96751140Y-75669140D02*
X96230440Y-75399900D01*
X96230440Y-75399900D02*
X95951040Y-75559920D01*
X94510860Y-75539600D02*
X94180660Y-75349100D01*
X94180660Y-75349100D02*
X93741240Y-75679300D01*
X93741240Y-75679300D02*
X93268800Y-75189080D01*
X93268800Y-75189080D02*
X93550740Y-74709020D01*
X93550740Y-74709020D02*
X93360240Y-74239120D01*
X93360240Y-74239120D02*
X92750640Y-74051160D01*
X92750640Y-74051160D02*
X92750640Y-73370440D01*
X92750640Y-73370440D02*
X93309440Y-73230740D01*
X93309440Y-73230740D02*
X93510100Y-72659240D01*
X93510100Y-72659240D02*
X93240860Y-72189340D01*
X93240860Y-72189340D02*
X93710760Y-71678800D01*
X93710760Y-71678800D02*
X94228920Y-71940420D01*
X94228920Y-71940420D02*
X94698820Y-71739760D01*
X94698820Y-71739760D02*
X94869000Y-71198740D01*
X94869000Y-71198740D02*
X95559880Y-71180960D01*
X95559880Y-71180960D02*
X95770700Y-71729600D01*
X95770700Y-71729600D02*
X96189800Y-71899780D01*
X96189800Y-71899780D02*
X96740980Y-71630540D01*
X96740980Y-71630540D02*
X97259140Y-72158860D01*
X97259140Y-72158860D02*
X97010220Y-72699880D01*
X97010220Y-72699880D02*
X97180400Y-73179940D01*
X97180400Y-73179940D02*
X97729040Y-73279000D01*
X97729040Y-73279000D02*
X97739200Y-73980040D01*
X97739200Y-73980040D02*
X97180400Y-74180700D01*
X97180400Y-74180700D02*
X97040700Y-74579480D01*
X94899480Y-74559160D02*
X94599760Y-74409300D01*
X94599760Y-74409300D02*
X94399100Y-74211180D01*
X94399100Y-74211180D02*
X94249240Y-73809860D01*
X94249240Y-73809860D02*
X94249240Y-73411080D01*
X94249240Y-73411080D02*
X94399100Y-73060560D01*
X94399100Y-73060560D02*
X94851220Y-72710040D01*
X94851220Y-72710040D02*
X95300800Y-72659240D01*
X95300800Y-72659240D02*
X95699580Y-72760840D01*
X95699580Y-72760840D02*
X96100900Y-73108820D01*
X96100900Y-73108820D02*
X96250760Y-73560940D01*
X96250760Y-73560940D02*
X96199960Y-74058780D01*
X96199960Y-74058780D02*
X95951040Y-74361040D01*
X95951040Y-74361040D02*
X95600520Y-74559160D01*
X95600520Y-74559160D02*
X95951040Y-75559920D01*
X94899480Y-74559160D02*
X94500700Y-75559920D01*
X96686666Y-69064142D02*
X96734285Y-69111761D01*
X96877142Y-69159380D01*
X96972380Y-69159380D01*
X97115238Y-69111761D01*
X97210476Y-69016523D01*
X97258095Y-68921285D01*
X97305714Y-68730809D01*
X97305714Y-68587952D01*
X97258095Y-68397476D01*
X97210476Y-68302238D01*
X97115238Y-68207000D01*
X96972380Y-68159380D01*
X96877142Y-68159380D01*
X96734285Y-68207000D01*
X96686666Y-68254619D01*
X95734285Y-69159380D02*
X96305714Y-69159380D01*
X96020000Y-69159380D02*
X96020000Y-68159380D01*
X96115238Y-68302238D01*
X96210476Y-68397476D01*
X96305714Y-68445095D01*
X106846666Y-95917142D02*
X106894285Y-95964761D01*
X107037142Y-96012380D01*
X107132380Y-96012380D01*
X107275238Y-95964761D01*
X107370476Y-95869523D01*
X107418095Y-95774285D01*
X107465714Y-95583809D01*
X107465714Y-95440952D01*
X107418095Y-95250476D01*
X107370476Y-95155238D01*
X107275238Y-95060000D01*
X107132380Y-95012380D01*
X107037142Y-95012380D01*
X106894285Y-95060000D01*
X106846666Y-95107619D01*
X106465714Y-95107619D02*
X106418095Y-95060000D01*
X106322857Y-95012380D01*
X106084761Y-95012380D01*
X105989523Y-95060000D01*
X105941904Y-95107619D01*
X105894285Y-95202857D01*
X105894285Y-95298095D01*
X105941904Y-95440952D01*
X106513333Y-96012380D01*
X105894285Y-96012380D01*
X108917142Y-99238333D02*
X108964761Y-99190714D01*
X109012380Y-99047857D01*
X109012380Y-98952619D01*
X108964761Y-98809761D01*
X108869523Y-98714523D01*
X108774285Y-98666904D01*
X108583809Y-98619285D01*
X108440952Y-98619285D01*
X108250476Y-98666904D01*
X108155238Y-98714523D01*
X108060000Y-98809761D01*
X108012380Y-98952619D01*
X108012380Y-99047857D01*
X108060000Y-99190714D01*
X108107619Y-99238333D01*
X108012380Y-99571666D02*
X108012380Y-100190714D01*
X108393333Y-99857380D01*
X108393333Y-100000238D01*
X108440952Y-100095476D01*
X108488571Y-100143095D01*
X108583809Y-100190714D01*
X108821904Y-100190714D01*
X108917142Y-100143095D01*
X108964761Y-100095476D01*
X109012380Y-100000238D01*
X109012380Y-99714523D01*
X108964761Y-99619285D01*
X108917142Y-99571666D01*
X110167142Y-99238333D02*
X110214761Y-99190714D01*
X110262380Y-99047857D01*
X110262380Y-98952619D01*
X110214761Y-98809761D01*
X110119523Y-98714523D01*
X110024285Y-98666904D01*
X109833809Y-98619285D01*
X109690952Y-98619285D01*
X109500476Y-98666904D01*
X109405238Y-98714523D01*
X109310000Y-98809761D01*
X109262380Y-98952619D01*
X109262380Y-99047857D01*
X109310000Y-99190714D01*
X109357619Y-99238333D01*
X109595714Y-100095476D02*
X110262380Y-100095476D01*
X109214761Y-99857380D02*
X109929047Y-99619285D01*
X109929047Y-100238333D01*
X97496190Y-56078380D02*
X97496190Y-55078380D01*
X96448571Y-55983142D02*
X96496190Y-56030761D01*
X96639047Y-56078380D01*
X96734285Y-56078380D01*
X96877142Y-56030761D01*
X96972380Y-55935523D01*
X97020000Y-55840285D01*
X97067619Y-55649809D01*
X97067619Y-55506952D01*
X97020000Y-55316476D01*
X96972380Y-55221238D01*
X96877142Y-55126000D01*
X96734285Y-55078380D01*
X96639047Y-55078380D01*
X96496190Y-55126000D01*
X96448571Y-55173619D01*
X95496190Y-56078380D02*
X96067619Y-56078380D01*
X95781904Y-56078380D02*
X95781904Y-55078380D01*
X95877142Y-55221238D01*
X95972380Y-55316476D01*
X96067619Y-55364095D01*
X82018142Y-56729333D02*
X82065761Y-56681714D01*
X82113380Y-56538857D01*
X82113380Y-56443619D01*
X82065761Y-56300761D01*
X81970523Y-56205523D01*
X81875285Y-56157904D01*
X81684809Y-56110285D01*
X81541952Y-56110285D01*
X81351476Y-56157904D01*
X81256238Y-56205523D01*
X81161000Y-56300761D01*
X81113380Y-56443619D01*
X81113380Y-56538857D01*
X81161000Y-56681714D01*
X81208619Y-56729333D01*
X81113380Y-57062666D02*
X81113380Y-57729333D01*
X82113380Y-57300761D01*
X86812380Y-60618809D02*
X85812380Y-60618809D01*
X86717142Y-61666428D02*
X86764761Y-61618809D01*
X86812380Y-61475952D01*
X86812380Y-61380714D01*
X86764761Y-61237857D01*
X86669523Y-61142619D01*
X86574285Y-61095000D01*
X86383809Y-61047380D01*
X86240952Y-61047380D01*
X86050476Y-61095000D01*
X85955238Y-61142619D01*
X85860000Y-61237857D01*
X85812380Y-61380714D01*
X85812380Y-61475952D01*
X85860000Y-61618809D01*
X85907619Y-61666428D01*
X85812380Y-61999761D02*
X85812380Y-62618809D01*
X86193333Y-62285476D01*
X86193333Y-62428333D01*
X86240952Y-62523571D01*
X86288571Y-62571190D01*
X86383809Y-62618809D01*
X86621904Y-62618809D01*
X86717142Y-62571190D01*
X86764761Y-62523571D01*
X86812380Y-62428333D01*
X86812380Y-62142619D01*
X86764761Y-62047380D01*
X86717142Y-61999761D01*
X86526666Y-56967380D02*
X87002857Y-56967380D01*
X87002857Y-55967380D01*
X85669523Y-56967380D02*
X86240952Y-56967380D01*
X85955238Y-56967380D02*
X85955238Y-55967380D01*
X86050476Y-56110238D01*
X86145714Y-56205476D01*
X86240952Y-56253095D01*
X89066666Y-64587380D02*
X89400000Y-64111190D01*
X89638095Y-64587380D02*
X89638095Y-63587380D01*
X89257142Y-63587380D01*
X89161904Y-63635000D01*
X89114285Y-63682619D01*
X89066666Y-63777857D01*
X89066666Y-63920714D01*
X89114285Y-64015952D01*
X89161904Y-64063571D01*
X89257142Y-64111190D01*
X89638095Y-64111190D01*
X88114285Y-64587380D02*
X88685714Y-64587380D01*
X88400000Y-64587380D02*
X88400000Y-63587380D01*
X88495238Y-63730238D01*
X88590476Y-63825476D01*
X88685714Y-63873095D01*
X81097380Y-70953333D02*
X80621190Y-70620000D01*
X81097380Y-70381904D02*
X80097380Y-70381904D01*
X80097380Y-70762857D01*
X80145000Y-70858095D01*
X80192619Y-70905714D01*
X80287857Y-70953333D01*
X80430714Y-70953333D01*
X80525952Y-70905714D01*
X80573571Y-70858095D01*
X80621190Y-70762857D01*
X80621190Y-70381904D01*
X80192619Y-71334285D02*
X80145000Y-71381904D01*
X80097380Y-71477142D01*
X80097380Y-71715238D01*
X80145000Y-71810476D01*
X80192619Y-71858095D01*
X80287857Y-71905714D01*
X80383095Y-71905714D01*
X80525952Y-71858095D01*
X81097380Y-71286666D01*
X81097380Y-71905714D01*
X81224380Y-62269809D02*
X80224380Y-62269809D01*
X81129142Y-63317428D02*
X81176761Y-63269809D01*
X81224380Y-63126952D01*
X81224380Y-63031714D01*
X81176761Y-62888857D01*
X81081523Y-62793619D01*
X80986285Y-62746000D01*
X80795809Y-62698380D01*
X80652952Y-62698380D01*
X80462476Y-62746000D01*
X80367238Y-62793619D01*
X80272000Y-62888857D01*
X80224380Y-63031714D01*
X80224380Y-63126952D01*
X80272000Y-63269809D01*
X80319619Y-63317428D01*
X80557714Y-64174571D02*
X81224380Y-64174571D01*
X80176761Y-63936476D02*
X80891047Y-63698380D01*
X80891047Y-64317428D01*
X83542142Y-56729333D02*
X83589761Y-56681714D01*
X83637380Y-56538857D01*
X83637380Y-56443619D01*
X83589761Y-56300761D01*
X83494523Y-56205523D01*
X83399285Y-56157904D01*
X83208809Y-56110285D01*
X83065952Y-56110285D01*
X82875476Y-56157904D01*
X82780238Y-56205523D01*
X82685000Y-56300761D01*
X82637380Y-56443619D01*
X82637380Y-56538857D01*
X82685000Y-56681714D01*
X82732619Y-56729333D01*
X82637380Y-57634095D02*
X82637380Y-57157904D01*
X83113571Y-57110285D01*
X83065952Y-57157904D01*
X83018333Y-57253142D01*
X83018333Y-57491238D01*
X83065952Y-57586476D01*
X83113571Y-57634095D01*
X83208809Y-57681714D01*
X83446904Y-57681714D01*
X83542142Y-57634095D01*
X83589761Y-57586476D01*
X83637380Y-57491238D01*
X83637380Y-57253142D01*
X83589761Y-57157904D01*
X83542142Y-57110285D01*
X91162142Y-61428333D02*
X91209761Y-61380714D01*
X91257380Y-61237857D01*
X91257380Y-61142619D01*
X91209761Y-60999761D01*
X91114523Y-60904523D01*
X91019285Y-60856904D01*
X90828809Y-60809285D01*
X90685952Y-60809285D01*
X90495476Y-60856904D01*
X90400238Y-60904523D01*
X90305000Y-60999761D01*
X90257380Y-61142619D01*
X90257380Y-61237857D01*
X90305000Y-61380714D01*
X90352619Y-61428333D01*
X90257380Y-62285476D02*
X90257380Y-62095000D01*
X90305000Y-61999761D01*
X90352619Y-61952142D01*
X90495476Y-61856904D01*
X90685952Y-61809285D01*
X91066904Y-61809285D01*
X91162142Y-61856904D01*
X91209761Y-61904523D01*
X91257380Y-61999761D01*
X91257380Y-62190238D01*
X91209761Y-62285476D01*
X91162142Y-62333095D01*
X91066904Y-62380714D01*
X90828809Y-62380714D01*
X90733571Y-62333095D01*
X90685952Y-62285476D01*
X90638333Y-62190238D01*
X90638333Y-61999761D01*
X90685952Y-61904523D01*
X90733571Y-61856904D01*
X90828809Y-61809285D01*
X91837380Y-57681904D02*
X90837380Y-57681904D01*
X90837380Y-57920000D01*
X90885000Y-58062857D01*
X90980238Y-58158095D01*
X91075476Y-58205714D01*
X91265952Y-58253333D01*
X91408809Y-58253333D01*
X91599285Y-58205714D01*
X91694523Y-58158095D01*
X91789761Y-58062857D01*
X91837380Y-57920000D01*
X91837380Y-57681904D01*
X91837380Y-59205714D02*
X91837380Y-58634285D01*
X91837380Y-58920000D02*
X90837380Y-58920000D01*
X90980238Y-58824761D01*
X91075476Y-58729523D01*
X91123095Y-58634285D01*
M02*
