G04 #@! TF.FileFunction,Legend,Top*
%FSLAX46Y46*%
G04 Gerber Fmt 4.6, Leading zero omitted, Abs format (unit mm)*
G04 Created by KiCad (PCBNEW Rev-6964-Dev Build) date Thu Sep  1 14:59:03 2016*
%MOMM*%
%LPD*%
G01*
G04 APERTURE LIST*
%ADD10C,0.100000*%
%ADD11C,0.254000*%
%ADD12C,0.203200*%
%ADD13C,0.406400*%
%ADD14C,0.150000*%
%ADD15C,0.350000*%
%ADD16C,0.304800*%
%ADD17C,0.299720*%
G04 APERTURE END LIST*
D10*
D11*
X94524285Y-70424523D02*
X95370952Y-71694523D01*
X95370952Y-70424523D02*
X94524285Y-71694523D01*
X95854761Y-71694523D02*
X95854761Y-70424523D01*
X96701428Y-70424523D02*
X96943333Y-70424523D01*
X97064285Y-70485000D01*
X97185238Y-70605952D01*
X97245714Y-70847857D01*
X97245714Y-71271190D01*
X97185238Y-71513095D01*
X97064285Y-71634047D01*
X96943333Y-71694523D01*
X96701428Y-71694523D01*
X96580476Y-71634047D01*
X96459523Y-71513095D01*
X96399047Y-71271190D01*
X96399047Y-70847857D01*
X96459523Y-70605952D01*
X96580476Y-70485000D01*
X96701428Y-70424523D01*
X98334285Y-70847857D02*
X98334285Y-71694523D01*
X98031904Y-70364047D02*
X97729523Y-71271190D01*
X98515714Y-71271190D01*
X91077142Y-76774523D02*
X91077142Y-75504523D01*
X91802857Y-76774523D01*
X91802857Y-75504523D01*
X93133333Y-76653571D02*
X93072857Y-76714047D01*
X92891428Y-76774523D01*
X92770476Y-76774523D01*
X92589047Y-76714047D01*
X92468095Y-76593095D01*
X92407619Y-76472142D01*
X92347142Y-76230238D01*
X92347142Y-76048809D01*
X92407619Y-75806904D01*
X92468095Y-75685952D01*
X92589047Y-75565000D01*
X92770476Y-75504523D01*
X92891428Y-75504523D01*
X93072857Y-75565000D01*
X93133333Y-75625476D01*
X91258571Y-63953571D02*
X91198095Y-64014047D01*
X91016666Y-64074523D01*
X90895714Y-64074523D01*
X90714285Y-64014047D01*
X90593333Y-63893095D01*
X90532857Y-63772142D01*
X90472380Y-63530238D01*
X90472380Y-63348809D01*
X90532857Y-63106904D01*
X90593333Y-62985952D01*
X90714285Y-62865000D01*
X90895714Y-62804523D01*
X91016666Y-62804523D01*
X91198095Y-62865000D01*
X91258571Y-62925476D01*
X91742380Y-64014047D02*
X91923809Y-64074523D01*
X92226190Y-64074523D01*
X92347142Y-64014047D01*
X92407619Y-63953571D01*
X92468095Y-63832619D01*
X92468095Y-63711666D01*
X92407619Y-63590714D01*
X92347142Y-63530238D01*
X92226190Y-63469761D01*
X91984285Y-63409285D01*
X91863333Y-63348809D01*
X91802857Y-63288333D01*
X91742380Y-63167380D01*
X91742380Y-63046428D01*
X91802857Y-62925476D01*
X91863333Y-62865000D01*
X91984285Y-62804523D01*
X92286666Y-62804523D01*
X92468095Y-62865000D01*
X93677619Y-64074523D02*
X92951904Y-64074523D01*
X93314761Y-64074523D02*
X93314761Y-62804523D01*
X93193809Y-62985952D01*
X93072857Y-63106904D01*
X92951904Y-63167380D01*
D12*
X89535000Y-95250000D02*
X100076000Y-95250000D01*
X89535000Y-52070000D02*
X89535000Y-95250000D01*
X100076000Y-52070000D02*
X89535000Y-52070000D01*
D11*
X81673095Y-40770023D02*
X81068333Y-40770023D01*
X81007857Y-41374785D01*
X81068333Y-41314309D01*
X81189285Y-41253833D01*
X81491666Y-41253833D01*
X81612619Y-41314309D01*
X81673095Y-41374785D01*
X81733571Y-41495738D01*
X81733571Y-41798119D01*
X81673095Y-41919071D01*
X81612619Y-41979547D01*
X81491666Y-42040023D01*
X81189285Y-42040023D01*
X81068333Y-41979547D01*
X81007857Y-41919071D01*
X82096428Y-40770023D02*
X82519761Y-42040023D01*
X82943095Y-40770023D01*
X81340476Y-44199023D02*
X81340476Y-42929023D01*
X81945238Y-43352357D02*
X81945238Y-44199023D01*
X81945238Y-43473309D02*
X82005714Y-43412833D01*
X82126666Y-43352357D01*
X82308095Y-43352357D01*
X82429047Y-43412833D01*
X82489523Y-43533785D01*
X82489523Y-44199023D01*
X95552380Y-93345000D02*
X95431428Y-93284523D01*
X95250000Y-93284523D01*
X95068571Y-93345000D01*
X94947619Y-93465952D01*
X94887142Y-93586904D01*
X94826666Y-93828809D01*
X94826666Y-94010238D01*
X94887142Y-94252142D01*
X94947619Y-94373095D01*
X95068571Y-94494047D01*
X95250000Y-94554523D01*
X95370952Y-94554523D01*
X95552380Y-94494047D01*
X95612857Y-94433571D01*
X95612857Y-94010238D01*
X95370952Y-94010238D01*
X96157142Y-94554523D02*
X96157142Y-93284523D01*
X96882857Y-94554523D01*
X96882857Y-93284523D01*
X97487619Y-94554523D02*
X97487619Y-93284523D01*
X97790000Y-93284523D01*
X97971428Y-93345000D01*
X98092380Y-93465952D01*
X98152857Y-93586904D01*
X98213333Y-93828809D01*
X98213333Y-94010238D01*
X98152857Y-94252142D01*
X98092380Y-94373095D01*
X97971428Y-94494047D01*
X97790000Y-94554523D01*
X97487619Y-94554523D01*
X90502619Y-93284523D02*
X91288809Y-93284523D01*
X90865476Y-93768333D01*
X91046904Y-93768333D01*
X91167857Y-93828809D01*
X91228333Y-93889285D01*
X91288809Y-94010238D01*
X91288809Y-94312619D01*
X91228333Y-94433571D01*
X91167857Y-94494047D01*
X91046904Y-94554523D01*
X90684047Y-94554523D01*
X90563095Y-94494047D01*
X90502619Y-94433571D01*
X91651666Y-93284523D02*
X92075000Y-94554523D01*
X92498333Y-93284523D01*
X92800714Y-93284523D02*
X93586904Y-93284523D01*
X93163571Y-93768333D01*
X93345000Y-93768333D01*
X93465952Y-93828809D01*
X93526428Y-93889285D01*
X93586904Y-94010238D01*
X93586904Y-94312619D01*
X93526428Y-94433571D01*
X93465952Y-94494047D01*
X93345000Y-94554523D01*
X92982142Y-94554523D01*
X92861190Y-94494047D01*
X92800714Y-94433571D01*
X90805000Y-92014523D02*
X90805000Y-90744523D01*
X91651666Y-90744523D02*
X91893571Y-90744523D01*
X92014523Y-90805000D01*
X92135476Y-90925952D01*
X92195952Y-91167857D01*
X92195952Y-91591190D01*
X92135476Y-91833095D01*
X92014523Y-91954047D01*
X91893571Y-92014523D01*
X91651666Y-92014523D01*
X91530714Y-91954047D01*
X91409761Y-91833095D01*
X91349285Y-91591190D01*
X91349285Y-91167857D01*
X91409761Y-90925952D01*
X91530714Y-90805000D01*
X91651666Y-90744523D01*
X93284523Y-90744523D02*
X93042619Y-90744523D01*
X92921666Y-90805000D01*
X92861190Y-90865476D01*
X92740238Y-91046904D01*
X92679761Y-91288809D01*
X92679761Y-91772619D01*
X92740238Y-91893571D01*
X92800714Y-91954047D01*
X92921666Y-92014523D01*
X93163571Y-92014523D01*
X93284523Y-91954047D01*
X93345000Y-91893571D01*
X93405476Y-91772619D01*
X93405476Y-91470238D01*
X93345000Y-91349285D01*
X93284523Y-91288809D01*
X93163571Y-91228333D01*
X92921666Y-91228333D01*
X92800714Y-91288809D01*
X92740238Y-91349285D01*
X92679761Y-91470238D01*
X95250000Y-92014523D02*
X95250000Y-90744523D01*
X96096666Y-90744523D02*
X96338571Y-90744523D01*
X96459523Y-90805000D01*
X96580476Y-90925952D01*
X96640952Y-91167857D01*
X96640952Y-91591190D01*
X96580476Y-91833095D01*
X96459523Y-91954047D01*
X96338571Y-92014523D01*
X96096666Y-92014523D01*
X95975714Y-91954047D01*
X95854761Y-91833095D01*
X95794285Y-91591190D01*
X95794285Y-91167857D01*
X95854761Y-90925952D01*
X95975714Y-90805000D01*
X96096666Y-90744523D01*
X97064285Y-90744523D02*
X97910952Y-90744523D01*
X97366666Y-92014523D01*
X95250000Y-89474523D02*
X95250000Y-88204523D01*
X96096666Y-88204523D02*
X96338571Y-88204523D01*
X96459523Y-88265000D01*
X96580476Y-88385952D01*
X96640952Y-88627857D01*
X96640952Y-89051190D01*
X96580476Y-89293095D01*
X96459523Y-89414047D01*
X96338571Y-89474523D01*
X96096666Y-89474523D01*
X95975714Y-89414047D01*
X95854761Y-89293095D01*
X95794285Y-89051190D01*
X95794285Y-88627857D01*
X95854761Y-88385952D01*
X95975714Y-88265000D01*
X96096666Y-88204523D01*
X97790000Y-88204523D02*
X97185238Y-88204523D01*
X97124761Y-88809285D01*
X97185238Y-88748809D01*
X97306190Y-88688333D01*
X97608571Y-88688333D01*
X97729523Y-88748809D01*
X97790000Y-88809285D01*
X97850476Y-88930238D01*
X97850476Y-89232619D01*
X97790000Y-89353571D01*
X97729523Y-89414047D01*
X97608571Y-89474523D01*
X97306190Y-89474523D01*
X97185238Y-89414047D01*
X97124761Y-89353571D01*
X90805000Y-89474523D02*
X90805000Y-88204523D01*
X91651666Y-88204523D02*
X91893571Y-88204523D01*
X92014523Y-88265000D01*
X92135476Y-88385952D01*
X92195952Y-88627857D01*
X92195952Y-89051190D01*
X92135476Y-89293095D01*
X92014523Y-89414047D01*
X91893571Y-89474523D01*
X91651666Y-89474523D01*
X91530714Y-89414047D01*
X91409761Y-89293095D01*
X91349285Y-89051190D01*
X91349285Y-88627857D01*
X91409761Y-88385952D01*
X91530714Y-88265000D01*
X91651666Y-88204523D01*
X93284523Y-88627857D02*
X93284523Y-89474523D01*
X92982142Y-88144047D02*
X92679761Y-89051190D01*
X93465952Y-89051190D01*
X90805000Y-86934523D02*
X90805000Y-85664523D01*
X91651666Y-85664523D02*
X91893571Y-85664523D01*
X92014523Y-85725000D01*
X92135476Y-85845952D01*
X92195952Y-86087857D01*
X92195952Y-86511190D01*
X92135476Y-86753095D01*
X92014523Y-86874047D01*
X91893571Y-86934523D01*
X91651666Y-86934523D01*
X91530714Y-86874047D01*
X91409761Y-86753095D01*
X91349285Y-86511190D01*
X91349285Y-86087857D01*
X91409761Y-85845952D01*
X91530714Y-85725000D01*
X91651666Y-85664523D01*
X92679761Y-85785476D02*
X92740238Y-85725000D01*
X92861190Y-85664523D01*
X93163571Y-85664523D01*
X93284523Y-85725000D01*
X93345000Y-85785476D01*
X93405476Y-85906428D01*
X93405476Y-86027380D01*
X93345000Y-86208809D01*
X92619285Y-86934523D01*
X93405476Y-86934523D01*
X95250000Y-86934523D02*
X95250000Y-85664523D01*
X96096666Y-85664523D02*
X96338571Y-85664523D01*
X96459523Y-85725000D01*
X96580476Y-85845952D01*
X96640952Y-86087857D01*
X96640952Y-86511190D01*
X96580476Y-86753095D01*
X96459523Y-86874047D01*
X96338571Y-86934523D01*
X96096666Y-86934523D01*
X95975714Y-86874047D01*
X95854761Y-86753095D01*
X95794285Y-86511190D01*
X95794285Y-86087857D01*
X95854761Y-85845952D01*
X95975714Y-85725000D01*
X96096666Y-85664523D01*
X97064285Y-85664523D02*
X97850476Y-85664523D01*
X97427142Y-86148333D01*
X97608571Y-86148333D01*
X97729523Y-86208809D01*
X97790000Y-86269285D01*
X97850476Y-86390238D01*
X97850476Y-86692619D01*
X97790000Y-86813571D01*
X97729523Y-86874047D01*
X97608571Y-86934523D01*
X97245714Y-86934523D01*
X97124761Y-86874047D01*
X97064285Y-86813571D01*
X95250000Y-84394523D02*
X95250000Y-83124523D01*
X96096666Y-83124523D02*
X96338571Y-83124523D01*
X96459523Y-83185000D01*
X96580476Y-83305952D01*
X96640952Y-83547857D01*
X96640952Y-83971190D01*
X96580476Y-84213095D01*
X96459523Y-84334047D01*
X96338571Y-84394523D01*
X96096666Y-84394523D01*
X95975714Y-84334047D01*
X95854761Y-84213095D01*
X95794285Y-83971190D01*
X95794285Y-83547857D01*
X95854761Y-83305952D01*
X95975714Y-83185000D01*
X96096666Y-83124523D01*
X97850476Y-84394523D02*
X97124761Y-84394523D01*
X97487619Y-84394523D02*
X97487619Y-83124523D01*
X97366666Y-83305952D01*
X97245714Y-83426904D01*
X97124761Y-83487380D01*
X90805000Y-84394523D02*
X90805000Y-83124523D01*
X91651666Y-83124523D02*
X91893571Y-83124523D01*
X92014523Y-83185000D01*
X92135476Y-83305952D01*
X92195952Y-83547857D01*
X92195952Y-83971190D01*
X92135476Y-84213095D01*
X92014523Y-84334047D01*
X91893571Y-84394523D01*
X91651666Y-84394523D01*
X91530714Y-84334047D01*
X91409761Y-84213095D01*
X91349285Y-83971190D01*
X91349285Y-83547857D01*
X91409761Y-83305952D01*
X91530714Y-83185000D01*
X91651666Y-83124523D01*
X92982142Y-83124523D02*
X93103095Y-83124523D01*
X93224047Y-83185000D01*
X93284523Y-83245476D01*
X93345000Y-83366428D01*
X93405476Y-83608333D01*
X93405476Y-83910714D01*
X93345000Y-84152619D01*
X93284523Y-84273571D01*
X93224047Y-84334047D01*
X93103095Y-84394523D01*
X92982142Y-84394523D01*
X92861190Y-84334047D01*
X92800714Y-84273571D01*
X92740238Y-84152619D01*
X92679761Y-83910714D01*
X92679761Y-83608333D01*
X92740238Y-83366428D01*
X92800714Y-83245476D01*
X92861190Y-83185000D01*
X92982142Y-83124523D01*
X94977857Y-81794047D02*
X95159285Y-81854523D01*
X95461666Y-81854523D01*
X95582619Y-81794047D01*
X95643095Y-81733571D01*
X95703571Y-81612619D01*
X95703571Y-81491666D01*
X95643095Y-81370714D01*
X95582619Y-81310238D01*
X95461666Y-81249761D01*
X95219761Y-81189285D01*
X95098809Y-81128809D01*
X95038333Y-81068333D01*
X94977857Y-80947380D01*
X94977857Y-80826428D01*
X95038333Y-80705476D01*
X95098809Y-80645000D01*
X95219761Y-80584523D01*
X95522142Y-80584523D01*
X95703571Y-80645000D01*
X96247857Y-81854523D02*
X96247857Y-80584523D01*
X96550238Y-80584523D01*
X96731666Y-80645000D01*
X96852619Y-80765952D01*
X96913095Y-80886904D01*
X96973571Y-81128809D01*
X96973571Y-81310238D01*
X96913095Y-81552142D01*
X96852619Y-81673095D01*
X96731666Y-81794047D01*
X96550238Y-81854523D01*
X96247857Y-81854523D01*
X97457380Y-81491666D02*
X98062142Y-81491666D01*
X97336428Y-81854523D02*
X97759761Y-80584523D01*
X98183095Y-81854523D01*
X90563095Y-81794047D02*
X90744523Y-81854523D01*
X91046904Y-81854523D01*
X91167857Y-81794047D01*
X91228333Y-81733571D01*
X91288809Y-81612619D01*
X91288809Y-81491666D01*
X91228333Y-81370714D01*
X91167857Y-81310238D01*
X91046904Y-81249761D01*
X90805000Y-81189285D01*
X90684047Y-81128809D01*
X90623571Y-81068333D01*
X90563095Y-80947380D01*
X90563095Y-80826428D01*
X90623571Y-80705476D01*
X90684047Y-80645000D01*
X90805000Y-80584523D01*
X91107380Y-80584523D01*
X91288809Y-80645000D01*
X92558809Y-81733571D02*
X92498333Y-81794047D01*
X92316904Y-81854523D01*
X92195952Y-81854523D01*
X92014523Y-81794047D01*
X91893571Y-81673095D01*
X91833095Y-81552142D01*
X91772619Y-81310238D01*
X91772619Y-81128809D01*
X91833095Y-80886904D01*
X91893571Y-80765952D01*
X92014523Y-80645000D01*
X92195952Y-80584523D01*
X92316904Y-80584523D01*
X92498333Y-80645000D01*
X92558809Y-80705476D01*
X93707857Y-81854523D02*
X93103095Y-81854523D01*
X93103095Y-80584523D01*
X90321190Y-79314523D02*
X90321190Y-78044523D01*
X90925952Y-79314523D02*
X90925952Y-78044523D01*
X91651666Y-79314523D01*
X91651666Y-78044523D01*
X92075000Y-78044523D02*
X92800714Y-78044523D01*
X92437857Y-79314523D02*
X92437857Y-78044523D01*
X93103095Y-78044523D02*
X93889285Y-78044523D01*
X93465952Y-78528333D01*
X93647380Y-78528333D01*
X93768333Y-78588809D01*
X93828809Y-78649285D01*
X93889285Y-78770238D01*
X93889285Y-79072619D01*
X93828809Y-79193571D01*
X93768333Y-79254047D01*
X93647380Y-79314523D01*
X93284523Y-79314523D01*
X93163571Y-79254047D01*
X93103095Y-79193571D01*
X94766190Y-79314523D02*
X94766190Y-78044523D01*
X95370952Y-79314523D02*
X95370952Y-78044523D01*
X96096666Y-79314523D01*
X96096666Y-78044523D01*
X96520000Y-78044523D02*
X97245714Y-78044523D01*
X96882857Y-79314523D02*
X96882857Y-78044523D01*
X98334285Y-79314523D02*
X97608571Y-79314523D01*
X97971428Y-79314523D02*
X97971428Y-78044523D01*
X97850476Y-78225952D01*
X97729523Y-78346904D01*
X97608571Y-78407380D01*
X94524285Y-75504523D02*
X95370952Y-76774523D01*
X95370952Y-75504523D02*
X94524285Y-76774523D01*
X95854761Y-76774523D02*
X95854761Y-75504523D01*
X96701428Y-75504523D02*
X96943333Y-75504523D01*
X97064285Y-75565000D01*
X97185238Y-75685952D01*
X97245714Y-75927857D01*
X97245714Y-76351190D01*
X97185238Y-76593095D01*
X97064285Y-76714047D01*
X96943333Y-76774523D01*
X96701428Y-76774523D01*
X96580476Y-76714047D01*
X96459523Y-76593095D01*
X96399047Y-76351190D01*
X96399047Y-75927857D01*
X96459523Y-75685952D01*
X96580476Y-75565000D01*
X96701428Y-75504523D01*
X97669047Y-75504523D02*
X98515714Y-75504523D01*
X97971428Y-76774523D01*
X91107380Y-73025000D02*
X90986428Y-72964523D01*
X90805000Y-72964523D01*
X90623571Y-73025000D01*
X90502619Y-73145952D01*
X90442142Y-73266904D01*
X90381666Y-73508809D01*
X90381666Y-73690238D01*
X90442142Y-73932142D01*
X90502619Y-74053095D01*
X90623571Y-74174047D01*
X90805000Y-74234523D01*
X90925952Y-74234523D01*
X91107380Y-74174047D01*
X91167857Y-74113571D01*
X91167857Y-73690238D01*
X90925952Y-73690238D01*
X91712142Y-74234523D02*
X91712142Y-72964523D01*
X92437857Y-74234523D01*
X92437857Y-72964523D01*
X93042619Y-74234523D02*
X93042619Y-72964523D01*
X93345000Y-72964523D01*
X93526428Y-73025000D01*
X93647380Y-73145952D01*
X93707857Y-73266904D01*
X93768333Y-73508809D01*
X93768333Y-73690238D01*
X93707857Y-73932142D01*
X93647380Y-74053095D01*
X93526428Y-74174047D01*
X93345000Y-74234523D01*
X93042619Y-74234523D01*
X94524285Y-72964523D02*
X95370952Y-74234523D01*
X95370952Y-72964523D02*
X94524285Y-74234523D01*
X95854761Y-74234523D02*
X95854761Y-72964523D01*
X96701428Y-72964523D02*
X96943333Y-72964523D01*
X97064285Y-73025000D01*
X97185238Y-73145952D01*
X97245714Y-73387857D01*
X97245714Y-73811190D01*
X97185238Y-74053095D01*
X97064285Y-74174047D01*
X96943333Y-74234523D01*
X96701428Y-74234523D01*
X96580476Y-74174047D01*
X96459523Y-74053095D01*
X96399047Y-73811190D01*
X96399047Y-73387857D01*
X96459523Y-73145952D01*
X96580476Y-73025000D01*
X96701428Y-72964523D01*
X98334285Y-72964523D02*
X98092380Y-72964523D01*
X97971428Y-73025000D01*
X97910952Y-73085476D01*
X97790000Y-73266904D01*
X97729523Y-73508809D01*
X97729523Y-73992619D01*
X97790000Y-74113571D01*
X97850476Y-74174047D01*
X97971428Y-74234523D01*
X98213333Y-74234523D01*
X98334285Y-74174047D01*
X98394761Y-74113571D01*
X98455238Y-73992619D01*
X98455238Y-73690238D01*
X98394761Y-73569285D01*
X98334285Y-73508809D01*
X98213333Y-73448333D01*
X97971428Y-73448333D01*
X97850476Y-73508809D01*
X97790000Y-73569285D01*
X97729523Y-73690238D01*
X90079285Y-70424523D02*
X90925952Y-71694523D01*
X90925952Y-70424523D02*
X90079285Y-71694523D01*
X91409761Y-71694523D02*
X91409761Y-70424523D01*
X92256428Y-70424523D02*
X92498333Y-70424523D01*
X92619285Y-70485000D01*
X92740238Y-70605952D01*
X92800714Y-70847857D01*
X92800714Y-71271190D01*
X92740238Y-71513095D01*
X92619285Y-71634047D01*
X92498333Y-71694523D01*
X92256428Y-71694523D01*
X92135476Y-71634047D01*
X92014523Y-71513095D01*
X91954047Y-71271190D01*
X91954047Y-70847857D01*
X92014523Y-70605952D01*
X92135476Y-70485000D01*
X92256428Y-70424523D01*
X93949761Y-70424523D02*
X93345000Y-70424523D01*
X93284523Y-71029285D01*
X93345000Y-70968809D01*
X93465952Y-70908333D01*
X93768333Y-70908333D01*
X93889285Y-70968809D01*
X93949761Y-71029285D01*
X94010238Y-71150238D01*
X94010238Y-71452619D01*
X93949761Y-71573571D01*
X93889285Y-71634047D01*
X93768333Y-71694523D01*
X93465952Y-71694523D01*
X93345000Y-71634047D01*
X93284523Y-71573571D01*
X94887142Y-69094047D02*
X95068571Y-69154523D01*
X95370952Y-69154523D01*
X95491904Y-69094047D01*
X95552380Y-69033571D01*
X95612857Y-68912619D01*
X95612857Y-68791666D01*
X95552380Y-68670714D01*
X95491904Y-68610238D01*
X95370952Y-68549761D01*
X95129047Y-68489285D01*
X95008095Y-68428809D01*
X94947619Y-68368333D01*
X94887142Y-68247380D01*
X94887142Y-68126428D01*
X94947619Y-68005476D01*
X95008095Y-67945000D01*
X95129047Y-67884523D01*
X95431428Y-67884523D01*
X95612857Y-67945000D01*
X96882857Y-69033571D02*
X96822380Y-69094047D01*
X96640952Y-69154523D01*
X96520000Y-69154523D01*
X96338571Y-69094047D01*
X96217619Y-68973095D01*
X96157142Y-68852142D01*
X96096666Y-68610238D01*
X96096666Y-68428809D01*
X96157142Y-68186904D01*
X96217619Y-68065952D01*
X96338571Y-67945000D01*
X96520000Y-67884523D01*
X96640952Y-67884523D01*
X96822380Y-67945000D01*
X96882857Y-68005476D01*
X97427142Y-69154523D02*
X97427142Y-67884523D01*
X98152857Y-69154523D02*
X97608571Y-68428809D01*
X98152857Y-67884523D02*
X97427142Y-68610238D01*
X90079285Y-67884523D02*
X90925952Y-69154523D01*
X90925952Y-67884523D02*
X90079285Y-69154523D01*
X91409761Y-69154523D02*
X91409761Y-67884523D01*
X92256428Y-67884523D02*
X92498333Y-67884523D01*
X92619285Y-67945000D01*
X92740238Y-68065952D01*
X92800714Y-68307857D01*
X92800714Y-68731190D01*
X92740238Y-68973095D01*
X92619285Y-69094047D01*
X92498333Y-69154523D01*
X92256428Y-69154523D01*
X92135476Y-69094047D01*
X92014523Y-68973095D01*
X91954047Y-68731190D01*
X91954047Y-68307857D01*
X92014523Y-68065952D01*
X92135476Y-67945000D01*
X92256428Y-67884523D01*
X93224047Y-67884523D02*
X94010238Y-67884523D01*
X93586904Y-68368333D01*
X93768333Y-68368333D01*
X93889285Y-68428809D01*
X93949761Y-68489285D01*
X94010238Y-68610238D01*
X94010238Y-68912619D01*
X93949761Y-69033571D01*
X93889285Y-69094047D01*
X93768333Y-69154523D01*
X93405476Y-69154523D01*
X93284523Y-69094047D01*
X93224047Y-69033571D01*
X94651285Y-66614523D02*
X94651285Y-65344523D01*
X95074619Y-66251666D01*
X95497952Y-65344523D01*
X95497952Y-66614523D01*
X96102714Y-66614523D02*
X96102714Y-65344523D01*
X96647000Y-66554047D02*
X96828428Y-66614523D01*
X97130809Y-66614523D01*
X97251761Y-66554047D01*
X97312238Y-66493571D01*
X97372714Y-66372619D01*
X97372714Y-66251666D01*
X97312238Y-66130714D01*
X97251761Y-66070238D01*
X97130809Y-66009761D01*
X96888904Y-65949285D01*
X96767952Y-65888809D01*
X96707476Y-65828333D01*
X96647000Y-65707380D01*
X96647000Y-65586428D01*
X96707476Y-65465476D01*
X96767952Y-65405000D01*
X96888904Y-65344523D01*
X97191285Y-65344523D01*
X97372714Y-65405000D01*
X98158904Y-65344523D02*
X98400809Y-65344523D01*
X98521761Y-65405000D01*
X98642714Y-65525952D01*
X98703190Y-65767857D01*
X98703190Y-66191190D01*
X98642714Y-66433095D01*
X98521761Y-66554047D01*
X98400809Y-66614523D01*
X98158904Y-66614523D01*
X98037952Y-66554047D01*
X97917000Y-66433095D01*
X97856523Y-66191190D01*
X97856523Y-65767857D01*
X97917000Y-65525952D01*
X98037952Y-65405000D01*
X98158904Y-65344523D01*
X89952285Y-66614523D02*
X89952285Y-65344523D01*
X90375619Y-66251666D01*
X90798952Y-65344523D01*
X90798952Y-66614523D01*
X91645619Y-65344523D02*
X91887523Y-65344523D01*
X92008476Y-65405000D01*
X92129428Y-65525952D01*
X92189904Y-65767857D01*
X92189904Y-66191190D01*
X92129428Y-66433095D01*
X92008476Y-66554047D01*
X91887523Y-66614523D01*
X91645619Y-66614523D01*
X91524666Y-66554047D01*
X91403714Y-66433095D01*
X91343238Y-66191190D01*
X91343238Y-65767857D01*
X91403714Y-65525952D01*
X91524666Y-65405000D01*
X91645619Y-65344523D01*
X92673714Y-66554047D02*
X92855142Y-66614523D01*
X93157523Y-66614523D01*
X93278476Y-66554047D01*
X93338952Y-66493571D01*
X93399428Y-66372619D01*
X93399428Y-66251666D01*
X93338952Y-66130714D01*
X93278476Y-66070238D01*
X93157523Y-66009761D01*
X92915619Y-65949285D01*
X92794666Y-65888809D01*
X92734190Y-65828333D01*
X92673714Y-65707380D01*
X92673714Y-65586428D01*
X92734190Y-65465476D01*
X92794666Y-65405000D01*
X92915619Y-65344523D01*
X93218000Y-65344523D01*
X93399428Y-65405000D01*
X93943714Y-66614523D02*
X93943714Y-65344523D01*
X95703571Y-63953571D02*
X95643095Y-64014047D01*
X95461666Y-64074523D01*
X95340714Y-64074523D01*
X95159285Y-64014047D01*
X95038333Y-63893095D01*
X94977857Y-63772142D01*
X94917380Y-63530238D01*
X94917380Y-63348809D01*
X94977857Y-63106904D01*
X95038333Y-62985952D01*
X95159285Y-62865000D01*
X95340714Y-62804523D01*
X95461666Y-62804523D01*
X95643095Y-62865000D01*
X95703571Y-62925476D01*
X96187380Y-64014047D02*
X96368809Y-64074523D01*
X96671190Y-64074523D01*
X96792142Y-64014047D01*
X96852619Y-63953571D01*
X96913095Y-63832619D01*
X96913095Y-63711666D01*
X96852619Y-63590714D01*
X96792142Y-63530238D01*
X96671190Y-63469761D01*
X96429285Y-63409285D01*
X96308333Y-63348809D01*
X96247857Y-63288333D01*
X96187380Y-63167380D01*
X96187380Y-63046428D01*
X96247857Y-62925476D01*
X96308333Y-62865000D01*
X96429285Y-62804523D01*
X96731666Y-62804523D01*
X96913095Y-62865000D01*
X97699285Y-62804523D02*
X97820238Y-62804523D01*
X97941190Y-62865000D01*
X98001666Y-62925476D01*
X98062142Y-63046428D01*
X98122619Y-63288333D01*
X98122619Y-63590714D01*
X98062142Y-63832619D01*
X98001666Y-63953571D01*
X97941190Y-64014047D01*
X97820238Y-64074523D01*
X97699285Y-64074523D01*
X97578333Y-64014047D01*
X97517857Y-63953571D01*
X97457380Y-63832619D01*
X97396904Y-63590714D01*
X97396904Y-63288333D01*
X97457380Y-63046428D01*
X97517857Y-62925476D01*
X97578333Y-62865000D01*
X97699285Y-62804523D01*
X95703571Y-61413571D02*
X95643095Y-61474047D01*
X95461666Y-61534523D01*
X95340714Y-61534523D01*
X95159285Y-61474047D01*
X95038333Y-61353095D01*
X94977857Y-61232142D01*
X94917380Y-60990238D01*
X94917380Y-60808809D01*
X94977857Y-60566904D01*
X95038333Y-60445952D01*
X95159285Y-60325000D01*
X95340714Y-60264523D01*
X95461666Y-60264523D01*
X95643095Y-60325000D01*
X95703571Y-60385476D01*
X96187380Y-61474047D02*
X96368809Y-61534523D01*
X96671190Y-61534523D01*
X96792142Y-61474047D01*
X96852619Y-61413571D01*
X96913095Y-61292619D01*
X96913095Y-61171666D01*
X96852619Y-61050714D01*
X96792142Y-60990238D01*
X96671190Y-60929761D01*
X96429285Y-60869285D01*
X96308333Y-60808809D01*
X96247857Y-60748333D01*
X96187380Y-60627380D01*
X96187380Y-60506428D01*
X96247857Y-60385476D01*
X96308333Y-60325000D01*
X96429285Y-60264523D01*
X96731666Y-60264523D01*
X96913095Y-60325000D01*
X97396904Y-60385476D02*
X97457380Y-60325000D01*
X97578333Y-60264523D01*
X97880714Y-60264523D01*
X98001666Y-60325000D01*
X98062142Y-60385476D01*
X98122619Y-60506428D01*
X98122619Y-60627380D01*
X98062142Y-60808809D01*
X97336428Y-61534523D01*
X98122619Y-61534523D01*
X91258571Y-61413571D02*
X91198095Y-61474047D01*
X91016666Y-61534523D01*
X90895714Y-61534523D01*
X90714285Y-61474047D01*
X90593333Y-61353095D01*
X90532857Y-61232142D01*
X90472380Y-60990238D01*
X90472380Y-60808809D01*
X90532857Y-60566904D01*
X90593333Y-60445952D01*
X90714285Y-60325000D01*
X90895714Y-60264523D01*
X91016666Y-60264523D01*
X91198095Y-60325000D01*
X91258571Y-60385476D01*
X91742380Y-61474047D02*
X91923809Y-61534523D01*
X92226190Y-61534523D01*
X92347142Y-61474047D01*
X92407619Y-61413571D01*
X92468095Y-61292619D01*
X92468095Y-61171666D01*
X92407619Y-61050714D01*
X92347142Y-60990238D01*
X92226190Y-60929761D01*
X91984285Y-60869285D01*
X91863333Y-60808809D01*
X91802857Y-60748333D01*
X91742380Y-60627380D01*
X91742380Y-60506428D01*
X91802857Y-60385476D01*
X91863333Y-60325000D01*
X91984285Y-60264523D01*
X92286666Y-60264523D01*
X92468095Y-60325000D01*
X92891428Y-60264523D02*
X93677619Y-60264523D01*
X93254285Y-60748333D01*
X93435714Y-60748333D01*
X93556666Y-60808809D01*
X93617142Y-60869285D01*
X93677619Y-60990238D01*
X93677619Y-61292619D01*
X93617142Y-61413571D01*
X93556666Y-61474047D01*
X93435714Y-61534523D01*
X93072857Y-61534523D01*
X92951904Y-61474047D01*
X92891428Y-61413571D01*
X91258571Y-58873571D02*
X91198095Y-58934047D01*
X91016666Y-58994523D01*
X90895714Y-58994523D01*
X90714285Y-58934047D01*
X90593333Y-58813095D01*
X90532857Y-58692142D01*
X90472380Y-58450238D01*
X90472380Y-58268809D01*
X90532857Y-58026904D01*
X90593333Y-57905952D01*
X90714285Y-57785000D01*
X90895714Y-57724523D01*
X91016666Y-57724523D01*
X91198095Y-57785000D01*
X91258571Y-57845476D01*
X91742380Y-58934047D02*
X91923809Y-58994523D01*
X92226190Y-58994523D01*
X92347142Y-58934047D01*
X92407619Y-58873571D01*
X92468095Y-58752619D01*
X92468095Y-58631666D01*
X92407619Y-58510714D01*
X92347142Y-58450238D01*
X92226190Y-58389761D01*
X91984285Y-58329285D01*
X91863333Y-58268809D01*
X91802857Y-58208333D01*
X91742380Y-58087380D01*
X91742380Y-57966428D01*
X91802857Y-57845476D01*
X91863333Y-57785000D01*
X91984285Y-57724523D01*
X92286666Y-57724523D01*
X92468095Y-57785000D01*
X93617142Y-57724523D02*
X93012380Y-57724523D01*
X92951904Y-58329285D01*
X93012380Y-58268809D01*
X93133333Y-58208333D01*
X93435714Y-58208333D01*
X93556666Y-58268809D01*
X93617142Y-58329285D01*
X93677619Y-58450238D01*
X93677619Y-58752619D01*
X93617142Y-58873571D01*
X93556666Y-58934047D01*
X93435714Y-58994523D01*
X93133333Y-58994523D01*
X93012380Y-58934047D01*
X92951904Y-58873571D01*
X95703571Y-58873571D02*
X95643095Y-58934047D01*
X95461666Y-58994523D01*
X95340714Y-58994523D01*
X95159285Y-58934047D01*
X95038333Y-58813095D01*
X94977857Y-58692142D01*
X94917380Y-58450238D01*
X94917380Y-58268809D01*
X94977857Y-58026904D01*
X95038333Y-57905952D01*
X95159285Y-57785000D01*
X95340714Y-57724523D01*
X95461666Y-57724523D01*
X95643095Y-57785000D01*
X95703571Y-57845476D01*
X96187380Y-58934047D02*
X96368809Y-58994523D01*
X96671190Y-58994523D01*
X96792142Y-58934047D01*
X96852619Y-58873571D01*
X96913095Y-58752619D01*
X96913095Y-58631666D01*
X96852619Y-58510714D01*
X96792142Y-58450238D01*
X96671190Y-58389761D01*
X96429285Y-58329285D01*
X96308333Y-58268809D01*
X96247857Y-58208333D01*
X96187380Y-58087380D01*
X96187380Y-57966428D01*
X96247857Y-57845476D01*
X96308333Y-57785000D01*
X96429285Y-57724523D01*
X96731666Y-57724523D01*
X96913095Y-57785000D01*
X98001666Y-58147857D02*
X98001666Y-58994523D01*
X97699285Y-57664047D02*
X97396904Y-58571190D01*
X98183095Y-58571190D01*
X95703571Y-56333571D02*
X95643095Y-56394047D01*
X95461666Y-56454523D01*
X95340714Y-56454523D01*
X95159285Y-56394047D01*
X95038333Y-56273095D01*
X94977857Y-56152142D01*
X94917380Y-55910238D01*
X94917380Y-55728809D01*
X94977857Y-55486904D01*
X95038333Y-55365952D01*
X95159285Y-55245000D01*
X95340714Y-55184523D01*
X95461666Y-55184523D01*
X95643095Y-55245000D01*
X95703571Y-55305476D01*
X96187380Y-56394047D02*
X96368809Y-56454523D01*
X96671190Y-56454523D01*
X96792142Y-56394047D01*
X96852619Y-56333571D01*
X96913095Y-56212619D01*
X96913095Y-56091666D01*
X96852619Y-55970714D01*
X96792142Y-55910238D01*
X96671190Y-55849761D01*
X96429285Y-55789285D01*
X96308333Y-55728809D01*
X96247857Y-55668333D01*
X96187380Y-55547380D01*
X96187380Y-55426428D01*
X96247857Y-55305476D01*
X96308333Y-55245000D01*
X96429285Y-55184523D01*
X96731666Y-55184523D01*
X96913095Y-55245000D01*
X98001666Y-55184523D02*
X97759761Y-55184523D01*
X97638809Y-55245000D01*
X97578333Y-55305476D01*
X97457380Y-55486904D01*
X97396904Y-55728809D01*
X97396904Y-56212619D01*
X97457380Y-56333571D01*
X97517857Y-56394047D01*
X97638809Y-56454523D01*
X97880714Y-56454523D01*
X98001666Y-56394047D01*
X98062142Y-56333571D01*
X98122619Y-56212619D01*
X98122619Y-55910238D01*
X98062142Y-55789285D01*
X98001666Y-55728809D01*
X97880714Y-55668333D01*
X97638809Y-55668333D01*
X97517857Y-55728809D01*
X97457380Y-55789285D01*
X97396904Y-55910238D01*
X91258571Y-56333571D02*
X91198095Y-56394047D01*
X91016666Y-56454523D01*
X90895714Y-56454523D01*
X90714285Y-56394047D01*
X90593333Y-56273095D01*
X90532857Y-56152142D01*
X90472380Y-55910238D01*
X90472380Y-55728809D01*
X90532857Y-55486904D01*
X90593333Y-55365952D01*
X90714285Y-55245000D01*
X90895714Y-55184523D01*
X91016666Y-55184523D01*
X91198095Y-55245000D01*
X91258571Y-55305476D01*
X91742380Y-56394047D02*
X91923809Y-56454523D01*
X92226190Y-56454523D01*
X92347142Y-56394047D01*
X92407619Y-56333571D01*
X92468095Y-56212619D01*
X92468095Y-56091666D01*
X92407619Y-55970714D01*
X92347142Y-55910238D01*
X92226190Y-55849761D01*
X91984285Y-55789285D01*
X91863333Y-55728809D01*
X91802857Y-55668333D01*
X91742380Y-55547380D01*
X91742380Y-55426428D01*
X91802857Y-55305476D01*
X91863333Y-55245000D01*
X91984285Y-55184523D01*
X92286666Y-55184523D01*
X92468095Y-55245000D01*
X92891428Y-55184523D02*
X93738095Y-55184523D01*
X93193809Y-56454523D01*
X95552380Y-52705000D02*
X95431428Y-52644523D01*
X95250000Y-52644523D01*
X95068571Y-52705000D01*
X94947619Y-52825952D01*
X94887142Y-52946904D01*
X94826666Y-53188809D01*
X94826666Y-53370238D01*
X94887142Y-53612142D01*
X94947619Y-53733095D01*
X95068571Y-53854047D01*
X95250000Y-53914523D01*
X95370952Y-53914523D01*
X95552380Y-53854047D01*
X95612857Y-53793571D01*
X95612857Y-53370238D01*
X95370952Y-53370238D01*
X96157142Y-53914523D02*
X96157142Y-52644523D01*
X96882857Y-53914523D01*
X96882857Y-52644523D01*
X97487619Y-53914523D02*
X97487619Y-52644523D01*
X97790000Y-52644523D01*
X97971428Y-52705000D01*
X98092380Y-52825952D01*
X98152857Y-52946904D01*
X98213333Y-53188809D01*
X98213333Y-53370238D01*
X98152857Y-53612142D01*
X98092380Y-53733095D01*
X97971428Y-53854047D01*
X97790000Y-53914523D01*
X97487619Y-53914523D01*
X90502619Y-52644523D02*
X91288809Y-52644523D01*
X90865476Y-53128333D01*
X91046904Y-53128333D01*
X91167857Y-53188809D01*
X91228333Y-53249285D01*
X91288809Y-53370238D01*
X91288809Y-53672619D01*
X91228333Y-53793571D01*
X91167857Y-53854047D01*
X91046904Y-53914523D01*
X90684047Y-53914523D01*
X90563095Y-53854047D01*
X90502619Y-53793571D01*
X91651666Y-52644523D02*
X92075000Y-53914523D01*
X92498333Y-52644523D01*
X92800714Y-52644523D02*
X93586904Y-52644523D01*
X93163571Y-53128333D01*
X93345000Y-53128333D01*
X93465952Y-53188809D01*
X93526428Y-53249285D01*
X93586904Y-53370238D01*
X93586904Y-53672619D01*
X93526428Y-53793571D01*
X93465952Y-53854047D01*
X93345000Y-53914523D01*
X92982142Y-53914523D01*
X92861190Y-53854047D01*
X92800714Y-53793571D01*
X114693095Y-49215523D02*
X114269761Y-48610761D01*
X113967380Y-49215523D02*
X113967380Y-47945523D01*
X114451190Y-47945523D01*
X114572142Y-48006000D01*
X114632619Y-48066476D01*
X114693095Y-48187428D01*
X114693095Y-48368857D01*
X114632619Y-48489809D01*
X114572142Y-48550285D01*
X114451190Y-48610761D01*
X113967380Y-48610761D01*
X111397142Y-47945523D02*
X112122857Y-47945523D01*
X111760000Y-49215523D02*
X111760000Y-47945523D01*
D13*
X84771592Y-76789642D02*
X84680878Y-76698928D01*
X84590164Y-76426785D01*
X84590164Y-76245357D01*
X84680878Y-75973214D01*
X84862307Y-75791785D01*
X85043735Y-75701071D01*
X85406592Y-75610357D01*
X85678735Y-75610357D01*
X86041592Y-75701071D01*
X86223021Y-75791785D01*
X86404450Y-75973214D01*
X86495164Y-76245357D01*
X86495164Y-76426785D01*
X86404450Y-76698928D01*
X86313735Y-76789642D01*
X84771592Y-77606071D02*
X84680878Y-77696785D01*
X84590164Y-77606071D01*
X84680878Y-77515357D01*
X84771592Y-77606071D01*
X84590164Y-77606071D01*
X84590164Y-78513214D02*
X86495164Y-78513214D01*
X85588021Y-78513214D02*
X85588021Y-79601785D01*
X84590164Y-79601785D02*
X86495164Y-79601785D01*
X84771592Y-80508928D02*
X84680878Y-80599642D01*
X84590164Y-80508928D01*
X84680878Y-80418214D01*
X84771592Y-80508928D01*
X84590164Y-80508928D01*
X84590164Y-81416071D02*
X86495164Y-81416071D01*
X84771592Y-82323214D02*
X84680878Y-82413928D01*
X84590164Y-82323214D01*
X84680878Y-82232500D01*
X84771592Y-82323214D01*
X84590164Y-82323214D01*
X84590164Y-83230357D02*
X86495164Y-83230357D01*
X86495164Y-83956071D01*
X86404450Y-84137500D01*
X86313735Y-84228214D01*
X86132307Y-84318928D01*
X85860164Y-84318928D01*
X85678735Y-84228214D01*
X85588021Y-84137500D01*
X85497307Y-83956071D01*
X85497307Y-83230357D01*
X84771592Y-85135357D02*
X84680878Y-85226071D01*
X84590164Y-85135357D01*
X84680878Y-85044642D01*
X84771592Y-85135357D01*
X84590164Y-85135357D01*
X84590164Y-88401071D02*
X84590164Y-87493928D01*
X86495164Y-87493928D01*
X84771592Y-90124642D02*
X84680878Y-90033928D01*
X84590164Y-89761785D01*
X84590164Y-89580357D01*
X84680878Y-89308214D01*
X84862307Y-89126785D01*
X85043735Y-89036071D01*
X85406592Y-88945357D01*
X85678735Y-88945357D01*
X86041592Y-89036071D01*
X86223021Y-89126785D01*
X86404450Y-89308214D01*
X86495164Y-89580357D01*
X86495164Y-89761785D01*
X86404450Y-90033928D01*
X86313735Y-90124642D01*
X84590164Y-90941071D02*
X86495164Y-90941071D01*
X86495164Y-91394642D01*
X86404450Y-91666785D01*
X86223021Y-91848214D01*
X86041592Y-91938928D01*
X85678735Y-92029642D01*
X85406592Y-92029642D01*
X85043735Y-91938928D01*
X84862307Y-91848214D01*
X84680878Y-91666785D01*
X84590164Y-91394642D01*
X84590164Y-90941071D01*
X81870550Y-78830714D02*
X81870550Y-79737857D01*
X81326264Y-78649285D02*
X83231264Y-79284285D01*
X81326264Y-79919285D01*
X81326264Y-81370714D02*
X83231264Y-81370714D01*
X81416978Y-81370714D02*
X81326264Y-81189285D01*
X81326264Y-80826428D01*
X81416978Y-80645000D01*
X81507692Y-80554285D01*
X81689121Y-80463571D01*
X82233407Y-80463571D01*
X82414835Y-80554285D01*
X82505550Y-80645000D01*
X82596264Y-80826428D01*
X82596264Y-81189285D01*
X82505550Y-81370714D01*
X81326264Y-83094285D02*
X82324121Y-83094285D01*
X82505550Y-83003571D01*
X82596264Y-82822142D01*
X82596264Y-82459285D01*
X82505550Y-82277857D01*
X81416978Y-83094285D02*
X81326264Y-82912857D01*
X81326264Y-82459285D01*
X81416978Y-82277857D01*
X81598407Y-82187142D01*
X81779835Y-82187142D01*
X81961264Y-82277857D01*
X82051978Y-82459285D01*
X82051978Y-82912857D01*
X82142692Y-83094285D01*
X82596264Y-84001428D02*
X80691264Y-84001428D01*
X82505550Y-84001428D02*
X82596264Y-84182857D01*
X82596264Y-84545714D01*
X82505550Y-84727142D01*
X82414835Y-84817857D01*
X82233407Y-84908571D01*
X81689121Y-84908571D01*
X81507692Y-84817857D01*
X81416978Y-84727142D01*
X81326264Y-84545714D01*
X81326264Y-84182857D01*
X81416978Y-84001428D01*
X82596264Y-85452857D02*
X82596264Y-86178571D01*
X83231264Y-85725000D02*
X81598407Y-85725000D01*
X81416978Y-85815714D01*
X81326264Y-85997142D01*
X81326264Y-86178571D01*
X81416978Y-87539285D02*
X81326264Y-87357857D01*
X81326264Y-86995000D01*
X81416978Y-86813571D01*
X81598407Y-86722857D01*
X82324121Y-86722857D01*
X82505550Y-86813571D01*
X82596264Y-86995000D01*
X82596264Y-87357857D01*
X82505550Y-87539285D01*
X82324121Y-87630000D01*
X82142692Y-87630000D01*
X81961264Y-86722857D01*
X81326264Y-88446428D02*
X82596264Y-88446428D01*
X82233407Y-88446428D02*
X82414835Y-88537142D01*
X82505550Y-88627857D01*
X82596264Y-88809285D01*
X82596264Y-88990714D01*
D14*
X110490000Y-49530000D02*
X115750000Y-49530000D01*
X110490000Y-100560000D02*
X110490000Y-49530000D01*
X80010000Y-49530000D02*
X74750000Y-49530000D01*
X80010000Y-100560000D02*
X80010000Y-49530000D01*
D15*
X74750000Y-43460000D02*
X78150000Y-40060000D01*
X115750000Y-100560000D02*
X115750000Y-40060000D01*
X74750000Y-100560000D02*
X115750000Y-100560000D01*
X74750000Y-43460000D02*
X74750000Y-100560000D01*
X78150000Y-40060000D02*
X115750000Y-40060000D01*
D14*
X110490000Y-47625000D02*
X115570000Y-47625000D01*
X115570000Y-47625000D02*
X115570000Y-45085000D01*
X115570000Y-45085000D02*
X110490000Y-45085000D01*
X107670000Y-44805000D02*
X109220000Y-44805000D01*
X110490000Y-45085000D02*
X110490000Y-47625000D01*
X109220000Y-47905000D02*
X107670000Y-47905000D01*
X107670000Y-47905000D02*
X107670000Y-44805000D01*
X100965000Y-45085000D02*
X103505000Y-45085000D01*
X98145000Y-44805000D02*
X99695000Y-44805000D01*
X100965000Y-45085000D02*
X100965000Y-47625000D01*
X99695000Y-47905000D02*
X98145000Y-47905000D01*
X98145000Y-47905000D02*
X98145000Y-44805000D01*
X100965000Y-47625000D02*
X103505000Y-47625000D01*
X103505000Y-47625000D02*
X103505000Y-45085000D01*
D16*
X100075000Y-48060000D02*
X100075000Y-99260000D01*
X109475000Y-99260000D02*
X109475000Y-48060000D01*
X109475000Y-48060000D02*
X100075000Y-48060000D01*
X109475000Y-99260000D02*
X100075000Y-99260000D01*
D17*
X100075000Y-75960000D02*
X101475000Y-75960000D01*
X101475000Y-75960000D02*
X101475000Y-71360000D01*
X101475000Y-71360000D02*
X100075000Y-71360000D01*
D14*
X86790000Y-69420000D02*
X83390000Y-69420000D01*
X86787056Y-69422944D02*
G75*
G02X85090000Y-73520000I-1697056J-1697056D01*
G01*
X83392944Y-69422944D02*
G75*
G03X85090000Y-73520000I1697056J-1697056D01*
G01*
X92765880Y-40248840D02*
X83764120Y-40248840D01*
X92765880Y-36748720D02*
X83764120Y-36748720D01*
X83764120Y-36748720D02*
X83764120Y-51249580D01*
X83764120Y-51249580D02*
X92765880Y-51249580D01*
X92765880Y-51249580D02*
X92765880Y-36748720D01*
X94488000Y-44450000D02*
G75*
G03X94488000Y-44450000I-254000J0D01*
G01*
X94234000Y-43180000D02*
X94234000Y-44196000D01*
X94234000Y-45720000D02*
X94234000Y-45212000D01*
X93726000Y-43878500D02*
G75*
G03X94742000Y-43878500I508000J-571500D01*
G01*
X94996000Y-42418000D02*
G75*
G03X94996000Y-42418000I-762000J0D01*
G01*
X94996000Y-46482000D02*
G75*
G03X94996000Y-46482000I-762000J0D01*
G01*
X110164761Y-40727380D02*
X110164761Y-41536904D01*
X110212380Y-41632142D01*
X110260000Y-41679761D01*
X110355238Y-41727380D01*
X110545714Y-41727380D01*
X110640952Y-41679761D01*
X110688571Y-41632142D01*
X110736190Y-41536904D01*
X110736190Y-40727380D01*
X111164761Y-41441666D02*
X111640952Y-41441666D01*
X111069523Y-41727380D02*
X111402857Y-40727380D01*
X111736190Y-41727380D01*
X112640952Y-41727380D02*
X112307619Y-41251190D01*
X112069523Y-41727380D02*
X112069523Y-40727380D01*
X112450476Y-40727380D01*
X112545714Y-40775000D01*
X112593333Y-40822619D01*
X112640952Y-40917857D01*
X112640952Y-41060714D01*
X112593333Y-41155952D01*
X112545714Y-41203571D01*
X112450476Y-41251190D01*
X112069523Y-41251190D01*
X112926666Y-40727380D02*
X113498095Y-40727380D01*
X113212380Y-41727380D02*
X113212380Y-40727380D01*
X98441190Y-41727380D02*
X98441190Y-40727380D01*
X98822142Y-40727380D01*
X98917380Y-40775000D01*
X98965000Y-40822619D01*
X99012619Y-40917857D01*
X99012619Y-41060714D01*
X98965000Y-41155952D01*
X98917380Y-41203571D01*
X98822142Y-41251190D01*
X98441190Y-41251190D01*
X99345952Y-41060714D02*
X99536428Y-41727380D01*
X99726904Y-41251190D01*
X99917380Y-41727380D01*
X100107857Y-41060714D01*
X100488809Y-41727380D02*
X100488809Y-41060714D01*
X100488809Y-41251190D02*
X100536428Y-41155952D01*
X100584047Y-41108333D01*
X100679285Y-41060714D01*
X100774523Y-41060714D01*
X101822142Y-41679761D02*
X101965000Y-41727380D01*
X102203095Y-41727380D01*
X102298333Y-41679761D01*
X102345952Y-41632142D01*
X102393571Y-41536904D01*
X102393571Y-41441666D01*
X102345952Y-41346428D01*
X102298333Y-41298809D01*
X102203095Y-41251190D01*
X102012619Y-41203571D01*
X101917380Y-41155952D01*
X101869761Y-41108333D01*
X101822142Y-41013095D01*
X101822142Y-40917857D01*
X101869761Y-40822619D01*
X101917380Y-40775000D01*
X102012619Y-40727380D01*
X102250714Y-40727380D01*
X102393571Y-40775000D01*
X102726904Y-40727380D02*
X102965000Y-41727380D01*
X103155476Y-41013095D01*
X103345952Y-41727380D01*
X103584047Y-40727380D01*
D12*
X109037380Y-74398095D02*
X108037380Y-74398095D01*
X108037380Y-74017142D01*
X108085000Y-73921904D01*
X108132619Y-73874285D01*
X108227857Y-73826666D01*
X108370714Y-73826666D01*
X108465952Y-73874285D01*
X108513571Y-73921904D01*
X108561190Y-74017142D01*
X108561190Y-74398095D01*
X109037380Y-72874285D02*
X109037380Y-73445714D01*
X109037380Y-73160000D02*
X108037380Y-73160000D01*
X108180238Y-73255238D01*
X108275476Y-73350476D01*
X108323095Y-73445714D01*
D14*
X84113809Y-69032380D02*
X84113809Y-68032380D01*
X85161428Y-68937142D02*
X85113809Y-68984761D01*
X84970952Y-69032380D01*
X84875714Y-69032380D01*
X84732857Y-68984761D01*
X84637619Y-68889523D01*
X84590000Y-68794285D01*
X84542380Y-68603809D01*
X84542380Y-68460952D01*
X84590000Y-68270476D01*
X84637619Y-68175238D01*
X84732857Y-68080000D01*
X84875714Y-68032380D01*
X84970952Y-68032380D01*
X85113809Y-68080000D01*
X85161428Y-68127619D01*
X85542380Y-68127619D02*
X85590000Y-68080000D01*
X85685238Y-68032380D01*
X85923333Y-68032380D01*
X86018571Y-68080000D01*
X86066190Y-68127619D01*
X86113809Y-68222857D01*
X86113809Y-68318095D01*
X86066190Y-68460952D01*
X85494761Y-69032380D01*
X86113809Y-69032380D01*
X94241928Y-42798952D02*
X94241928Y-42037047D01*
X94622880Y-42418000D02*
X93860976Y-42418000D01*
X94241928Y-46862952D02*
X94241928Y-46101047D01*
M02*
